<svg width="583" height="73" viewBox="0 0 583 73" fill="none" xmlns="http://www.w3.org/2000/svg">
<path d="M3.9305 40.8785V30.0235H19.4615C24.1932 30.0235 27.561 29.0493 29.565 27.101C31.569 25.097 32.571 22.6755 32.571 19.8365C32.571 16.4408 31.4855 13.6853 29.3145 11.57C27.1435 9.45466 23.6922 8.42483 18.9605 8.4805H0.507V1.55H53.279V8.4805H33.1555L35.9945 4.72299C39.5572 6.33733 42.1457 8.61966 43.76 11.57C45.3743 14.5203 46.1815 17.6933 46.1815 21.089C46.1815 25.264 45.1517 28.8267 43.092 31.777C41.088 34.7273 38.1933 36.9818 34.408 38.5405C30.6227 40.0992 26.1137 40.8785 20.881 40.8785H3.9305ZM32.738 60L17.541 36.5365H31.9865L47.3505 60H32.738ZM0.507 20.0035V13.073H53.279V20.0035H0.507ZM93.3453 60V6.56L99.1903 12.405H81.6553V1.55H106.872V60H93.3453ZM116.525 60V51.2325L139.07 29.94C140.851 28.3257 142.16 26.8783 142.995 25.598C143.83 24.3177 144.386 23.1487 144.665 22.091C144.999 21.0333 145.166 20.0592 145.166 19.1685C145.166 16.8305 144.358 15.0492 142.744 13.8245C141.185 12.5442 138.875 11.904 135.814 11.904C133.364 11.904 131.082 12.3772 128.967 13.3235C126.907 14.2698 125.153 15.745 123.706 17.749L113.853 11.403C116.08 8.063 119.197 5.41883 123.205 3.4705C127.213 1.52216 131.833 0.547999 137.066 0.547999C141.408 0.547999 145.193 1.27166 148.422 2.719C151.706 4.11066 154.239 6.08683 156.021 8.6475C157.858 11.2082 158.776 14.2698 158.776 17.8325C158.776 19.7252 158.526 21.6178 158.025 23.5105C157.579 25.3475 156.633 27.2958 155.186 29.3555C153.794 31.4152 151.734 33.7253 149.007 36.286L130.303 53.9045L127.714 48.978H160.697V60H116.525ZM175.63 60L199.177 6.727L202.684 12.572H171.204L177.216 6.226V22.091H165.192V1.55H212.036V10.3175L190.326 60H175.63ZM214.563 72.859L220.074 52.819L221.911 60.334C219.517 60.334 217.541 59.6382 215.983 58.2465C214.48 56.8548 213.728 54.9343 213.728 52.485C213.728 50.0357 214.507 48.0873 216.066 46.64C217.625 45.1927 219.545 44.469 221.828 44.469C224.166 44.469 226.086 45.2205 227.589 46.7235C229.092 48.1708 229.844 50.0913 229.844 52.485C229.844 53.2087 229.788 53.9323 229.677 54.656C229.565 55.324 229.343 56.159 229.009 57.161C228.73 58.1073 228.257 59.332 227.589 60.835L222.83 72.859H214.563ZM255.789 61.002C251.725 61.002 247.689 60.4732 243.681 59.4155C239.729 58.3022 236.333 56.7435 233.494 54.7395L238.838 44.3855C241.065 45.9998 243.626 47.2802 246.52 48.2265C249.471 49.1728 252.449 49.646 255.455 49.646C258.85 49.646 261.522 48.978 263.471 47.642C265.419 46.306 266.393 44.4412 266.393 42.0475C266.393 40.5445 266.004 39.2085 265.224 38.0395C264.445 36.8705 263.053 35.9798 261.049 35.3675C259.101 34.7552 256.345 34.449 252.783 34.449H237.836L240.842 1.55H276.497V12.405H245.685L252.699 6.226L250.612 29.6895L243.598 23.5105H255.956C261.745 23.5105 266.393 24.3177 269.9 25.932C273.463 27.4907 276.051 29.6338 277.666 32.3615C279.28 35.0892 280.087 38.1787 280.087 41.63C280.087 45.0813 279.224 48.2822 277.499 51.2325C275.773 54.1272 273.101 56.493 269.483 58.33C265.92 60.1113 261.355 61.002 255.789 61.002ZM310.625 61.002C305.838 61.002 301.552 59.833 297.766 57.495C293.981 55.1013 291.003 51.65 288.832 47.141C286.661 42.632 285.575 37.1767 285.575 30.775C285.575 24.3733 286.661 18.918 288.832 14.409C291.003 9.9 293.981 6.4765 297.766 4.1385C301.552 1.74483 305.838 0.547999 310.625 0.547999C315.468 0.547999 319.755 1.74483 323.484 4.1385C327.27 6.4765 330.248 9.9 332.419 14.409C334.59 18.918 335.675 24.3733 335.675 30.775C335.675 37.1767 334.59 42.632 332.419 47.141C330.248 51.65 327.27 55.1013 323.484 57.495C319.755 59.833 315.468 61.002 310.625 61.002ZM310.625 49.5625C312.908 49.5625 314.884 48.9223 316.554 47.642C318.28 46.3617 319.616 44.3298 320.562 41.5465C321.564 38.7632 322.065 35.1727 322.065 30.775C322.065 26.3773 321.564 22.7868 320.562 20.0035C319.616 17.2202 318.28 15.1883 316.554 13.908C314.884 12.6277 312.908 11.9875 310.625 11.9875C308.399 11.9875 306.423 12.6277 304.697 13.908C303.027 15.1883 301.691 17.2202 300.689 20.0035C299.743 22.7868 299.269 26.3773 299.269 30.775C299.269 35.1727 299.743 38.7632 300.689 41.5465C301.691 44.3298 303.027 46.3617 304.697 47.642C306.423 48.9223 308.399 49.5625 310.625 49.5625ZM367.298 61.002C362.51 61.002 358.224 59.833 354.439 57.495C350.653 55.1013 347.675 51.65 345.504 47.141C343.333 42.632 342.248 37.1767 342.248 30.775C342.248 24.3733 343.333 18.918 345.504 14.409C347.675 9.9 350.653 6.4765 354.439 4.1385C358.224 1.74483 362.51 0.547999 367.298 0.547999C372.141 0.547999 376.427 1.74483 380.157 4.1385C383.942 6.4765 386.92 9.9 389.091 14.409C391.262 18.918 392.348 24.3733 392.348 30.775C392.348 37.1767 391.262 42.632 389.091 47.141C386.92 51.65 383.942 55.1013 380.157 57.495C376.427 59.833 372.141 61.002 367.298 61.002ZM367.298 49.5625C369.58 49.5625 371.556 48.9223 373.226 47.642C374.952 46.3617 376.288 44.3298 377.234 41.5465C378.236 38.7632 378.737 35.1727 378.737 30.775C378.737 26.3773 378.236 22.7868 377.234 20.0035C376.288 17.2202 374.952 15.1883 373.226 13.908C371.556 12.6277 369.58 11.9875 367.298 11.9875C365.071 11.9875 363.095 12.6277 361.369 13.908C359.699 15.1883 358.363 17.2202 357.361 20.0035C356.415 22.7868 355.942 26.3773 355.942 30.775C355.942 35.1727 356.415 38.7632 357.361 41.5465C358.363 44.3298 359.699 46.3617 361.369 47.642C363.095 48.9223 365.071 49.5625 367.298 49.5625ZM398.361 72.859L403.872 52.819L405.709 60.334C403.315 60.334 401.339 59.6382 399.781 58.2465C398.278 56.8548 397.526 54.9343 397.526 52.485C397.526 50.0357 398.305 48.0873 399.864 46.64C401.423 45.1927 403.343 44.469 405.626 44.469C407.964 44.469 409.884 45.2205 411.387 46.7235C412.89 48.1708 413.642 50.0913 413.642 52.485C413.642 53.2087 413.586 53.9323 413.475 54.656C413.363 55.324 413.141 56.159 412.807 57.161C412.528 58.1073 412.055 59.332 411.387 60.835L406.628 72.859H398.361ZM443.703 61.002C438.916 61.002 434.63 59.833 430.844 57.495C427.059 55.1013 424.081 51.65 421.91 47.141C419.739 42.632 418.653 37.1767 418.653 30.775C418.653 24.3733 419.739 18.918 421.91 14.409C424.081 9.9 427.059 6.4765 430.844 4.1385C434.63 1.74483 438.916 0.547999 443.703 0.547999C448.546 0.547999 452.833 1.74483 456.562 4.1385C460.348 6.4765 463.326 9.9 465.497 14.409C467.668 18.918 468.753 24.3733 468.753 30.775C468.753 37.1767 467.668 42.632 465.497 47.141C463.326 51.65 460.348 55.1013 456.562 57.495C452.833 59.833 448.546 61.002 443.703 61.002ZM443.703 49.5625C445.986 49.5625 447.962 48.9223 449.632 47.642C451.358 46.3617 452.694 44.3298 453.64 41.5465C454.642 38.7632 455.143 35.1727 455.143 30.775C455.143 26.3773 454.642 22.7868 453.64 20.0035C452.694 17.2202 451.358 15.1883 449.632 13.908C447.962 12.6277 445.986 11.9875 443.703 11.9875C441.477 11.9875 439.501 12.6277 437.775 13.908C436.105 15.1883 434.769 17.2202 433.767 20.0035C432.821 22.7868 432.347 26.3773 432.347 30.775C432.347 35.1727 432.821 38.7632 433.767 41.5465C434.769 44.3298 436.105 46.3617 437.775 47.642C439.501 48.9223 441.477 49.5625 443.703 49.5625ZM500.376 61.002C495.589 61.002 491.302 59.833 487.517 57.495C483.732 55.1013 480.753 51.65 478.582 47.141C476.411 42.632 475.326 37.1767 475.326 30.775C475.326 24.3733 476.411 18.918 478.582 14.409C480.753 9.9 483.732 6.4765 487.517 4.1385C491.302 1.74483 495.589 0.547999 500.376 0.547999C505.219 0.547999 509.505 1.74483 513.235 4.1385C517.02 6.4765 519.998 9.9 522.169 14.409C524.34 18.918 525.426 24.3733 525.426 30.775C525.426 37.1767 524.34 42.632 522.169 47.141C519.998 51.65 517.02 55.1013 513.235 57.495C509.505 59.833 505.219 61.002 500.376 61.002ZM500.376 49.5625C502.658 49.5625 504.634 48.9223 506.304 47.642C508.03 46.3617 509.366 44.3298 510.312 41.5465C511.314 38.7632 511.815 35.1727 511.815 30.775C511.815 26.3773 511.314 22.7868 510.312 20.0035C509.366 17.2202 508.03 15.1883 506.304 13.908C504.634 12.6277 502.658 11.9875 500.376 11.9875C498.149 11.9875 496.173 12.6277 494.447 13.908C492.777 15.1883 491.441 17.2202 490.439 20.0035C489.493 22.7868 489.02 26.3773 489.02 30.775C489.02 35.1727 489.493 38.7632 490.439 41.5465C491.441 44.3298 492.777 46.3617 494.447 47.642C496.173 48.9223 498.149 49.5625 500.376 49.5625ZM557.048 61.002C552.261 61.002 547.975 59.833 544.189 57.495C540.404 55.1013 537.426 51.65 535.255 47.141C533.084 42.632 531.998 37.1767 531.998 30.775C531.998 24.3733 533.084 18.918 535.255 14.409C537.426 9.9 540.404 6.4765 544.189 4.1385C547.975 1.74483 552.261 0.547999 557.048 0.547999C561.891 0.547999 566.178 1.74483 569.907 4.1385C573.693 6.4765 576.671 9.9 578.842 14.409C581.013 18.918 582.098 24.3733 582.098 30.775C582.098 37.1767 581.013 42.632 578.842 47.141C576.671 51.65 573.693 55.1013 569.907 57.495C566.178 59.833 561.891 61.002 557.048 61.002ZM557.048 49.5625C559.331 49.5625 561.307 48.9223 562.977 47.642C564.702 46.3617 566.038 44.3298 566.985 41.5465C567.987 38.7632 568.488 35.1727 568.488 30.775C568.488 26.3773 567.987 22.7868 566.985 20.0035C566.038 17.2202 564.702 15.1883 562.977 13.908C561.307 12.6277 559.331 11.9875 557.048 11.9875C554.822 11.9875 552.845 12.6277 551.12 13.908C549.45 15.1883 548.114 17.2202 547.112 20.0035C546.165 22.7868 545.692 26.3773 545.692 30.775C545.692 35.1727 546.165 38.7632 547.112 41.5465C548.114 44.3298 549.45 46.3617 551.12 47.642C552.845 48.9223 554.822 49.5625 557.048 49.5625Z" fill="#FEFFED"/>
<path d="M3.9305 40.8785H2.9305V41.8785H3.9305V40.8785ZM3.9305 30.0235V29.0235H2.9305V30.0235H3.9305ZM29.565 27.101L30.2621 27.8181L30.2721 27.8081L29.565 27.101ZM29.3145 11.57L28.6166 12.2862L29.3145 11.57ZM18.9605 8.4805V9.48057L18.9723 9.48043L18.9605 8.4805ZM0.507 8.4805H-0.493V9.4805H0.507V8.4805ZM0.507 1.55V0.549996H-0.493V1.55H0.507ZM53.279 1.55H54.279V0.549996H53.279V1.55ZM53.279 8.4805V9.4805H54.279V8.4805H53.279ZM33.1555 8.4805L32.3576 7.87766L31.1466 9.4805H33.1555V8.4805ZM35.9945 4.72299L36.4072 3.81214L35.6788 3.48205L35.1966 4.12016L35.9945 4.72299ZM43.76 11.57L42.8827 12.05L42.8827 12.05L43.76 11.57ZM43.092 31.777L42.272 31.2045L42.2648 31.2151L43.092 31.777ZM34.408 38.5405L34.7888 39.4652L34.7888 39.4652L34.408 38.5405ZM32.738 60L31.8987 60.5436L32.1943 61H32.738V60ZM17.541 36.5365V35.5365H15.7019L16.7017 37.0801L17.541 36.5365ZM31.9865 36.5365L32.8231 35.9887L32.527 35.5365H31.9865V36.5365ZM47.3505 60V61H49.2006L48.1871 59.4522L47.3505 60ZM0.507 20.0035H-0.493V21.0035H0.507V20.0035ZM0.507 13.073V12.073H-0.493V13.073H0.507ZM53.279 13.073H54.279V12.073H53.279V13.073ZM53.279 20.0035V21.0035H54.279V20.0035H53.279ZM4.9305 40.8785V30.0235H2.9305V40.8785H4.9305ZM3.9305 31.0235H19.4615V29.0235H3.9305V31.0235ZM19.4615 31.0235C24.2848 31.0235 27.978 30.0387 30.2621 27.818L28.8679 26.384C27.144 28.06 24.1015 29.0235 19.4615 29.0235V31.0235ZM30.2721 27.8081C32.464 25.6162 33.571 22.9402 33.571 19.8365H31.571C31.571 22.4108 30.674 24.5778 28.8579 26.3939L30.2721 27.8081ZM33.571 19.8365C33.571 16.2067 32.4006 13.1808 30.0124 10.8538L28.6166 12.2862C30.5704 14.1899 31.571 16.675 31.571 19.8365H33.571ZM30.0124 10.8538C27.5687 8.47273 23.8008 7.42348 18.9487 7.48057L18.9723 9.48043C23.5836 9.42618 26.7183 10.4366 28.6166 12.2862L30.0124 10.8538ZM18.9605 7.4805H0.507V9.4805H18.9605V7.4805ZM1.507 8.4805V1.55H-0.493V8.4805H1.507ZM0.507 2.55H53.279V0.549996H0.507V2.55ZM52.279 1.55V8.4805H54.279V1.55H52.279ZM53.279 7.4805H33.1555V9.4805H53.279V7.4805ZM33.9534 9.08333L36.7924 5.32583L35.1966 4.12016L32.3576 7.87766L33.9534 9.08333ZM35.5818 5.63385C38.9804 7.17386 41.3888 9.3197 42.8827 12.05L44.6373 11.09C42.9025 7.91962 40.1339 5.5008 36.4072 3.81214L35.5818 5.63385ZM42.8827 12.05C44.4157 14.8517 45.1815 17.8594 45.1815 21.089H47.1815C47.1815 17.5273 46.3329 14.189 44.6373 11.09L42.8827 12.05ZM45.1815 21.089C45.1815 25.0931 44.1965 28.4479 42.272 31.2046L43.912 32.3494C46.1068 29.2055 47.1815 25.4349 47.1815 21.089H45.1815ZM42.2648 31.2151C40.3865 33.9804 37.659 36.1204 34.0273 37.6158L34.7888 39.4652C38.7277 37.8432 41.7895 35.4742 43.9192 32.3389L42.2648 31.2151ZM34.0273 37.6158C30.3912 39.113 26.0179 39.8785 20.881 39.8785V41.8785C26.2095 41.8785 30.8541 41.0853 34.7888 39.4652L34.0273 37.6158ZM20.881 39.8785H3.9305V41.8785H20.881V39.8785ZM33.5773 59.4564L18.3803 35.9929L16.7017 37.0801L31.8987 60.5436L33.5773 59.4564ZM17.541 37.5365H31.9865V35.5365H17.541V37.5365ZM31.1499 37.0843L46.5139 60.5478L48.1871 59.4522L32.8231 35.9887L31.1499 37.0843ZM47.3505 59H32.738V61H47.3505V59ZM1.507 20.0035V13.073H-0.493V20.0035H1.507ZM0.507 14.073H53.279V12.073H0.507V14.073ZM52.279 13.073V20.0035H54.279V13.073H52.279ZM53.279 19.0035H0.507V21.0035H53.279V19.0035ZM93.3453 60H92.3453V61H93.3453V60ZM93.3453 6.56L94.0524 5.85289L92.3453 4.14578V6.56H93.3453ZM99.1903 12.405V13.405H101.605L99.8974 11.6979L99.1903 12.405ZM81.6553 12.405H80.6553V13.405H81.6553V12.405ZM81.6553 1.55V0.549996H80.6553V1.55H81.6553ZM106.872 1.55H107.872V0.549996H106.872V1.55ZM106.872 60V61H107.872V60H106.872ZM94.3453 60V6.56H92.3453V60H94.3453ZM92.6382 7.2671L98.4832 13.1121L99.8974 11.6979L94.0524 5.85289L92.6382 7.2671ZM99.1903 11.405H81.6553V13.405H99.1903V11.405ZM82.6553 12.405V1.55H80.6553V12.405H82.6553ZM81.6553 2.55H106.872V0.549996H81.6553V2.55ZM105.872 1.55V60H107.872V1.55H105.872ZM106.872 59H93.3453V61H106.872V59ZM116.525 60H115.525V61H116.525V60ZM116.525 51.2325L115.838 50.5055L115.525 50.8015V51.2325H116.525ZM139.07 29.94L138.399 29.199L138.391 29.2059L138.383 29.213L139.07 29.94ZM142.995 25.598L143.832 26.1443L143.832 26.1443L142.995 25.598ZM144.665 22.091L143.711 21.7899L143.704 21.813L143.697 21.8365L144.665 22.091ZM142.744 13.8245L142.109 14.5972L142.124 14.6095L142.14 14.6212L142.744 13.8245ZM128.967 13.3235L128.558 12.4106L128.549 12.4148L128.967 13.3235ZM123.706 17.749L123.165 18.5897L123.962 19.1031L124.517 18.3345L123.706 17.749ZM113.853 11.403L113.021 10.8483L112.457 11.6936L113.312 12.2437L113.853 11.403ZM123.205 3.4705L122.768 2.57113L122.768 2.57113L123.205 3.4705ZM148.422 2.719L148.013 3.63151L148.022 3.63572L148.032 3.63975L148.422 2.719ZM156.021 8.6475L155.2 9.21856L155.204 9.22452L155.208 9.23041L156.021 8.6475ZM158.025 23.5105L157.058 23.2546L157.055 23.2647L157.053 23.2749L158.025 23.5105ZM155.186 29.3555L154.367 28.7806L154.362 28.788L154.357 28.7956L155.186 29.3555ZM149.007 36.286L148.322 35.5569L148.321 35.5581L149.007 36.286ZM130.303 53.9045L129.417 54.3696L130.03 55.5353L130.988 54.6324L130.303 53.9045ZM127.714 48.978V47.978H126.059L126.829 49.4431L127.714 48.978ZM160.697 48.978H161.697V47.978H160.697V48.978ZM160.697 60V61H161.697V60H160.697ZM117.525 60V51.2325H115.525V60H117.525ZM117.212 51.9595L139.757 30.667L138.383 29.213L115.838 50.5055L117.212 51.9595ZM139.742 30.681C141.555 29.0379 142.932 27.5251 143.832 26.1443L142.157 25.0517C141.387 26.2316 140.148 27.6134 138.399 29.199L139.742 30.681ZM143.832 26.1443C144.704 24.8071 145.318 23.5388 145.632 22.3455L143.697 21.8365C143.455 22.7585 142.955 23.8283 142.157 25.0517L143.832 26.1443ZM145.618 22.3921C145.976 21.2599 146.166 20.1828 146.166 19.1685H144.166C144.166 19.9355 144.021 20.8068 143.711 21.7899L145.618 22.3921ZM146.166 19.1685C146.166 16.5723 145.253 14.4723 143.348 13.0278L142.14 14.6212C143.464 15.626 144.166 17.0887 144.166 19.1685H146.166ZM143.379 13.0518C141.569 11.5652 138.992 10.904 135.814 10.904V12.904C138.758 12.904 140.802 13.5231 142.109 14.5972L143.379 13.0518ZM135.814 10.904C133.232 10.904 130.809 11.4036 128.558 12.4107L129.375 14.2363C131.355 13.3507 133.497 12.904 135.814 12.904V10.904ZM128.549 12.4148C126.319 13.4396 124.434 15.0327 122.895 17.1635L124.517 18.3345C125.872 16.4573 127.495 15.1001 129.384 14.2322L128.549 12.4148ZM124.248 16.9083L114.395 10.5623L113.312 12.2437L123.165 18.5897L124.248 16.9083ZM114.685 11.9577C116.803 8.78152 119.776 6.24925 123.642 4.36986L122.768 2.57113C118.618 4.58842 115.357 7.34447 113.021 10.8483L114.685 11.9577ZM123.642 4.36986C127.492 2.49834 131.959 1.548 137.066 1.548V-0.452001C131.708 -0.452001 126.934 0.545988 122.768 2.57113L123.642 4.36986ZM137.066 1.548C141.298 1.548 144.939 2.25339 148.013 3.63151L148.831 1.80649C145.448 0.289936 141.518 -0.452001 137.066 -0.452001V1.548ZM148.032 3.63975C151.168 4.96863 153.541 6.83404 155.2 9.21856L156.841 8.07643C154.938 5.33962 152.245 3.2527 148.812 1.79824L148.032 3.63975ZM155.208 9.23041C156.908 11.5994 157.776 14.4505 157.776 17.8325H159.776C159.776 14.0891 158.808 10.8169 156.833 8.06459L155.208 9.23041ZM157.776 17.8325C157.776 19.6359 157.537 21.4426 157.058 23.2546L158.991 23.7664C159.514 21.7931 159.776 19.8145 159.776 17.8325H157.776ZM157.053 23.2749C156.645 24.9571 155.765 26.7913 154.367 28.7806L156.004 29.9304C157.501 27.8004 158.514 25.7379 158.996 23.7461L157.053 23.2749ZM154.357 28.7956C153.022 30.7712 151.02 33.0243 148.322 35.5569L149.691 37.0151C152.449 34.4263 154.566 32.0591 156.014 29.9154L154.357 28.7956ZM148.321 35.5581L129.617 53.1766L130.988 54.6324L149.692 37.0139L148.321 35.5581ZM131.188 53.4394L128.599 48.5129L126.829 49.4431L129.417 54.3696L131.188 53.4394ZM127.714 49.978H160.697V47.978H127.714V49.978ZM159.697 48.978V60H161.697V48.978H159.697ZM160.697 59H116.525V61H160.697V59ZM175.63 60L174.715 59.5957L174.095 61H175.63V60ZM199.177 6.727L200.034 6.2125L199.042 4.55857L198.262 6.32272L199.177 6.727ZM202.684 12.572V13.572H204.45L203.541 12.0575L202.684 12.572ZM171.204 12.572L170.479 11.8843L168.88 13.572H171.204V12.572ZM177.216 6.226H178.216V3.71641L176.491 5.53825L177.216 6.226ZM177.216 22.091V23.091H178.216V22.091H177.216ZM165.192 22.091H164.192V23.091H165.192V22.091ZM165.192 1.55V0.549996H164.192V1.55H165.192ZM212.036 1.55H213.036V0.549996H212.036V1.55ZM212.036 10.3175L212.952 10.7179L213.036 10.5264V10.3175H212.036ZM190.326 60V61H190.98L191.242 60.4004L190.326 60ZM176.545 60.4043L200.092 7.13127L198.262 6.32272L174.715 59.5957L176.545 60.4043ZM198.319 7.24149L201.826 13.0865L203.541 12.0575L200.034 6.2125L198.319 7.24149ZM202.684 11.572H171.204V13.572H202.684V11.572ZM171.93 13.2597L177.942 6.91374L176.491 5.53825L170.479 11.8843L171.93 13.2597ZM176.216 6.226V22.091H178.216V6.226H176.216ZM177.216 21.091H165.192V23.091H177.216V21.091ZM166.192 22.091V1.55H164.192V22.091H166.192ZM165.192 2.55H212.036V0.549996H165.192V2.55ZM211.036 1.55V10.3175H213.036V1.55H211.036ZM211.12 9.91708L189.41 59.5996L191.242 60.4004L212.952 10.7179L211.12 9.91708ZM190.326 59H175.63V61H190.326V59ZM214.563 72.859L213.599 72.5938L213.251 73.859H214.563V72.859ZM220.074 52.819L221.046 52.5815L220.131 48.8406L219.11 52.5538L220.074 52.819ZM221.911 60.334V61.334H223.185L222.883 60.0965L221.911 60.334ZM215.983 58.2465L215.303 58.9803L215.31 58.9864L215.317 58.9924L215.983 58.2465ZM216.066 46.64L215.386 45.9072L215.386 45.9072L216.066 46.64ZM227.589 46.7235L226.882 47.4306L226.889 47.4373L226.896 47.4438L227.589 46.7235ZM229.677 54.656L230.663 54.8204L230.665 54.8081L229.677 54.656ZM229.009 57.161L228.06 56.8448L228.054 56.8617L228.049 56.8788L229.009 57.161ZM227.589 60.835L226.675 60.4289L226.667 60.4477L226.659 60.467L227.589 60.835ZM222.83 72.859V73.859H223.509L223.759 73.227L222.83 72.859ZM215.527 73.1242L221.038 53.0842L219.11 52.5538L213.599 72.5938L215.527 73.1242ZM219.103 53.0565L220.94 60.5715L222.883 60.0965L221.046 52.5815L219.103 53.0565ZM221.911 59.334C219.725 59.334 217.997 58.7049 216.649 57.5006L215.317 58.9924C217.085 60.5715 219.31 61.334 221.911 61.334V59.334ZM216.662 57.5127C215.403 56.3471 214.728 54.7149 214.728 52.485H212.728C212.728 55.1537 213.556 57.3626 215.303 58.9803L216.662 57.5127ZM214.728 52.485C214.728 50.2675 215.423 48.6016 216.747 47.3728L215.386 45.9072C213.592 47.5731 212.728 49.8038 212.728 52.485H214.728ZM216.747 47.3728C218.106 46.1105 219.778 45.469 221.828 45.469V43.469C219.313 43.469 217.144 44.2749 215.386 45.9072L216.747 47.3728ZM221.828 45.469C223.93 45.469 225.586 46.1348 226.882 47.4306L228.296 46.0164C226.586 44.3062 224.402 43.469 221.828 43.469V45.469ZM226.896 47.4438C228.173 48.6744 228.844 50.3194 228.844 52.485H230.844C230.844 49.8632 230.011 47.6673 228.283 46.0032L226.896 47.4438ZM228.844 52.485C228.844 53.1572 228.792 53.83 228.688 54.5039L230.665 54.8081C230.784 54.0347 230.844 53.2602 230.844 52.485H228.844ZM228.69 54.4916C228.591 55.0879 228.386 55.8682 228.06 56.8448L229.957 57.4772C230.3 56.4498 230.54 55.5601 230.663 54.8204L228.69 54.4916ZM228.049 56.8788C227.789 57.7643 227.336 58.9434 226.675 60.4289L228.503 61.2411C229.179 59.7206 229.672 58.4504 229.968 57.4432L228.049 56.8788ZM226.659 60.467L221.9 72.491L223.759 73.227L228.519 61.203L226.659 60.467ZM222.83 71.859H214.563V73.859H222.83V71.859ZM243.681 59.4155L243.41 60.378L243.418 60.3803L243.426 60.3824L243.681 59.4155ZM233.494 54.7395L232.606 54.2809L232.206 55.0544L232.917 55.5565L233.494 54.7395ZM238.838 44.3855L239.425 43.5759L238.483 42.893L237.95 43.9269L238.838 44.3855ZM246.52 48.2265L246.209 49.177L246.215 49.1787L246.52 48.2265ZM263.471 47.642L264.036 48.4667L264.036 48.4667L263.471 47.642ZM265.224 38.0395L266.056 37.4848L265.224 38.0395ZM261.049 35.3675L260.749 36.3215L260.757 36.3239L261.049 35.3675ZM237.836 34.449L236.84 34.358L236.741 35.449H237.836V34.449ZM240.842 1.55V0.549996H239.929L239.846 1.459L240.842 1.55ZM276.497 1.55H277.497V0.549996H276.497V1.55ZM276.497 12.405V13.405H277.497V12.405H276.497ZM245.685 12.405L245.024 11.6546L243.037 13.405H245.685V12.405ZM252.699 6.226L253.695 6.31461L253.917 3.82032L252.038 5.47564L252.699 6.226ZM250.612 29.6895L249.951 30.4399L251.433 31.7455L251.608 29.7781L250.612 29.6895ZM243.598 23.5105V22.5105H240.95L242.937 24.2609L243.598 23.5105ZM269.9 25.932L269.482 26.8404L269.491 26.8443L269.499 26.8482L269.9 25.932ZM277.666 32.3615L278.526 31.8522L278.526 31.8522L277.666 32.3615ZM277.499 51.2325L278.358 51.7446L278.362 51.7374L277.499 51.2325ZM269.483 58.33L269.93 59.2244L269.935 59.2217L269.483 58.33ZM255.789 60.002C251.813 60.002 247.863 59.4847 243.936 58.4486L243.426 60.3824C247.516 61.4616 251.637 62.002 255.789 62.002V60.002ZM243.952 58.453C240.09 57.365 236.802 55.8503 234.071 53.9225L232.917 55.5565C235.864 57.6367 239.368 59.2394 243.41 60.378L243.952 58.453ZM234.383 55.1981L239.727 44.8441L237.95 43.9269L232.606 54.2809L234.383 55.1981ZM238.251 45.1951C240.571 46.8767 243.226 48.2018 246.209 49.177L246.831 47.276C244.025 46.3585 241.559 45.123 239.425 43.5759L238.251 45.1951ZM246.215 49.1787C249.261 50.1557 252.342 50.646 255.455 50.646V48.646C252.556 48.646 249.68 48.1899 246.826 47.2743L246.215 49.1787ZM255.455 50.646C258.968 50.646 261.863 49.9568 264.036 48.4667L262.905 46.8173C261.182 47.9992 258.733 48.646 255.455 48.646V50.646ZM264.036 48.4667C266.261 46.9413 267.393 44.7657 267.393 42.0475H265.393C265.393 44.1167 264.577 45.6707 262.905 46.8173L264.036 48.4667ZM267.393 42.0475C267.393 40.3615 266.953 38.8297 266.056 37.4848L264.392 38.5942C265.054 39.5873 265.393 40.7275 265.393 42.0475H267.393ZM266.056 37.4848C265.099 36.0489 263.462 35.059 261.341 34.4111L260.757 36.3239C262.645 36.9006 263.791 37.6921 264.392 38.5942L266.056 37.4848ZM261.349 34.4135C259.257 33.7561 256.383 33.449 252.783 33.449V35.449C256.307 35.449 258.944 35.7542 260.749 36.3215L261.349 34.4135ZM252.783 33.449H237.836V35.449H252.783V33.449ZM238.832 34.54L241.838 1.64099L239.846 1.459L236.84 34.358L238.832 34.54ZM240.842 2.55H276.497V0.549996H240.842V2.55ZM275.497 1.55V12.405H277.497V1.55H275.497ZM276.497 11.405H245.685V13.405H276.497V11.405ZM246.346 13.1554L253.36 6.97635L252.038 5.47564L245.024 11.6546L246.346 13.1554ZM251.703 6.13738L249.616 29.6009L251.608 29.7781L253.695 6.31461L251.703 6.13738ZM251.273 28.9391L244.259 22.7601L242.937 24.2609L249.951 30.4399L251.273 28.9391ZM243.598 24.5105H255.956V22.5105H243.598V24.5105ZM255.956 24.5105C261.666 24.5105 266.155 25.3089 269.482 26.8404L270.318 25.0236C266.631 23.3264 261.824 22.5105 255.956 22.5105V24.5105ZM269.499 26.8482C272.914 28.3422 275.32 30.3612 276.805 32.8708L278.526 31.8522C276.783 28.9065 274.011 26.6392 270.301 25.0158L269.499 26.8482ZM276.805 32.8708C278.32 35.4307 279.087 38.3414 279.087 41.63H281.087C281.087 38.0159 280.24 34.7476 278.526 31.8522L276.805 32.8708ZM279.087 41.63C279.087 44.9057 278.271 47.932 276.635 50.7276L278.362 51.7374C280.178 48.6323 281.087 45.257 281.087 41.63H279.087ZM276.64 50.7204C275.029 53.4222 272.514 55.6693 269.03 57.4383L269.935 59.2217C273.688 57.3167 276.517 54.8321 278.358 51.7446L276.64 50.7204ZM269.035 57.4356C265.656 59.1255 261.258 60.002 255.789 60.002V62.002C261.453 62.002 266.184 61.0972 269.93 59.2244L269.035 57.4356ZM297.766 57.495L297.232 58.3402L297.241 58.3458L297.766 57.495ZM288.832 47.141L287.931 47.5748L288.832 47.141ZM288.832 14.409L289.733 14.8428L289.733 14.8428L288.832 14.409ZM297.766 4.1385L298.292 4.98934L298.301 4.98369L297.766 4.1385ZM323.484 4.1385L322.944 4.98008L322.952 4.98475L322.959 4.9893L323.484 4.1385ZM332.419 14.409L331.518 14.8428L331.518 14.8428L332.419 14.409ZM332.419 47.141L331.518 46.7072L331.518 46.7072L332.419 47.141ZM323.484 57.495L324.015 58.3423L324.019 58.3402L323.484 57.495ZM316.554 47.642L315.958 46.8389L315.952 46.8436L315.945 46.8484L316.554 47.642ZM320.562 41.5465L319.621 41.2078L319.618 41.2162L319.615 41.2246L320.562 41.5465ZM320.562 20.0035L319.615 20.3254L319.618 20.3338L319.621 20.3422L320.562 20.0035ZM316.554 13.908L315.945 14.7016L315.952 14.7064L315.958 14.7111L316.554 13.908ZM304.697 13.908L304.101 13.1049L304.095 13.1096L304.088 13.1144L304.697 13.908ZM300.689 20.0035L299.748 19.6648L299.745 19.6732L299.742 19.6816L300.689 20.0035ZM300.689 41.5465L299.742 41.8684L299.745 41.8768L299.748 41.8852L300.689 41.5465ZM304.697 47.642L304.088 48.4356L304.095 48.4404L304.101 48.4451L304.697 47.642ZM310.625 60.002C306.009 60.002 301.907 58.8772 298.292 56.6442L297.241 58.3458C301.196 60.7888 305.667 62.002 310.625 62.002V60.002ZM298.301 56.6498C294.692 54.3677 291.832 51.0678 289.733 46.7072L287.931 47.5748C290.173 52.2322 293.27 55.835 297.232 58.3402L298.301 56.6498ZM289.733 46.7072C287.643 42.3658 286.575 37.067 286.575 30.775H284.575C284.575 37.2863 285.679 42.8982 287.931 47.5748L289.733 46.7072ZM286.575 30.775C286.575 24.483 287.643 19.1842 289.733 14.8428L287.931 13.9752C285.679 18.6518 284.575 24.2637 284.575 30.775H286.575ZM289.733 14.8428C291.832 10.4837 294.689 7.21483 298.292 4.9893L297.241 3.2877C293.273 5.73817 290.174 9.31632 287.931 13.9752L289.733 14.8428ZM298.301 4.98369C301.915 2.69819 306.014 1.548 310.625 1.548V-0.452001C305.662 -0.452001 301.188 0.791473 297.232 3.2933L298.301 4.98369ZM310.625 1.548C315.295 1.548 319.391 2.69939 322.944 4.98008L324.024 3.29691C320.119 0.790271 315.641 -0.452001 310.625 -0.452001V1.548ZM322.959 4.9893C326.562 7.21483 329.419 10.4837 331.518 14.8428L333.32 13.9752C331.077 9.31632 327.977 5.73817 324.01 3.2877L322.959 4.9893ZM331.518 14.8428C333.608 19.1842 334.675 24.483 334.675 30.775H336.675C336.675 24.2637 335.572 18.6518 333.32 13.9752L331.518 14.8428ZM334.675 30.775C334.675 37.067 333.608 42.3658 331.518 46.7072L333.32 47.5748C335.572 42.8982 336.675 37.2863 336.675 30.775H334.675ZM331.518 46.7072C329.418 51.0678 326.559 54.3677 322.95 56.6498L324.019 58.3402C327.981 55.835 331.077 52.2322 333.32 47.5748L331.518 46.7072ZM322.953 56.6477C319.398 58.8761 315.3 60.002 310.625 60.002V62.002C315.637 62.002 320.111 60.7899 324.015 58.3423L322.953 56.6477ZM310.625 50.5625C313.108 50.5625 315.303 49.8613 317.162 48.4356L315.945 46.8484C314.465 47.9833 312.707 48.5625 310.625 48.5625V50.5625ZM317.15 48.4451C319.089 47.0066 320.52 44.775 321.509 41.8684L319.615 41.2246C318.711 43.8846 317.47 45.7168 315.958 46.8389L317.15 48.4451ZM321.503 41.8852C322.558 38.954 323.065 35.2374 323.065 30.775H321.065C321.065 35.1079 320.57 38.5723 319.621 41.2078L321.503 41.8852ZM323.065 30.775C323.065 26.3126 322.558 22.596 321.503 19.6648L319.621 20.3422C320.57 22.9777 321.065 26.4421 321.065 30.775H323.065ZM321.509 19.6816C320.52 16.775 319.089 14.5434 317.15 13.1049L315.958 14.7111C317.47 15.8332 318.711 17.6654 319.615 20.3254L321.509 19.6816ZM317.162 13.1144C315.303 11.6887 313.108 10.9875 310.625 10.9875V12.9875C312.707 12.9875 314.465 13.5667 315.945 14.7016L317.162 13.1144ZM310.625 10.9875C308.192 10.9875 306.006 11.6918 304.101 13.1049L305.293 14.7111C306.839 13.5635 308.605 12.9875 310.625 12.9875V10.9875ZM304.088 13.1144C302.216 14.5496 300.79 16.7712 299.748 19.6648L301.63 20.3422C302.592 17.6691 303.837 15.827 305.305 14.7016L304.088 13.1144ZM299.742 19.6816C298.748 22.6064 298.269 26.3166 298.269 30.775H300.269C300.269 26.438 300.737 22.9672 301.636 20.3254L299.742 19.6816ZM298.269 30.775C298.269 35.2334 298.748 38.9436 299.742 41.8684L301.636 41.2246C300.737 38.5828 300.269 35.112 300.269 30.775H298.269ZM299.748 41.8852C300.79 44.7788 302.216 47.0003 304.088 48.4356L305.305 46.8484C303.837 45.723 302.592 43.8809 301.63 41.2078L299.748 41.8852ZM304.101 48.4451C306.006 49.8582 308.192 50.5625 310.625 50.5625V48.5625C308.605 48.5625 306.839 47.9865 305.293 46.8389L304.101 48.4451ZM354.439 57.495L353.904 58.3402L353.913 58.3458L354.439 57.495ZM345.504 47.141L344.603 47.5748L345.504 47.141ZM345.504 14.409L346.405 14.8428L346.405 14.8428L345.504 14.409ZM354.439 4.1385L354.964 4.98934L354.973 4.98369L354.439 4.1385ZM380.157 4.1385L379.617 4.98008L379.624 4.98475L379.631 4.9893L380.157 4.1385ZM389.091 14.409L388.19 14.8428L388.19 14.8428L389.091 14.409ZM389.091 47.141L388.19 46.7072L388.19 46.7072L389.091 47.141ZM380.157 57.495L380.688 58.3423L380.691 58.3402L380.157 57.495ZM373.226 47.642L372.63 46.8389L372.624 46.8436L372.618 46.8484L373.226 47.642ZM377.234 41.5465L376.293 41.2078L376.29 41.2162L376.287 41.2246L377.234 41.5465ZM377.234 20.0035L376.287 20.3254L376.29 20.3338L376.293 20.3422L377.234 20.0035ZM373.226 13.908L372.618 14.7016L372.624 14.7064L372.63 14.7111L373.226 13.908ZM361.369 13.908L360.773 13.1049L360.767 13.1096L360.761 13.1144L361.369 13.908ZM357.361 20.0035L356.42 19.6648L356.417 19.6732L356.414 19.6816L357.361 20.0035ZM357.361 41.5465L356.414 41.8684L356.417 41.8768L356.42 41.8852L357.361 41.5465ZM361.369 47.642L360.761 48.4356L360.767 48.4404L360.773 48.4451L361.369 47.642ZM367.298 60.002C362.681 60.002 358.58 58.8772 354.964 56.6442L353.913 58.3458C357.869 60.7888 362.339 62.002 367.298 62.002V60.002ZM354.973 56.6498C351.364 54.3677 348.505 51.0678 346.405 46.7072L344.603 47.5748C346.846 52.2322 349.943 55.835 353.904 58.3402L354.973 56.6498ZM346.405 46.7072C344.315 42.3658 343.248 37.067 343.248 30.775H341.248C341.248 37.2863 342.351 42.8982 344.603 47.5748L346.405 46.7072ZM343.248 30.775C343.248 24.483 344.315 19.1842 346.405 14.8428L344.603 13.9752C342.351 18.6518 341.248 24.2637 341.248 30.775H343.248ZM346.405 14.8428C348.504 10.4837 351.361 7.21483 354.964 4.9893L353.913 3.2877C349.946 5.73817 346.846 9.31632 344.603 13.9752L346.405 14.8428ZM354.973 4.98369C358.587 2.69819 362.686 1.548 367.298 1.548V-0.452001C362.335 -0.452001 357.861 0.791473 353.904 3.2933L354.973 4.98369ZM367.298 1.548C371.968 1.548 376.063 2.69939 379.617 4.98008L380.697 3.29691C376.791 0.790271 372.314 -0.452001 367.298 -0.452001V1.548ZM379.631 4.9893C383.234 7.21483 386.091 10.4837 388.19 14.8428L389.992 13.9752C387.749 9.31632 384.65 5.73817 380.682 3.2877L379.631 4.9893ZM388.19 14.8428C390.28 19.1842 391.348 24.483 391.348 30.775H393.348C393.348 24.2637 392.244 18.6518 389.992 13.9752L388.19 14.8428ZM391.348 30.775C391.348 37.067 390.28 42.3658 388.19 46.7072L389.992 47.5748C392.244 42.8982 393.348 37.2863 393.348 30.775H391.348ZM388.19 46.7072C386.091 51.0678 383.231 54.3677 379.622 56.6498L380.691 58.3402C384.653 55.835 387.75 52.2322 389.992 47.5748L388.19 46.7072ZM379.626 56.6477C376.071 58.8761 371.972 60.002 367.298 60.002V62.002C372.309 62.002 376.783 60.7899 380.688 58.3423L379.626 56.6477ZM367.298 50.5625C369.78 50.5625 371.975 49.8613 373.835 48.4356L372.618 46.8484C371.137 47.9833 369.38 48.5625 367.298 48.5625V50.5625ZM373.822 48.4451C375.761 47.0066 377.193 44.775 378.181 41.8684L376.287 41.2246C375.383 43.8846 374.143 45.7168 372.63 46.8389L373.822 48.4451ZM378.175 41.8852C379.23 38.954 379.737 35.2374 379.737 30.775H377.737C377.737 35.1079 377.242 38.5723 376.293 41.2078L378.175 41.8852ZM379.737 30.775C379.737 26.3126 379.23 22.596 378.175 19.6648L376.293 20.3422C377.242 22.9777 377.737 26.4421 377.737 30.775H379.737ZM378.181 19.6816C377.193 16.775 375.761 14.5434 373.822 13.1049L372.63 14.7111C374.143 15.8332 375.383 17.6654 376.287 20.3254L378.181 19.6816ZM373.835 13.1144C371.975 11.6887 369.78 10.9875 367.298 10.9875V12.9875C369.38 12.9875 371.137 13.5667 372.618 14.7016L373.835 13.1144ZM367.298 10.9875C364.865 10.9875 362.678 11.6918 360.773 13.1049L361.965 14.7111C363.512 13.5635 365.277 12.9875 367.298 12.9875V10.9875ZM360.761 13.1144C358.889 14.5496 357.462 16.7712 356.42 19.6648L358.302 20.3422C359.264 17.6691 360.51 15.827 361.978 14.7016L360.761 13.1144ZM356.414 19.6816C355.42 22.6064 354.942 26.3166 354.942 30.775H356.942C356.942 26.438 357.41 22.9672 358.308 20.3254L356.414 19.6816ZM354.942 30.775C354.942 35.2334 355.42 38.9436 356.414 41.8684L358.308 41.2246C357.41 38.5828 356.942 35.112 356.942 30.775H354.942ZM356.42 41.8852C357.462 44.7788 358.889 47.0003 360.761 48.4356L361.978 46.8484C360.51 45.723 359.264 43.8809 358.302 41.2078L356.42 41.8852ZM360.773 48.4451C362.678 49.8582 364.865 50.5625 367.298 50.5625V48.5625C365.277 48.5625 363.512 47.9865 361.965 46.8389L360.773 48.4451ZM398.361 72.859L397.397 72.5938L397.049 73.859H398.361V72.859ZM403.872 52.819L404.843 52.5815L403.929 48.8406L402.908 52.5538L403.872 52.819ZM405.709 60.334V61.334H406.983L406.68 60.0965L405.709 60.334ZM399.781 58.2465L399.101 58.9803L399.108 58.9864L399.115 58.9924L399.781 58.2465ZM399.864 46.64L399.184 45.9072L399.184 45.9072L399.864 46.64ZM411.387 46.7235L410.68 47.4306L410.687 47.4373L410.693 47.4438L411.387 46.7235ZM413.475 54.656L414.461 54.8204L414.463 54.8081L413.475 54.656ZM412.807 57.161L411.858 56.8448L411.852 56.8617L411.847 56.8788L412.807 57.161ZM411.387 60.835L410.473 60.4289L410.465 60.4477L410.457 60.467L411.387 60.835ZM406.628 72.859V73.859H407.307L407.557 73.227L406.628 72.859ZM399.325 73.1242L404.836 53.0842L402.908 52.5538L397.397 72.5938L399.325 73.1242ZM402.901 53.0565L404.738 60.5715L406.68 60.0965L404.843 52.5815L402.901 53.0565ZM405.709 59.334C403.523 59.334 401.795 58.7049 400.447 57.5006L399.115 58.9924C400.883 60.5715 403.108 61.334 405.709 61.334V59.334ZM400.46 57.5127C399.201 56.3471 398.526 54.7149 398.526 52.485H396.526C396.526 55.1537 397.354 57.3626 399.101 58.9803L400.46 57.5127ZM398.526 52.485C398.526 50.2675 399.221 48.6016 400.544 47.3728L399.184 45.9072C397.39 47.5731 396.526 49.8038 396.526 52.485H398.526ZM400.544 47.3728C401.904 46.1105 403.575 45.469 405.626 45.469V43.469C403.111 43.469 400.941 44.2749 399.184 45.9072L400.544 47.3728ZM405.626 45.469C407.727 45.469 409.384 46.1348 410.68 47.4306L412.094 46.0164C410.384 44.3062 408.2 43.469 405.626 43.469V45.469ZM410.693 47.4438C411.971 48.6744 412.642 50.3194 412.642 52.485H414.642C414.642 49.8632 413.809 47.6673 412.081 46.0032L410.693 47.4438ZM412.642 52.485C412.642 53.1572 412.59 53.83 412.486 54.5039L414.463 54.8081C414.582 54.0347 414.642 53.2602 414.642 52.485H412.642ZM412.488 54.4916C412.389 55.0879 412.183 55.8682 411.858 56.8448L413.755 57.4772C414.098 56.4498 414.338 55.5601 414.461 54.8204L412.488 54.4916ZM411.847 56.8788C411.587 57.7643 411.133 58.9434 410.473 60.4289L412.301 61.2411C412.977 59.7206 413.47 58.4504 413.766 57.4432L411.847 56.8788ZM410.457 60.467L405.698 72.491L407.557 73.227L412.317 61.203L410.457 60.467ZM406.628 71.859H398.361V73.859H406.628V71.859ZM430.844 57.495L430.31 58.3402L430.319 58.3458L430.844 57.495ZM421.91 47.141L421.009 47.5748L421.91 47.141ZM421.91 14.409L422.811 14.8428L422.811 14.8428L421.91 14.409ZM430.844 4.1385L431.37 4.98934L431.379 4.98369L430.844 4.1385ZM456.562 4.1385L456.022 4.98008L456.03 4.98475L456.037 4.9893L456.562 4.1385ZM465.497 14.409L464.596 14.8428L464.596 14.8428L465.497 14.409ZM465.497 47.141L464.596 46.7072L464.596 46.7072L465.497 47.141ZM456.562 57.495L457.094 58.3423L457.097 58.3402L456.562 57.495ZM449.632 47.642L449.036 46.8389L449.03 46.8436L449.024 46.8484L449.632 47.642ZM453.64 41.5465L452.699 41.2078L452.696 41.2162L452.693 41.2246L453.64 41.5465ZM453.64 20.0035L452.693 20.3254L452.696 20.3338L452.699 20.3422L453.64 20.0035ZM449.632 13.908L449.024 14.7016L449.03 14.7064L449.036 14.7111L449.632 13.908ZM437.775 13.908L437.179 13.1049L437.173 13.1096L437.167 13.1144L437.775 13.908ZM433.767 20.0035L432.826 19.6648L432.823 19.6732L432.82 19.6816L433.767 20.0035ZM433.767 41.5465L432.82 41.8684L432.823 41.8768L432.826 41.8852L433.767 41.5465ZM437.775 47.642L437.167 48.4356L437.173 48.4404L437.179 48.4451L437.775 47.642ZM443.703 60.002C439.087 60.002 434.985 58.8772 431.37 56.6442L430.319 58.3458C434.274 60.7888 438.745 62.002 443.703 62.002V60.002ZM431.379 56.6498C427.77 54.3677 424.911 51.0678 422.811 46.7072L421.009 47.5748C423.251 52.2322 426.348 55.835 430.31 58.3402L431.379 56.6498ZM422.811 46.7072C420.721 42.3658 419.653 37.067 419.653 30.775H417.653C417.653 37.2863 418.757 42.8982 421.009 47.5748L422.811 46.7072ZM419.653 30.775C419.653 24.483 420.721 19.1842 422.811 14.8428L421.009 13.9752C418.757 18.6518 417.653 24.2637 417.653 30.775H419.653ZM422.811 14.8428C424.91 10.4837 427.767 7.21483 431.37 4.9893L430.319 3.2877C426.352 5.73817 423.252 9.31632 421.009 13.9752L422.811 14.8428ZM431.379 4.98369C434.993 2.69819 439.092 1.548 443.703 1.548V-0.452001C438.741 -0.452001 434.266 0.791473 430.31 3.2933L431.379 4.98369ZM443.703 1.548C448.373 1.548 452.469 2.69939 456.022 4.98008L457.103 3.29691C453.197 0.790271 448.719 -0.452001 443.703 -0.452001V1.548ZM456.037 4.9893C459.64 7.21483 462.497 10.4837 464.596 14.8428L466.398 13.9752C464.155 9.31632 461.055 5.73817 457.088 3.2877L456.037 4.9893ZM464.596 14.8428C466.686 19.1842 467.753 24.483 467.753 30.775H469.753C469.753 24.2637 468.65 18.6518 466.398 13.9752L464.596 14.8428ZM467.753 30.775C467.753 37.067 466.686 42.3658 464.596 46.7072L466.398 47.5748C468.65 42.8982 469.753 37.2863 469.753 30.775H467.753ZM464.596 46.7072C462.496 51.0678 459.637 54.3677 456.028 56.6498L457.097 58.3402C461.059 55.835 464.156 52.2322 466.398 47.5748L464.596 46.7072ZM456.031 56.6477C452.477 58.8761 448.378 60.002 443.703 60.002V62.002C448.715 62.002 453.189 60.7899 457.094 58.3423L456.031 56.6477ZM443.703 50.5625C446.186 50.5625 448.381 49.8613 450.24 48.4356L449.024 46.8484C447.543 47.9833 445.786 48.5625 443.703 48.5625V50.5625ZM450.228 48.4451C452.167 47.0066 453.598 44.775 454.587 41.8684L452.693 41.2246C451.789 43.8846 450.549 45.7168 449.036 46.8389L450.228 48.4451ZM454.581 41.8852C455.636 38.954 456.143 35.2374 456.143 30.775H454.143C454.143 35.1079 453.648 38.5723 452.699 41.2078L454.581 41.8852ZM456.143 30.775C456.143 26.3126 455.636 22.596 454.581 19.6648L452.699 20.3422C453.648 22.9777 454.143 26.4421 454.143 30.775H456.143ZM454.587 19.6816C453.598 16.775 452.167 14.5434 450.228 13.1049L449.036 14.7111C450.549 15.8332 451.789 17.6654 452.693 20.3254L454.587 19.6816ZM450.24 13.1144C448.381 11.6887 446.186 10.9875 443.703 10.9875V12.9875C445.786 12.9875 447.543 13.5667 449.024 14.7016L450.24 13.1144ZM443.703 10.9875C441.271 10.9875 439.084 11.6918 437.179 13.1049L438.371 14.7111C439.918 13.5635 441.683 12.9875 443.703 12.9875V10.9875ZM437.167 13.1144C435.294 14.5496 433.868 16.7712 432.826 19.6648L434.708 20.3422C435.67 17.6691 436.915 15.827 438.383 14.7016L437.167 13.1144ZM432.82 19.6816C431.826 22.6064 431.347 26.3166 431.347 30.775H433.347C433.347 26.438 433.816 22.9672 434.714 20.3254L432.82 19.6816ZM431.347 30.775C431.347 35.2334 431.826 38.9436 432.82 41.8684L434.714 41.2246C433.816 38.5828 433.347 35.112 433.347 30.775H431.347ZM432.826 41.8852C433.868 44.7788 435.294 47.0003 437.167 48.4356L438.383 46.8484C436.915 45.723 435.67 43.8809 434.708 41.2078L432.826 41.8852ZM437.179 48.4451C439.084 49.8582 441.271 50.5625 443.703 50.5625V48.5625C441.683 48.5625 439.918 47.9865 438.371 46.8389L437.179 48.4451ZM487.517 57.495L486.982 58.3402L486.991 58.3458L487.517 57.495ZM478.582 47.141L477.681 47.5748L478.582 47.141ZM478.582 14.409L479.483 14.8428L479.483 14.8428L478.582 14.409ZM487.517 4.1385L488.042 4.98934L488.051 4.98369L487.517 4.1385ZM513.235 4.1385L512.695 4.98008L512.702 4.98475L512.709 4.9893L513.235 4.1385ZM522.169 14.409L521.268 14.8428L521.268 14.8428L522.169 14.409ZM522.169 47.141L521.268 46.7072L521.268 46.7072L522.169 47.141ZM513.235 57.495L513.766 58.3423L513.769 58.3402L513.235 57.495ZM506.304 47.642L505.708 46.8389L505.702 46.8436L505.696 46.8484L506.304 47.642ZM510.312 41.5465L509.371 41.2078L509.368 41.2162L509.366 41.2246L510.312 41.5465ZM510.312 20.0035L509.366 20.3254L509.368 20.3338L509.371 20.3422L510.312 20.0035ZM506.304 13.908L505.696 14.7016L505.702 14.7064L505.708 14.7111L506.304 13.908ZM494.447 13.908L493.851 13.1049L493.845 13.1096L493.839 13.1144L494.447 13.908ZM490.439 20.0035L489.498 19.6648L489.495 19.6732L489.493 19.6816L490.439 20.0035ZM490.439 41.5465L489.493 41.8684L489.495 41.8768L489.498 41.8852L490.439 41.5465ZM494.447 47.642L493.839 48.4356L493.845 48.4404L493.851 48.4451L494.447 47.642ZM500.376 60.002C495.759 60.002 491.658 58.8772 488.042 56.6442L486.991 58.3458C490.947 60.7888 495.418 62.002 500.376 62.002V60.002ZM488.051 56.6498C484.442 54.3677 481.583 51.0678 479.483 46.7072L477.681 47.5748C479.924 52.2322 483.021 55.835 486.982 58.3402L488.051 56.6498ZM479.483 46.7072C477.393 42.3658 476.326 37.067 476.326 30.775H474.326C474.326 37.2863 475.43 42.8982 477.681 47.5748L479.483 46.7072ZM476.326 30.775C476.326 24.483 477.393 19.1842 479.483 14.8428L477.681 13.9752C475.43 18.6518 474.326 24.2637 474.326 30.775H476.326ZM479.483 14.8428C481.582 10.4837 484.439 7.21483 488.042 4.9893L486.991 3.2877C483.024 5.73817 479.924 9.31632 477.681 13.9752L479.483 14.8428ZM488.051 4.98369C491.666 2.69819 495.764 1.548 500.376 1.548V-0.452001C495.413 -0.452001 490.939 0.791473 486.982 3.2933L488.051 4.98369ZM500.376 1.548C505.046 1.548 509.141 2.69939 512.695 4.98008L513.775 3.29691C509.869 0.790271 505.392 -0.452001 500.376 -0.452001V1.548ZM512.709 4.9893C516.313 7.21483 519.169 10.4837 521.268 14.8428L523.07 13.9752C520.827 9.31632 517.728 5.73817 513.76 3.2877L512.709 4.9893ZM521.268 14.8428C523.359 19.1842 524.426 24.483 524.426 30.775H526.426C526.426 24.2637 525.322 18.6518 523.07 13.9752L521.268 14.8428ZM524.426 30.775C524.426 37.067 523.359 42.3658 521.268 46.7072L523.07 47.5748C525.322 42.8982 526.426 37.2863 526.426 30.775H524.426ZM521.268 46.7072C519.169 51.0678 516.309 54.3677 512.7 56.6498L513.769 58.3402C517.731 55.835 520.828 52.2322 523.07 47.5748L521.268 46.7072ZM512.704 56.6477C509.149 58.8761 505.05 60.002 500.376 60.002V62.002C505.387 62.002 509.861 60.7899 513.766 58.3423L512.704 56.6477ZM500.376 50.5625C502.858 50.5625 505.053 49.8613 506.913 48.4356L505.696 46.8484C504.216 47.9833 502.458 48.5625 500.376 48.5625V50.5625ZM506.9 48.4451C508.839 47.0066 510.271 44.775 511.259 41.8684L509.366 41.2246C508.461 43.8846 507.221 45.7168 505.708 46.8389L506.9 48.4451ZM511.253 41.8852C512.308 38.954 512.815 35.2374 512.815 30.775H510.815C510.815 35.1079 510.32 38.5723 509.371 41.2078L511.253 41.8852ZM512.815 30.775C512.815 26.3126 512.308 22.596 511.253 19.6648L509.371 20.3422C510.32 22.9777 510.815 26.4421 510.815 30.775H512.815ZM511.259 19.6816C510.271 16.775 508.839 14.5434 506.9 13.1049L505.708 14.7111C507.221 15.8332 508.461 17.6654 509.366 20.3254L511.259 19.6816ZM506.913 13.1144C505.053 11.6887 502.858 10.9875 500.376 10.9875V12.9875C502.458 12.9875 504.216 13.5667 505.696 14.7016L506.913 13.1144ZM500.376 10.9875C497.943 10.9875 495.756 11.6918 493.851 13.1049L495.043 14.7111C496.59 13.5635 498.355 12.9875 500.376 12.9875V10.9875ZM493.839 13.1144C491.967 14.5496 490.54 16.7712 489.498 19.6648L491.38 20.3422C492.343 17.6691 493.588 15.827 495.056 14.7016L493.839 13.1144ZM489.493 19.6816C488.498 22.6064 488.02 26.3166 488.02 30.775H490.02C490.02 26.438 490.488 22.9672 491.386 20.3254L489.493 19.6816ZM488.02 30.775C488.02 35.2334 488.498 38.9436 489.493 41.8684L491.386 41.2246C490.488 38.5828 490.02 35.112 490.02 30.775H488.02ZM489.498 41.8852C490.54 44.7788 491.967 47.0003 493.839 48.4356L495.056 46.8484C493.588 45.723 492.343 43.8809 491.38 41.2078L489.498 41.8852ZM493.851 48.4451C495.756 49.8582 497.943 50.5625 500.376 50.5625V48.5625C498.355 48.5625 496.59 47.9865 495.043 46.8389L493.851 48.4451ZM544.189 57.495L543.655 58.3402L543.664 58.3458L544.189 57.495ZM535.255 47.141L534.354 47.5748L535.255 47.141ZM535.255 14.409L536.156 14.8428L536.156 14.8428L535.255 14.409ZM544.189 4.1385L544.715 4.98934L544.724 4.98369L544.189 4.1385ZM569.907 4.1385L569.367 4.98008L569.374 4.98475L569.382 4.9893L569.907 4.1385ZM578.842 14.409L577.941 14.8428L577.941 14.8428L578.842 14.409ZM578.842 47.141L577.941 46.7072L577.941 46.7072L578.842 47.141ZM569.907 57.495L570.438 58.3423L570.442 58.3402L569.907 57.495ZM562.977 47.642L562.381 46.8389L562.375 46.8436L562.368 46.8484L562.977 47.642ZM566.985 41.5465L566.044 41.2078L566.041 41.2162L566.038 41.2246L566.985 41.5465ZM566.985 20.0035L566.038 20.3254L566.041 20.3338L566.044 20.3422L566.985 20.0035ZM562.977 13.908L562.368 14.7016L562.375 14.7064L562.381 14.7111L562.977 13.908ZM551.12 13.908L550.524 13.1049L550.518 13.1096L550.511 13.1144L551.12 13.908ZM547.112 20.0035L546.171 19.6648L546.168 19.6732L546.165 19.6816L547.112 20.0035ZM547.112 41.5465L546.165 41.8684L546.168 41.8768L546.171 41.8852L547.112 41.5465ZM551.12 47.642L550.511 48.4356L550.518 48.4404L550.524 48.4451L551.12 47.642ZM557.048 60.002C552.432 60.002 548.33 58.8772 544.715 56.6442L543.664 58.3458C547.619 60.7888 552.09 62.002 557.048 62.002V60.002ZM544.724 56.6498C541.115 54.3677 538.255 51.0678 536.156 46.7072L534.354 47.5748C536.596 52.2322 539.693 55.835 543.655 58.3402L544.724 56.6498ZM536.156 46.7072C534.065 42.3658 532.998 37.067 532.998 30.775H530.998C530.998 37.2863 532.102 42.8982 534.354 47.5748L536.156 46.7072ZM532.998 30.775C532.998 24.483 534.065 19.1842 536.156 14.8428L534.354 13.9752C532.102 18.6518 530.998 24.2637 530.998 30.775H532.998ZM536.156 14.8428C538.255 10.4837 541.111 7.21483 544.715 4.9893L543.664 3.2877C539.696 5.73817 536.597 9.31632 534.354 13.9752L536.156 14.8428ZM544.724 4.98369C548.338 2.69819 552.436 1.548 557.048 1.548V-0.452001C552.085 -0.452001 547.611 0.791473 543.655 3.2933L544.724 4.98369ZM557.048 1.548C561.718 1.548 565.813 2.69939 569.367 4.98008L570.447 3.29691C566.542 0.790271 562.064 -0.452001 557.048 -0.452001V1.548ZM569.382 4.9893C572.985 7.21483 575.842 10.4837 577.941 14.8428L579.743 13.9752C577.5 9.31632 574.4 5.73817 570.433 3.2877L569.382 4.9893ZM577.941 14.8428C580.031 19.1842 581.098 24.483 581.098 30.775H583.098C583.098 24.2637 581.994 18.6518 579.743 13.9752L577.941 14.8428ZM581.098 30.775C581.098 37.067 580.031 42.3658 577.941 46.7072L579.743 47.5748C581.994 42.8982 583.098 37.2863 583.098 30.775H581.098ZM577.941 46.7072C575.841 51.0678 572.982 54.3677 569.373 56.6498L570.442 58.3402C574.403 55.835 577.5 52.2322 579.743 47.5748L577.941 46.7072ZM569.376 56.6477C565.821 58.8761 561.723 60.002 557.048 60.002V62.002C562.06 62.002 566.534 60.7899 570.438 58.3423L569.376 56.6477ZM557.048 50.5625C559.531 50.5625 561.725 49.8613 563.585 48.4356L562.368 46.8484C560.888 47.9833 559.13 48.5625 557.048 48.5625V50.5625ZM563.573 48.4451C565.511 47.0066 566.943 44.775 567.931 41.8684L566.038 41.2246C565.134 43.8846 563.893 45.7168 562.381 46.8389L563.573 48.4451ZM567.926 41.8852C568.981 38.954 569.488 35.2374 569.488 30.775H567.488C567.488 35.1079 566.993 38.5723 566.044 41.2078L567.926 41.8852ZM569.488 30.775C569.488 26.3126 568.981 22.596 567.926 19.6648L566.044 20.3422C566.993 22.9777 567.488 26.4421 567.488 30.775H569.488ZM567.931 19.6816C566.943 16.775 565.511 14.5434 563.573 13.1049L562.381 14.7111C563.893 15.8332 565.134 17.6654 566.038 20.3254L567.931 19.6816ZM563.585 13.1144C561.725 11.6887 559.531 10.9875 557.048 10.9875V12.9875C559.13 12.9875 560.888 13.5667 562.368 14.7016L563.585 13.1144ZM557.048 10.9875C554.615 10.9875 552.428 11.6918 550.524 13.1049L551.716 14.7111C553.262 13.5635 555.028 12.9875 557.048 12.9875V10.9875ZM550.511 13.1144C548.639 14.5496 547.212 16.7712 546.171 19.6648L548.053 20.3422C549.015 17.6691 550.26 15.827 551.728 14.7016L550.511 13.1144ZM546.165 19.6816C545.17 22.6064 544.692 26.3166 544.692 30.775H546.692C546.692 26.438 547.16 22.9672 548.058 20.3254L546.165 19.6816ZM544.692 30.775C544.692 35.2334 545.17 38.9436 546.165 41.8684L548.058 41.2246C547.16 38.5828 546.692 35.112 546.692 30.775H544.692ZM546.171 41.8852C547.212 44.7788 548.639 47.0003 550.511 48.4356L551.728 46.8484C550.26 45.723 549.015 43.8809 548.053 41.2078L546.171 41.8852ZM550.524 48.4451C552.428 49.8582 554.615 50.5625 557.048 50.5625V48.5625C555.028 48.5625 553.262 47.9865 551.716 46.8389L550.524 48.4451Z" fill="#05668D"/>
</svg>
