<svg width="219" height="62" viewBox="0 0 219 62" fill="none" xmlns="http://www.w3.org/2000/svg">
<path d="M2.7555 60V51.2325L25.3005 29.94C27.0818 28.3257 28.39 26.8783 29.225 25.598C30.06 24.3177 30.6167 23.1487 30.895 22.091C31.229 21.0333 31.396 20.0592 31.396 19.1685C31.396 16.8305 30.5888 15.0492 28.9745 13.8245C27.4158 12.5442 25.1057 11.904 22.044 11.904C19.5947 11.904 17.3123 12.3772 15.197 13.3235C13.1373 14.2698 11.3838 15.745 9.9365 17.749L0.0835 11.403C2.31017 8.063 5.4275 5.41883 9.4355 3.4705C13.4435 1.52216 18.0638 0.547999 23.2965 0.547999C27.6385 0.547999 31.4238 1.27166 34.6525 2.719C37.9368 4.11066 40.4697 6.08683 42.251 8.6475C44.088 11.2082 45.0065 14.2698 45.0065 17.8325C45.0065 19.7252 44.756 21.6178 44.255 23.5105C43.8097 25.3475 42.8633 27.2958 41.416 29.3555C40.0243 31.4152 37.9647 33.7253 35.237 36.286L16.533 53.9045L13.9445 48.978H46.927V60H2.7555ZM72.3815 61.002C68.3178 61.002 64.282 60.4732 60.274 59.4155C56.3216 58.3022 52.926 56.7435 50.087 54.7395L55.431 44.3855C57.6576 45.9998 60.2183 47.2802 63.113 48.2265C66.0633 49.1728 69.0415 49.646 72.0475 49.646C75.4431 49.646 78.1151 48.978 80.0635 47.642C82.0118 46.306 82.986 44.4412 82.986 42.0475C82.986 40.5445 82.5963 39.2085 81.817 38.0395C81.0376 36.8705 79.646 35.9798 77.642 35.3675C75.6936 34.7552 72.9381 34.449 69.3755 34.449H54.429L57.435 1.55H93.0895V12.405H62.278L69.292 6.226L67.2045 29.6895L60.1905 23.5105H72.5485C78.3378 23.5105 82.986 24.3177 86.493 25.932C90.0556 27.4907 92.6441 29.6338 94.2585 32.3615C95.8728 35.0892 96.68 38.1787 96.68 41.63C96.68 45.0813 95.8171 48.2822 94.0915 51.2325C92.3658 54.1272 89.6938 56.493 86.0755 58.33C82.5128 60.1113 77.9481 61.002 72.3815 61.002ZM121.633 61.002C117.57 61.002 113.534 60.4732 109.526 59.4155C105.574 58.3022 102.178 56.7435 99.3389 54.7395L104.683 44.3855C106.91 45.9998 109.47 47.2802 112.365 48.2265C115.315 49.1728 118.293 49.646 121.299 49.646C124.695 49.646 127.367 48.978 129.315 47.642C131.264 46.306 132.238 44.4412 132.238 42.0475C132.238 40.5445 131.848 39.2085 131.069 38.0395C130.29 36.8705 128.898 35.9798 126.894 35.3675C124.946 34.7552 122.19 34.449 118.627 34.449H103.681L106.687 1.55H142.341V12.405H111.53L118.544 6.226L116.456 29.6895L109.442 23.5105H121.8C127.59 23.5105 132.238 24.3177 135.745 25.932C139.308 27.4907 141.896 29.6338 143.51 32.3615C145.125 35.0892 145.932 38.1787 145.932 41.63C145.932 45.0813 145.069 48.2822 143.343 51.2325C141.618 54.1272 138.946 56.493 135.327 58.33C131.765 60.1113 127.2 61.002 121.633 61.002ZM159.038 60L198.951 1.55H208.888L168.975 60H159.038ZM164.132 33.113C161.293 33.113 158.788 32.4728 156.617 31.1925C154.446 29.8565 152.72 27.9917 151.44 25.598C150.215 23.1487 149.603 20.2818 149.603 16.9975C149.603 13.7132 150.215 10.8742 151.44 8.4805C152.72 6.08683 154.446 4.222 156.617 2.886C158.788 1.55 161.293 0.882 164.132 0.882C166.971 0.882 169.476 1.55 171.647 2.886C173.818 4.222 175.515 6.08683 176.74 8.4805C177.965 10.8742 178.577 13.7132 178.577 16.9975C178.577 20.2818 177.965 23.1487 176.74 25.598C175.515 27.9917 173.818 29.8565 171.647 31.1925C169.476 32.4728 166.971 33.113 164.132 33.113ZM164.132 26.266C165.969 26.266 167.444 25.5145 168.557 24.0115C169.67 22.4528 170.227 20.1148 170.227 16.9975C170.227 13.8802 169.67 11.57 168.557 10.067C167.444 8.50833 165.969 7.729 164.132 7.729C162.35 7.729 160.875 8.50833 159.706 10.067C158.593 11.57 158.036 13.8802 158.036 16.9975C158.036 20.0592 158.593 22.3693 159.706 23.928C160.875 25.4867 162.35 26.266 164.132 26.266ZM203.794 60.668C201.011 60.668 198.506 60.0278 196.279 58.7475C194.108 57.4115 192.41 55.5467 191.186 53.153C189.961 50.7037 189.349 47.8368 189.349 44.5525C189.349 41.2682 189.961 38.4292 191.186 36.0355C192.41 33.6418 194.108 31.777 196.279 30.441C198.506 29.105 201.011 28.437 203.794 28.437C206.689 28.437 209.222 29.105 211.393 30.441C213.564 31.777 215.261 33.6418 216.486 36.0355C217.711 38.4292 218.323 41.2682 218.323 44.5525C218.323 47.8368 217.711 50.7037 216.486 53.153C215.261 55.5467 213.564 57.4115 211.393 58.7475C209.222 60.0278 206.689 60.668 203.794 60.668ZM203.794 53.821C205.631 53.821 207.106 53.0695 208.22 51.5665C209.333 50.0078 209.89 47.6698 209.89 44.5525C209.89 41.4908 209.333 39.1807 208.22 37.622C207.106 36.0633 205.631 35.284 203.794 35.284C202.013 35.284 200.538 36.0633 199.369 37.622C198.255 39.125 197.699 41.4352 197.699 44.5525C197.699 47.6698 198.255 50.0078 199.369 51.5665C200.538 53.0695 202.013 53.821 203.794 53.821Z" fill="#FEFFED"/>
<path d="M2.7555 60H1.7555V61H2.7555V60ZM2.7555 51.2325L2.06888 50.5055L1.7555 50.8015V51.2325H2.7555ZM25.3005 29.94L24.629 29.199L24.6214 29.2059L24.6139 29.213L25.3005 29.94ZM29.225 25.598L30.0626 26.1443L30.0626 26.1443L29.225 25.598ZM30.895 22.091L29.9414 21.7899L29.9341 21.813L29.9279 21.8365L30.895 22.091ZM28.9745 13.8245L28.3398 14.5972L28.3547 14.6095L28.3701 14.6212L28.9745 13.8245ZM15.197 13.3235L14.7886 12.4106L14.7795 12.4148L15.197 13.3235ZM9.9365 17.749L9.39502 18.5897L10.1921 19.1031L10.7472 18.3345L9.9365 17.749ZM0.0835 11.403L-0.74855 10.8483L-1.31209 11.6936L-0.457977 12.2437L0.0835 11.403ZM9.4355 3.4705L8.99831 2.57113L8.99831 2.57113L9.4355 3.4705ZM34.6525 2.719L34.2434 3.63151L34.2529 3.63572L34.2624 3.63975L34.6525 2.719ZM42.251 8.6475L41.4301 9.21856L41.4342 9.22452L41.4385 9.23041L42.251 8.6475ZM44.255 23.5105L43.2883 23.2546L43.2856 23.2647L43.2832 23.2749L44.255 23.5105ZM41.416 29.3555L40.5978 28.7806L40.5925 28.788L40.5874 28.7956L41.416 29.3555ZM35.237 36.286L34.5526 35.5569L34.5513 35.5581L35.237 36.286ZM16.533 53.9045L15.6478 54.3696L16.2602 55.5353L17.2187 54.6324L16.533 53.9045ZM13.9445 48.978V47.978H12.2894L13.0593 49.4431L13.9445 48.978ZM46.927 48.978H47.927V47.978H46.927V48.978ZM46.927 60V61H47.927V60H46.927ZM3.7555 60V51.2325H1.7555V60H3.7555ZM3.44212 51.9595L25.9871 30.667L24.6139 29.213L2.06888 50.5055L3.44212 51.9595ZM25.972 30.681C27.785 29.0379 29.1621 27.5251 30.0626 26.1443L28.3874 25.0517C27.6179 26.2316 26.3786 27.6134 24.629 29.199L25.972 30.681ZM30.0626 26.1443C30.9347 24.8071 31.548 23.5388 31.8621 22.3455L29.9279 21.8365C29.6853 22.7585 29.1853 23.8283 28.3874 25.0517L30.0626 26.1443ZM31.8486 22.3921C32.2061 21.2599 32.396 20.1828 32.396 19.1685H30.396C30.396 19.9355 30.2519 20.8068 29.9414 21.7899L31.8486 22.3921ZM32.396 19.1685C32.396 16.5723 31.483 14.4723 29.5789 13.0278L28.3701 14.6212C29.6947 15.626 30.396 17.0887 30.396 19.1685H32.396ZM29.6092 13.0518C27.7996 11.5652 25.2225 10.904 22.044 10.904V12.904C24.9889 12.904 27.0321 13.5231 28.3398 14.5972L29.6092 13.0518ZM22.044 10.904C19.4621 10.904 17.0397 11.4036 14.7886 12.4107L15.6054 14.2363C17.585 13.3507 19.7272 12.904 22.044 12.904V10.904ZM14.7795 12.4148C12.5491 13.4396 10.6647 15.0327 9.12582 17.1635L10.7472 18.3345C12.1029 16.4573 13.7255 15.1001 15.6145 14.2322L14.7795 12.4148ZM10.478 16.9083L0.624977 10.5623L-0.457977 12.2437L9.39502 18.5897L10.478 16.9083ZM0.91555 11.9577C3.033 8.78152 6.00654 6.24925 9.87269 4.36986L8.99831 2.57113C4.84846 4.58842 1.58733 7.34447 -0.74855 10.8483L0.91555 11.9577ZM9.87269 4.36986C13.7227 2.49834 18.1891 1.548 23.2965 1.548V-0.452001C17.9386 -0.452001 13.1643 0.545988 8.99831 2.57113L9.87269 4.36986ZM23.2965 1.548C27.5288 1.548 31.1692 2.25339 34.2434 3.63151L35.0616 1.80649C31.6785 0.289936 27.7482 -0.452001 23.2965 -0.452001V1.548ZM34.2624 3.63975C37.3985 4.96863 39.7713 6.83404 41.4301 9.21856L43.0719 8.07643C41.168 5.33962 38.4752 3.2527 35.0427 1.79824L34.2624 3.63975ZM41.4385 9.23041C43.138 11.5994 44.0065 14.4505 44.0065 17.8325H46.0065C46.0065 14.0891 45.038 10.8169 43.0635 8.06459L41.4385 9.23041ZM44.0065 17.8325C44.0065 19.6359 43.768 21.4426 43.2883 23.2546L45.2217 23.7664C45.744 21.7931 46.0065 19.8145 46.0065 17.8325H44.0065ZM43.2832 23.2749C42.8753 24.9571 41.9957 26.7913 40.5978 28.7806L42.2342 29.9304C43.731 27.8004 44.744 25.7379 45.2269 23.7461L43.2832 23.2749ZM40.5874 28.7956C39.2526 30.7712 37.2503 33.0243 34.5526 35.5569L35.9214 37.0151C38.679 34.4263 40.7961 32.0591 42.2446 29.9154L40.5874 28.7956ZM34.5513 35.5581L15.8473 53.1766L17.2187 54.6324L35.9227 37.0139L34.5513 35.5581ZM17.4182 53.4394L14.8297 48.5129L13.0593 49.4431L15.6478 54.3696L17.4182 53.4394ZM13.9445 49.978H46.927V47.978H13.9445V49.978ZM45.927 48.978V60H47.927V48.978H45.927ZM46.927 59H2.7555V61H46.927V59ZM60.274 59.4155L60.0028 60.378L60.0108 60.3803L60.0188 60.3824L60.274 59.4155ZM50.087 54.7395L49.1983 54.2809L48.7991 55.0544L49.5103 55.5565L50.087 54.7395ZM55.431 44.3855L56.0179 43.5759L55.076 42.893L54.5423 43.9269L55.431 44.3855ZM63.113 48.2265L62.8022 49.177L62.8075 49.1787L63.113 48.2265ZM80.0635 47.642L80.629 48.4667L80.629 48.4667L80.0635 47.642ZM81.817 38.0395L82.649 37.4848L81.817 38.0395ZM77.642 35.3675L77.3421 36.3215L77.3497 36.3239L77.642 35.3675ZM54.429 34.449L53.4331 34.358L53.3334 35.449H54.429V34.449ZM57.435 1.55V0.549996H56.5222L56.4391 1.459L57.435 1.55ZM93.0895 1.55H94.0895V0.549996H93.0895V1.55ZM93.0895 12.405V13.405H94.0895V12.405H93.0895ZM62.278 12.405L61.6169 11.6546L59.63 13.405H62.278V12.405ZM69.292 6.226L70.288 6.31461L70.5099 3.82032L68.6309 5.47564L69.292 6.226ZM67.2045 29.6895L66.5434 30.4399L68.0255 31.7455L68.2005 29.7781L67.2045 29.6895ZM60.1905 23.5105V22.5105H57.5425L59.5294 24.2609L60.1905 23.5105ZM86.493 25.932L86.0748 26.8404L86.0834 26.8443L86.0921 26.8482L86.493 25.932ZM94.2585 32.3615L95.119 31.8522L95.119 31.8522L94.2585 32.3615ZM94.0915 51.2325L94.9504 51.7446L94.9546 51.7374L94.0915 51.2325ZM86.0755 58.33L86.5227 59.2244L86.5281 59.2217L86.0755 58.33ZM72.3815 60.002C68.4056 60.002 64.4555 59.4847 60.5291 58.4486L60.0188 60.3824C64.1084 61.4616 68.2299 62.002 72.3815 62.002V60.002ZM60.5451 58.453C56.6828 57.365 53.3947 55.8503 50.6636 53.9225L49.5103 55.5565C52.4572 57.6367 55.9605 59.2394 60.0028 60.378L60.5451 58.453ZM50.9756 55.1981L56.3196 44.8441L54.5423 43.9269L49.1983 54.2809L50.9756 55.1981ZM54.844 45.1951C57.1634 46.8767 59.8192 48.2018 62.8022 49.177L63.4237 47.276C60.6174 46.3585 58.1519 45.123 56.0179 43.5759L54.844 45.1951ZM62.8075 49.1787C65.8535 50.1557 68.9346 50.646 72.0475 50.646V48.646C69.1483 48.646 66.2731 48.1899 63.4184 47.2743L62.8075 49.1787ZM72.0475 50.646C75.5605 50.646 78.456 49.9568 80.629 48.4667L79.4979 46.8173C77.7743 47.9992 75.3257 48.646 72.0475 48.646V50.646ZM80.629 48.4667C82.8535 46.9413 83.986 44.7657 83.986 42.0475H81.986C81.986 44.1167 81.17 45.6707 79.4979 46.8173L80.629 48.4667ZM83.986 42.0475C83.986 40.3615 83.5456 38.8297 82.649 37.4848L80.9849 38.5942C81.647 39.5873 81.986 40.7275 81.986 42.0475H83.986ZM82.649 37.4848C81.6918 36.0489 80.0545 35.059 77.9342 34.4111L77.3497 36.3239C79.2374 36.9006 80.3835 37.6921 80.9849 38.5942L82.649 37.4848ZM77.9418 34.4135C75.8502 33.7561 72.9761 33.449 69.3755 33.449V35.449C72.9001 35.449 75.5371 35.7542 77.3421 36.3215L77.9418 34.4135ZM69.3755 33.449H54.429V35.449H69.3755V33.449ZM55.4248 34.54L58.4308 1.64099L56.4391 1.459L53.4331 34.358L55.4248 34.54ZM57.435 2.55H93.0895V0.549996H57.435V2.55ZM92.0895 1.55V12.405H94.0895V1.55H92.0895ZM93.0895 11.405H62.278V13.405H93.0895V11.405ZM62.939 13.1554L69.953 6.97635L68.6309 5.47564L61.6169 11.6546L62.939 13.1554ZM68.2959 6.13738L66.2084 29.6009L68.2005 29.7781L70.288 6.31461L68.2959 6.13738ZM67.8655 28.9391L60.8515 22.7601L59.5294 24.2609L66.5434 30.4399L67.8655 28.9391ZM60.1905 24.5105H72.5485V22.5105H60.1905V24.5105ZM72.5485 24.5105C78.2591 24.5105 82.7478 25.3089 86.0748 26.8404L86.9111 25.0236C83.2241 23.3264 78.4165 22.5105 72.5485 22.5105V24.5105ZM86.0921 26.8482C89.507 28.3422 91.9126 30.3612 93.3979 32.8708L95.119 31.8522C93.3757 28.9065 90.6043 26.6392 86.8938 25.0158L86.0921 26.8482ZM93.3979 32.8708C94.9129 35.4307 95.68 38.3414 95.68 41.63H97.68C97.68 38.0159 96.8327 34.7476 95.119 31.8522L93.3979 32.8708ZM95.68 41.63C95.68 44.9057 94.8634 47.932 93.2283 50.7276L94.9546 51.7374C96.7708 48.6323 97.68 45.257 97.68 41.63H95.68ZM93.2325 50.7204C91.6218 53.4222 89.1072 55.6693 85.6228 57.4383L86.5281 59.2217C90.2804 57.3167 93.1098 54.8321 94.9504 51.7446L93.2325 50.7204ZM85.6282 57.4356C82.2484 59.1255 77.8509 60.002 72.3815 60.002V62.002C78.0453 62.002 82.7772 61.0972 86.5227 59.2244L85.6282 57.4356ZM109.526 59.4155L109.255 60.378L109.263 60.3803L109.271 60.3824L109.526 59.4155ZM99.3389 54.7395L98.4503 54.2809L98.051 55.0544L98.7622 55.5565L99.3389 54.7395ZM104.683 44.3855L105.27 43.5759L104.328 42.893L103.794 43.9269L104.683 44.3855ZM112.365 48.2265L112.054 49.177L112.059 49.1787L112.365 48.2265ZM129.315 47.642L129.881 48.4667L129.881 48.4667L129.315 47.642ZM131.069 38.0395L131.901 37.4848L131.069 38.0395ZM126.894 35.3675L126.594 36.3215L126.602 36.3239L126.894 35.3675ZM103.681 34.449L102.685 34.358L102.585 35.449H103.681V34.449ZM106.687 1.55V0.549996H105.774L105.691 1.459L106.687 1.55ZM142.341 1.55H143.341V0.549996H142.341V1.55ZM142.341 12.405V13.405H143.341V12.405H142.341ZM111.53 12.405L110.869 11.6546L108.882 13.405H111.53V12.405ZM118.544 6.226L119.54 6.31461L119.762 3.82032L117.883 5.47564L118.544 6.226ZM116.456 29.6895L115.795 30.4399L117.277 31.7455L117.452 29.7781L116.456 29.6895ZM109.442 23.5105V22.5105H106.794L108.781 24.2609L109.442 23.5105ZM135.745 25.932L135.327 26.8404L135.335 26.8443L135.344 26.8482L135.745 25.932ZM143.51 32.3615L144.371 31.8522L144.371 31.8522L143.51 32.3615ZM143.343 51.2325L144.202 51.7446L144.207 51.7374L143.343 51.2325ZM135.327 58.33L135.775 59.2244L135.78 59.2217L135.327 58.33ZM121.633 60.002C117.658 60.002 113.707 59.4847 109.781 58.4486L109.271 60.3824C113.36 61.4616 117.482 62.002 121.633 62.002V60.002ZM109.797 58.453C105.935 57.365 102.647 55.8503 99.9156 53.9225L98.7622 55.5565C101.709 57.6367 105.212 59.2394 109.255 60.378L109.797 58.453ZM100.228 55.1981L105.572 44.8441L103.794 43.9269L98.4503 54.2809L100.228 55.1981ZM104.096 45.1951C106.415 46.8767 109.071 48.2018 112.054 49.177L112.676 47.276C109.869 46.3585 107.404 45.123 105.27 43.5759L104.096 45.1951ZM112.059 49.1787C115.105 50.1557 118.187 50.646 121.299 50.646V48.646C118.4 48.646 115.525 48.1899 112.67 47.2743L112.059 49.1787ZM121.299 50.646C124.812 50.646 127.708 49.9568 129.881 48.4667L128.75 46.8173C127.026 47.9992 124.578 48.646 121.299 48.646V50.646ZM129.881 48.4667C132.105 46.9413 133.238 44.7657 133.238 42.0475H131.238C131.238 44.1167 130.422 45.6707 128.75 46.8173L129.881 48.4667ZM133.238 42.0475C133.238 40.3615 132.798 38.8297 131.901 37.4848L130.237 38.5942C130.899 39.5873 131.238 40.7275 131.238 42.0475H133.238ZM131.901 37.4848C130.944 36.0489 129.306 35.059 127.186 34.4111L126.602 36.3239C128.489 36.9006 129.635 37.6921 130.237 38.5942L131.901 37.4848ZM127.194 34.4135C125.102 33.7561 122.228 33.449 118.627 33.449V35.449C122.152 35.449 124.789 35.7542 126.594 36.3215L127.194 34.4135ZM118.627 33.449H103.681V35.449H118.627V33.449ZM104.677 34.54L107.683 1.64099L105.691 1.459L102.685 34.358L104.677 34.54ZM106.687 2.55H142.341V0.549996H106.687V2.55ZM141.341 1.55V12.405H143.341V1.55H141.341ZM142.341 11.405H111.53V13.405H142.341V11.405ZM112.191 13.1554L119.205 6.97635L117.883 5.47564L110.869 11.6546L112.191 13.1554ZM117.548 6.13738L115.46 29.6009L117.452 29.7781L119.54 6.31461L117.548 6.13738ZM117.117 28.9391L110.103 22.7601L108.781 24.2609L115.795 30.4399L117.117 28.9391ZM109.442 24.5105H121.8V22.5105H109.442V24.5105ZM121.8 24.5105C127.511 24.5105 132 25.3089 135.327 26.8404L136.163 25.0236C132.476 23.3264 127.668 22.5105 121.8 22.5105V24.5105ZM135.344 26.8482C138.759 28.3422 141.165 30.3612 142.65 32.8708L144.371 31.8522C142.628 28.9065 139.856 26.6392 136.146 25.0158L135.344 26.8482ZM142.65 32.8708C144.165 35.4307 144.932 38.3414 144.932 41.63H146.932C146.932 38.0159 146.085 34.7476 144.371 31.8522L142.65 32.8708ZM144.932 41.63C144.932 44.9057 144.115 47.932 142.48 50.7276L144.207 51.7374C146.023 48.6323 146.932 45.257 146.932 41.63H144.932ZM142.484 50.7204C140.874 53.4222 138.359 55.6693 134.875 57.4383L135.78 59.2217C139.532 57.3167 142.362 54.8321 144.202 51.7446L142.484 50.7204ZM134.88 57.4356C131.5 59.1255 127.103 60.002 121.633 60.002V62.002C127.297 62.002 132.029 61.0972 135.775 59.2244L134.88 57.4356ZM159.038 60L158.212 59.4361L157.144 61H159.038V60ZM198.951 1.55V0.549996H198.423L198.125 0.986074L198.951 1.55ZM208.888 1.55L209.713 2.11392L210.781 0.549996H208.888V1.55ZM168.975 60V61H169.503L169.8 60.5639L168.975 60ZM156.617 31.1925L156.093 32.0442L156.101 32.0491L156.109 32.0539L156.617 31.1925ZM151.44 25.598L150.545 26.0452L150.551 26.0575L150.558 26.0696L151.44 25.598ZM151.44 8.4805L150.558 8.00884L150.554 8.01689L150.549 8.02502L151.44 8.4805ZM156.617 2.886L157.141 3.73766L157.141 3.73766L156.617 2.886ZM176.74 8.4805L177.63 8.02502L177.63 8.02502L176.74 8.4805ZM176.74 25.598L177.63 26.0535L177.635 26.0452L176.74 25.598ZM171.647 31.1925L172.155 32.0539L172.163 32.0491L172.171 32.0442L171.647 31.1925ZM168.557 24.0115L169.361 24.6067L169.366 24.5998L169.371 24.5927L168.557 24.0115ZM168.557 10.067L167.743 10.6482L167.748 10.6553L167.754 10.6622L168.557 10.067ZM159.706 10.067L158.906 9.46698L158.903 9.47177L159.706 10.067ZM159.706 23.928L158.892 24.5092L158.899 24.5187L158.906 24.528L159.706 23.928ZM196.279 58.7475L195.755 59.5992L195.768 59.607L195.781 59.6144L196.279 58.7475ZM191.186 53.153L190.291 53.6002L190.295 53.6085L191.186 53.153ZM191.186 36.0355L192.076 36.491L192.076 36.491L191.186 36.0355ZM196.279 30.441L195.765 29.5835L195.755 29.5893L196.279 30.441ZM211.393 30.441L210.869 31.2927L210.869 31.2927L211.393 30.441ZM216.486 36.0355L217.376 35.58L217.376 35.58L216.486 36.0355ZM216.486 53.153L217.376 53.6085L217.381 53.6002L216.486 53.153ZM211.393 58.7475L211.901 59.6089L211.909 59.6041L211.917 59.5992L211.393 58.7475ZM208.22 51.5665L209.023 52.1617L209.028 52.1548L209.033 52.1477L208.22 51.5665ZM208.22 37.622L207.406 38.2032L208.22 37.622ZM199.369 37.622L198.569 37.022L198.565 37.0268L199.369 37.622ZM199.369 51.5665L198.555 52.1477L198.567 52.1643L198.579 52.1804L199.369 51.5665ZM159.864 60.5639L199.777 2.11392L198.125 0.986074L158.212 59.4361L159.864 60.5639ZM198.951 2.55H208.888V0.549996H198.951V2.55ZM208.062 0.986074L168.149 59.4361L169.8 60.5639L209.713 2.11392L208.062 0.986074ZM168.975 59H159.038V61H168.975V59ZM164.132 32.113C161.448 32.113 159.123 31.5097 157.125 30.3311L156.109 32.0539C158.452 33.436 161.137 34.113 164.132 34.113V32.113ZM157.141 30.3408C155.13 29.1037 153.524 27.3744 152.321 25.1263L150.558 26.0696C151.916 28.6089 153.761 30.6093 156.093 32.0442L157.141 30.3408ZM152.334 25.1508C151.191 22.8653 150.603 20.1572 150.603 16.9975H148.603C148.603 20.4064 149.239 23.432 150.545 26.0452L152.334 25.1508ZM150.603 16.9975C150.603 13.837 151.192 11.1608 152.33 8.93597L150.549 8.02502C149.238 10.5875 148.603 13.5894 148.603 16.9975H150.603ZM152.321 8.95215C153.524 6.70407 155.13 4.97483 157.141 3.73766L156.093 2.03434C153.761 3.46917 151.916 5.46959 150.558 8.00884L152.321 8.95215ZM157.141 3.73766C159.137 2.50941 161.456 1.882 164.132 1.882V-0.118C161.129 -0.118 158.439 0.590592 156.093 2.03434L157.141 3.73766ZM164.132 1.882C166.807 1.882 169.127 2.50941 171.123 3.73766L172.171 2.03434C169.825 0.590592 167.134 -0.118 164.132 -0.118V1.882ZM171.123 3.73766C173.129 4.97229 174.704 6.69609 175.85 8.93597L177.63 8.02502C176.327 5.47757 174.506 3.47171 172.171 2.03434L171.123 3.73766ZM175.85 8.93597C176.988 11.1608 177.577 13.837 177.577 16.9975H179.577C179.577 13.5894 178.941 10.5875 177.63 8.02502L175.85 8.93597ZM177.577 16.9975C177.577 20.1572 176.988 22.8653 175.846 25.1508L177.635 26.0452C178.941 23.432 179.577 20.4064 179.577 16.9975H177.577ZM175.85 25.1425C174.704 27.3824 173.129 29.1062 171.123 30.3408L172.171 32.0442C174.506 30.6068 176.327 28.6009 177.63 26.0535L175.85 25.1425ZM171.139 30.3311C169.14 31.5097 166.815 32.113 164.132 32.113V34.113C167.126 34.113 169.811 33.436 172.155 32.0539L171.139 30.3311ZM164.132 27.266C166.292 27.266 168.063 26.3589 169.361 24.6067L167.754 23.4163C166.825 24.6701 165.645 25.266 164.132 25.266V27.266ZM169.371 24.5927C170.66 22.7879 171.227 20.2037 171.227 16.9975H169.227C169.227 20.026 168.681 22.1178 167.743 23.4303L169.371 24.5927ZM171.227 16.9975C171.227 13.7957 170.662 11.2282 169.361 9.47177L167.754 10.6622C168.679 11.9118 169.227 13.9646 169.227 16.9975H171.227ZM169.371 9.48576C168.079 7.67756 166.308 6.729 164.132 6.729V8.729C165.63 8.729 166.808 9.3391 167.743 10.6482L169.371 9.48576ZM164.132 6.729C162.003 6.729 160.244 7.68381 158.906 9.467L160.506 10.667C161.507 9.33285 162.698 8.729 164.132 8.729V6.729ZM158.903 9.47177C157.602 11.2282 157.036 13.7957 157.036 16.9975H159.036C159.036 13.9646 159.584 11.9118 160.51 10.6622L158.903 9.47177ZM157.036 16.9975C157.036 20.1527 157.605 22.7068 158.892 24.5092L160.52 23.3468C159.581 22.0319 159.036 19.9656 159.036 16.9975H157.036ZM158.906 24.528C160.244 26.3112 162.003 27.266 164.132 27.266V25.266C162.698 25.266 161.507 24.6621 160.506 23.328L158.906 24.528ZM203.794 59.668C201.171 59.668 198.84 59.0665 196.778 57.8806L195.781 59.6144C198.172 60.9892 200.851 61.668 203.794 61.668V59.668ZM196.803 57.8958C194.797 56.6612 193.222 54.9374 192.076 52.6975L190.295 53.6085C191.599 56.1559 193.419 58.1618 195.755 59.5992L196.803 57.8958ZM192.08 52.7058C190.937 50.4203 190.349 47.7122 190.349 44.5525H188.349C188.349 47.9614 188.985 50.987 190.291 53.6002L192.08 52.7058ZM190.349 44.5525C190.349 41.392 190.938 38.7158 192.076 36.491L190.295 35.58C188.984 38.1425 188.349 41.1444 188.349 44.5525H190.349ZM192.076 36.491C193.222 34.2511 194.797 32.5273 196.803 31.2927L195.755 29.5893C193.419 31.0267 191.599 33.0326 190.295 35.58L192.076 36.491ZM196.794 31.2985C198.854 30.0625 201.179 29.437 203.794 29.437V27.437C200.843 27.437 198.158 28.1475 195.765 29.5835L196.794 31.2985ZM203.794 29.437C206.529 29.437 208.876 30.0663 210.869 31.2927L211.917 29.5893C209.568 28.1437 206.848 27.437 203.794 27.437V29.437ZM210.869 31.2927C212.875 32.5273 214.45 34.2511 215.596 36.491L217.376 35.58C216.073 33.0326 214.252 31.0267 211.917 29.5893L210.869 31.2927ZM215.596 36.491C216.734 38.7158 217.323 41.392 217.323 44.5525H219.323C219.323 41.1444 218.687 38.1425 217.376 35.58L215.596 36.491ZM217.323 44.5525C217.323 47.7122 216.734 50.4203 215.592 52.7058L217.381 53.6002C218.687 50.987 219.323 47.9614 219.323 44.5525H217.323ZM215.596 52.6975C214.45 54.9374 212.875 56.6612 210.869 57.8958L211.917 59.5992C214.252 58.1618 216.073 56.1559 217.376 53.6085L215.596 52.6975ZM210.885 57.8861C208.889 59.0629 206.537 59.668 203.794 59.668V61.668C206.841 61.668 209.554 60.9927 211.901 59.6089L210.885 57.8861ZM203.794 54.821C205.955 54.821 207.725 53.9139 209.023 52.1617L207.416 50.9713C206.487 52.2251 205.308 52.821 203.794 52.821V54.821ZM209.033 52.1477C210.323 50.3429 210.89 47.7587 210.89 44.5525H208.89C208.89 47.581 208.343 49.6728 207.406 50.9853L209.033 52.1477ZM210.89 44.5525C210.89 41.3973 210.321 38.8432 209.033 37.0408L207.406 38.2032C208.345 39.5181 208.89 41.5844 208.89 44.5525H210.89ZM209.033 37.0408C207.742 35.2326 205.97 34.284 203.794 34.284V36.284C205.292 36.284 206.471 36.8941 207.406 38.2032L209.033 37.0408ZM203.794 34.284C201.665 34.284 199.906 35.2388 198.569 37.022L200.169 38.222C201.169 36.8878 202.36 36.284 203.794 36.284V34.284ZM198.565 37.0268C197.264 38.7832 196.699 41.3507 196.699 44.5525H198.699C198.699 41.5196 199.247 39.4668 200.172 38.2172L198.565 37.0268ZM196.699 44.5525C196.699 47.7587 197.266 50.3429 198.555 52.1477L200.182 50.9853C199.245 49.6728 198.699 47.581 198.699 44.5525H196.699ZM198.579 52.1804C199.923 53.9076 201.68 54.821 203.794 54.821V52.821C202.345 52.821 201.153 52.2314 200.158 50.9526L198.579 52.1804Z" fill="#05668D"/>
</svg>
