<svg width="24" height="829" viewBox="0 0 24 829" fill="none" xmlns="http://www.w3.org/2000/svg">
<g opacity="0.5">
<path d="M10.9393 828.061C11.5251 828.646 12.4749 828.646 13.0607 828.061L22.6066 818.515C23.1924 817.929 23.1924 816.979 22.6066 816.393C22.0208 815.808 21.0711 815.808 20.4853 816.393L12 824.879L3.51472 816.393C2.92893 815.808 1.97918 815.808 1.3934 816.393C0.80761 816.979 0.80761 817.929 1.3934 818.515L10.9393 828.061ZM10.5 789L10.5 827L13.5 827L13.5 789L10.5 789Z" fill="#05668D"/>
<line x1="11.5" y1="770.5" x2="11.5" y2="1.5" stroke="#05668D" stroke-width="3" stroke-linecap="round"/>
<line x1="8.5" y1="81.5" x2="15.5" y2="81.5" stroke="#05668D" stroke-width="3" stroke-linecap="round"/>
<line x1="8.5" y1="137.5" x2="15.5" y2="137.5" stroke="#05668D" stroke-width="3" stroke-linecap="round"/>
<line x1="8.5" y1="171.5" x2="15.5" y2="171.5" stroke="#05668D" stroke-width="3" stroke-linecap="round"/>
<line x1="8.5" y1="222.5" x2="15.5" y2="222.5" stroke="#05668D" stroke-width="3" stroke-linecap="round"/>
<line x1="8.5" y1="287.5" x2="15.5" y2="287.5" stroke="#05668D" stroke-width="3" stroke-linecap="round"/>
<line x1="8.5" y1="386.5" x2="15.5" y2="386.5" stroke="#05668D" stroke-width="3" stroke-linecap="round"/>
<line x1="8.5" y1="580.5" x2="15.5" y2="580.5" stroke="#05668D" stroke-width="3" stroke-linecap="round"/>
<line x1="8.5" y1="494.5" x2="15.5" y2="494.5" stroke="#05668D" stroke-width="3" stroke-linecap="round"/>
<line x1="8.5" y1="678.5" x2="15.5" y2="678.5" stroke="#05668D" stroke-width="3" stroke-linecap="round"/>
<line x1="8.5" y1="728.5" x2="15.5" y2="728.5" stroke="#05668D" stroke-width="3" stroke-linecap="round"/>
</g>
</svg>
