<svg width="983" height="122" viewBox="0 0 983 122" fill="none" xmlns="http://www.w3.org/2000/svg">
<path d="M0.861001 119V2.09999H27.915V119H0.861001ZM55.6579 119V2.09999H78.0359L147.007 86.268H136.152V2.09999H162.872V119H140.661L71.5229 34.832H82.3779V119H55.6579ZM224.948 119L174.514 2.09999H203.739L247.827 105.64H230.626L275.382 2.09999H302.269L251.668 119H224.948ZM336.912 49.194H393.191V70.236H336.912V49.194ZM338.916 97.29H402.543V119H312.029V2.09999H400.372V23.81H338.916V97.29ZM462.479 121.004C453.127 121.004 444.165 119.779 435.592 117.33C427.019 114.769 420.117 111.485 414.884 107.477L424.069 87.103C429.079 90.6657 434.98 93.616 441.771 95.954C448.674 98.1807 455.632 99.294 462.646 99.294C467.99 99.294 472.276 98.793 475.505 97.791C478.845 96.6777 481.294 95.1747 482.853 93.282C484.412 91.3893 485.191 89.2183 485.191 86.769C485.191 83.6517 483.966 81.2023 481.517 79.421C479.068 77.5283 475.839 76.0253 471.831 74.912C467.823 73.6873 463.37 72.574 458.471 71.572C453.684 70.4587 448.841 69.1227 443.942 67.564C439.155 66.0053 434.757 64.0013 430.749 61.552C426.741 59.1027 423.457 55.874 420.896 51.866C418.447 47.858 417.222 42.7367 417.222 36.502C417.222 29.822 419.003 23.7543 422.566 18.299C426.24 12.7323 431.695 8.33466 438.932 5.10599C446.28 1.766 455.465 0.0959979 466.487 0.0959979C473.835 0.0959979 481.072 0.986663 488.197 2.76799C495.322 4.43799 501.613 6.99866 507.068 10.45L498.718 30.991C493.263 27.8737 487.807 25.5913 482.352 24.144C476.897 22.5853 471.553 21.806 466.32 21.806C461.087 21.806 456.801 22.4183 453.461 23.643C450.121 24.8677 447.727 26.482 446.28 28.486C444.833 30.3787 444.109 32.6053 444.109 35.166C444.109 38.172 445.334 40.6213 447.783 42.514C450.232 44.2953 453.461 45.7427 457.469 46.856C461.477 47.9693 465.875 49.0827 470.662 50.196C475.561 51.3093 480.404 52.5897 485.191 54.037C490.09 55.4843 494.543 57.4327 498.551 59.882C502.559 62.3313 505.788 65.56 508.237 69.568C510.798 73.576 512.078 78.6417 512.078 84.765C512.078 91.3337 510.241 97.3457 506.567 102.801C502.893 108.256 497.382 112.654 490.034 115.994C482.797 119.334 473.612 121.004 462.479 121.004ZM553.148 119V24.144H515.74V2.09999H617.61V24.144H580.202V119H553.148ZM687.316 121.004C678.075 121.004 669.502 119.501 661.598 116.495C653.804 113.489 647.013 109.258 641.224 103.803C635.546 98.3477 631.092 91.946 627.864 84.598C624.746 77.25 623.188 69.234 623.188 60.55C623.188 51.866 624.746 43.85 627.864 36.502C631.092 29.154 635.601 22.7523 641.391 17.297C647.18 11.8417 653.971 7.61099 661.765 4.60499C669.558 1.599 678.019 0.0959979 687.149 0.0959979C696.389 0.0959979 704.851 1.599 712.533 4.60499C720.326 7.61099 727.062 11.8417 732.74 17.297C738.529 22.7523 743.038 29.154 746.267 36.502C749.495 43.7387 751.11 51.7547 751.11 60.55C751.11 69.234 749.495 77.3057 746.267 84.765C743.038 92.113 738.529 98.5147 732.74 103.97C727.062 109.314 720.326 113.489 712.533 116.495C704.851 119.501 696.445 121.004 687.316 121.004ZM687.149 97.958C692.381 97.958 697.169 97.0673 701.511 95.286C705.964 93.5047 709.861 90.944 713.201 87.604C716.541 84.264 719.101 80.3117 720.883 75.747C722.775 71.1823 723.722 66.1167 723.722 60.55C723.722 54.9833 722.775 49.9177 720.883 45.353C719.101 40.7883 716.541 36.836 713.201 33.496C709.972 30.156 706.131 27.5953 701.678 25.814C697.224 24.0327 692.381 23.142 687.149 23.142C681.916 23.142 677.073 24.0327 672.62 25.814C668.278 27.5953 664.437 30.156 661.097 33.496C657.757 36.836 655.14 40.7883 653.248 45.353C651.466 49.9177 650.576 54.9833 650.576 60.55C650.576 66.0053 651.466 71.071 653.248 75.747C655.14 80.3117 657.701 84.264 660.93 87.604C664.27 90.944 668.166 93.5047 672.62 95.286C677.073 97.0673 681.916 97.958 687.149 97.958ZM771.442 119V2.09999H822.043C832.508 2.09999 841.526 3.82566 849.097 7.277C856.668 10.617 862.513 15.46 866.632 21.806C870.751 28.152 872.811 35.7227 872.811 44.518C872.811 53.202 870.751 60.717 866.632 67.063C862.513 73.2977 856.668 78.085 849.097 81.425C841.526 84.765 832.508 86.435 822.043 86.435H786.472L798.496 74.578V119H771.442ZM845.757 119L816.532 76.582H845.423L874.982 119H845.757ZM798.496 77.584L786.472 64.892H820.54C828.89 64.892 835.125 63.1107 839.244 59.548C843.363 55.874 845.423 50.864 845.423 44.518C845.423 38.0607 843.363 33.0507 839.244 29.488C835.125 25.9253 828.89 24.144 820.54 24.144H786.472L798.496 11.285V77.584ZM932.656 121.004C923.304 121.004 914.341 119.779 905.769 117.33C897.196 114.769 890.293 111.485 885.061 107.477L894.246 87.103C899.256 90.6657 905.156 93.616 911.948 95.954C918.85 98.1807 925.809 99.294 932.823 99.294C938.167 99.294 942.453 98.793 945.682 97.791C949.022 96.6777 951.471 95.1747 953.03 93.282C954.588 91.3893 955.368 89.2183 955.368 86.769C955.368 83.6517 954.143 81.2023 951.694 79.421C949.244 77.5283 946.016 76.0253 942.008 74.912C938 73.6873 933.546 72.574 928.648 71.572C923.86 70.4587 919.017 69.1227 914.119 67.564C909.331 66.0053 904.934 64.0013 900.926 61.552C896.918 59.1027 893.633 55.874 891.073 51.866C888.623 47.858 887.399 42.7367 887.399 36.502C887.399 29.822 889.18 23.7543 892.743 18.299C896.417 12.7323 901.872 8.33466 909.109 5.10599C916.457 1.766 925.642 0.0959979 936.664 0.0959979C944.012 0.0959979 951.248 0.986663 958.374 2.76799C965.499 4.43799 971.789 6.99866 977.245 10.45L968.895 30.991C963.439 27.8737 957.984 25.5913 952.529 24.144C947.073 22.5853 941.729 21.806 936.497 21.806C931.264 21.806 926.978 22.4183 923.638 23.643C920.298 24.8677 917.904 26.482 916.457 28.486C915.009 30.3787 914.286 32.6053 914.286 35.166C914.286 38.172 915.51 40.6213 917.96 42.514C920.409 44.2953 923.638 45.7427 927.646 46.856C931.654 47.9693 936.051 49.0827 940.839 50.196C945.737 51.3093 950.58 52.5897 955.368 54.037C960.266 55.4843 964.72 57.4327 968.728 59.882C972.736 62.3313 975.964 65.56 978.414 69.568C980.974 73.576 982.255 78.6417 982.255 84.765C982.255 91.3337 980.418 97.3457 976.744 102.801C973.07 108.256 967.559 112.654 960.211 115.994C952.974 119.334 943.789 121.004 932.656 121.004Z" fill="#FEFFED"/>
<path d="M0.861001 119H-1.139V121H0.861001V119ZM0.861001 2.09999V0.0999908H-1.139V2.09999H0.861001ZM27.915 2.09999H29.915V0.0999908H27.915V2.09999ZM27.915 119V121H29.915V119H27.915ZM2.861 119V2.09999H-1.139V119H2.861ZM0.861001 4.09999H27.915V0.0999908H0.861001V4.09999ZM25.915 2.09999V119H29.915V2.09999H25.915ZM27.915 117H0.861001V121H27.915V117ZM55.6579 119H53.6579V121H55.6579V119ZM55.6579 2.09999V0.0999908H53.6579V2.09999H55.6579ZM78.0359 2.09999L79.5828 0.832348L78.9827 0.0999908H78.0359V2.09999ZM147.007 86.268V88.268H151.231L148.554 85.0004L147.007 86.268ZM136.152 86.268H134.152V88.268H136.152V86.268ZM136.152 2.09999V0.0999908H134.152V2.09999H136.152ZM162.872 2.09999H164.872V0.0999908H162.872V2.09999ZM162.872 119V121H164.872V119H162.872ZM140.661 119L139.115 120.269L139.715 121H140.661V119ZM71.5229 34.832V32.832H67.2918L69.9774 36.1015L71.5229 34.832ZM82.3779 34.832H84.3779V32.832H82.3779V34.832ZM82.3779 119V121H84.3779V119H82.3779ZM57.6579 119V2.09999H53.6579V119H57.6579ZM55.6579 4.09999H78.0359V0.0999908H55.6579V4.09999ZM76.4889 3.36764L145.46 87.5356L148.554 85.0004L79.5828 0.832348L76.4889 3.36764ZM147.007 84.268H136.152V88.268H147.007V84.268ZM138.152 86.268V2.09999H134.152V86.268H138.152ZM136.152 4.09999H162.872V0.0999908H136.152V4.09999ZM160.872 2.09999V119H164.872V2.09999H160.872ZM162.872 117H140.661V121H162.872V117ZM142.206 117.731L73.0683 33.5625L69.9774 36.1015L139.115 120.269L142.206 117.731ZM71.5229 36.832H82.3779V32.832H71.5229V36.832ZM80.3779 34.832V119H84.3779V34.832H80.3779ZM82.3779 117H55.6579V121H82.3779V117ZM224.948 119L223.111 119.792L223.632 121H224.948V119ZM174.514 2.09999V0.0999908H171.473L172.677 2.89226L174.514 2.09999ZM203.739 2.09999L205.579 1.31646L205.061 0.0999908H203.739V2.09999ZM247.827 105.64V107.64H250.852L249.667 104.856L247.827 105.64ZM230.626 105.64L228.79 104.846L227.582 107.64H230.626V105.64ZM275.382 2.09999V0.0999908H274.067L273.546 1.30644L275.382 2.09999ZM302.269 2.09999L304.104 2.89447L305.314 0.0999908H302.269V2.09999ZM251.668 119V121H252.981L253.503 119.794L251.668 119ZM226.784 118.208L176.35 1.30772L172.677 2.89226L223.111 119.792L226.784 118.208ZM174.514 4.09999H203.739V0.0999908H174.514V4.09999ZM201.898 2.88353L245.986 106.424L249.667 104.856L205.579 1.31646L201.898 2.88353ZM247.827 103.64H230.626V107.64H247.827V103.64ZM232.461 106.434L277.217 2.89354L273.546 1.30644L228.79 104.846L232.461 106.434ZM275.382 4.09999H302.269V0.0999908H275.382V4.09999ZM300.433 1.30551L249.832 118.206L253.503 119.794L304.104 2.89447L300.433 1.30551ZM251.668 117H224.948V121H251.668V117ZM336.912 49.194V47.194H334.912V49.194H336.912ZM393.191 49.194H395.191V47.194H393.191V49.194ZM393.191 70.236V72.236H395.191V70.236H393.191ZM336.912 70.236H334.912V72.236H336.912V70.236ZM338.916 97.29H336.916V99.29H338.916V97.29ZM402.543 97.29H404.543V95.29H402.543V97.29ZM402.543 119V121H404.543V119H402.543ZM312.029 119H310.029V121H312.029V119ZM312.029 2.09999V0.0999908H310.029V2.09999H312.029ZM400.372 2.09999H402.372V0.0999908H400.372V2.09999ZM400.372 23.81V25.81H402.372V23.81H400.372ZM338.916 23.81V21.81H336.916V23.81H338.916ZM336.912 51.194H393.191V47.194H336.912V51.194ZM391.191 49.194V70.236H395.191V49.194H391.191ZM393.191 68.236H336.912V72.236H393.191V68.236ZM338.912 70.236V49.194H334.912V70.236H338.912ZM338.916 99.29H402.543V95.29H338.916V99.29ZM400.543 97.29V119H404.543V97.29H400.543ZM402.543 117H312.029V121H402.543V117ZM314.029 119V2.09999H310.029V119H314.029ZM312.029 4.09999H400.372V0.0999908H312.029V4.09999ZM398.372 2.09999V23.81H402.372V2.09999H398.372ZM400.372 21.81H338.916V25.81H400.372V21.81ZM336.916 23.81V97.29H340.916V23.81H336.916ZM435.592 117.33L435.02 119.246L435.031 119.25L435.043 119.253L435.592 117.33ZM414.884 107.477L413.061 106.655L412.409 108.101L413.668 109.065L414.884 107.477ZM424.069 87.103L425.228 85.4731L423.246 84.0633L422.246 86.281L424.069 87.103ZM441.771 95.954L441.12 97.8451L441.138 97.8514L441.157 97.8574L441.771 95.954ZM475.505 97.791L476.098 99.7011L476.118 99.6949L476.137 99.6884L475.505 97.791ZM482.853 93.282L481.309 92.0106L482.853 93.282ZM481.517 79.421L480.294 81.0036L480.317 81.0214L480.341 81.0385L481.517 79.421ZM471.831 74.912L471.247 76.8247L471.271 76.8322L471.296 76.839L471.831 74.912ZM458.471 71.572L458.018 73.52L458.044 73.5261L458.07 73.5314L458.471 71.572ZM443.942 67.564L443.323 69.4658L443.336 69.4698L443.942 67.564ZM430.749 61.552L429.706 63.2586L430.749 61.552ZM420.896 51.866L419.189 52.9089L419.2 52.9259L419.211 52.9428L420.896 51.866ZM422.566 18.299L420.897 17.1973L420.891 17.2054L422.566 18.299ZM438.932 5.10599L439.747 6.9325L439.76 6.92673L438.932 5.10599ZM488.197 2.76799L487.712 4.70828L487.726 4.71186L487.741 4.71523L488.197 2.76799ZM507.068 10.45L508.921 11.2032L509.551 9.65393L508.137 8.75984L507.068 10.45ZM498.718 30.991L497.726 32.7275L499.71 33.8614L500.571 31.7442L498.718 30.991ZM482.352 24.144L481.803 26.067L481.821 26.0723L481.839 26.0771L482.352 24.144ZM453.461 23.643L452.772 21.7652L453.461 23.643ZM446.28 28.486L447.869 29.7009L447.885 29.6792L447.901 29.657L446.28 28.486ZM447.783 42.514L446.56 44.0966L446.583 44.1144L446.607 44.1315L447.783 42.514ZM457.469 46.856L456.934 48.783L457.469 46.856ZM470.662 50.196L470.209 52.144L470.219 52.1463L470.662 50.196ZM485.191 54.037L484.612 55.9515L484.624 55.955L485.191 54.037ZM498.551 59.882L499.594 58.1754L498.551 59.882ZM508.237 69.568L506.53 70.6109L506.541 70.6279L506.552 70.6448L508.237 69.568ZM506.567 102.801L508.226 103.918L506.567 102.801ZM490.034 115.994L489.206 114.173L489.196 114.178L490.034 115.994ZM462.479 119.004C453.304 119.004 444.527 117.803 436.141 115.407L435.043 119.253C443.802 121.756 452.95 123.004 462.479 123.004V119.004ZM436.164 115.414C427.747 112.899 421.085 109.707 416.1 105.889L413.668 109.065C419.149 113.263 426.292 116.639 435.02 119.246L436.164 115.414ZM416.707 108.299L425.892 87.925L422.246 86.281L413.061 106.655L416.707 108.299ZM422.91 88.7329C428.1 92.4233 434.177 95.455 441.12 97.8451L442.422 94.0629C435.782 91.777 430.058 88.908 425.228 85.4731L422.91 88.7329ZM441.157 97.8574C448.251 100.146 455.417 101.294 462.646 101.294V97.294C455.848 97.294 449.096 96.2155 442.385 94.0506L441.157 97.8574ZM462.646 101.294C468.089 101.294 472.599 100.787 476.098 99.7011L474.912 95.8809C471.953 96.7991 467.891 97.294 462.646 97.294V101.294ZM476.137 99.6884C479.687 98.5053 482.517 96.8365 484.397 94.5534L481.309 92.0106C480.072 93.5128 478.003 94.85 474.873 95.8936L476.137 99.6884ZM484.397 94.5534C486.25 92.3031 487.191 89.6827 487.191 86.769H483.191C483.191 88.7539 482.573 90.4756 481.309 92.0106L484.397 94.5534ZM487.191 86.769C487.191 83.034 485.678 79.9741 482.693 77.8035L480.341 81.0385C482.255 82.4306 483.191 84.2694 483.191 86.769H487.191ZM482.74 77.8384C480.029 75.7433 476.543 74.1451 472.366 72.985L471.296 76.839C475.135 77.9055 478.107 79.3134 480.294 81.0036L482.74 77.8384ZM472.415 72.9993C468.337 71.753 463.821 70.6249 458.872 69.6126L458.07 73.5314C462.918 74.5231 467.309 75.6216 471.247 76.8247L472.415 72.9993ZM458.924 69.624C454.191 68.5232 449.399 67.2015 444.548 65.6581L443.336 69.4698C448.283 71.0439 453.177 72.3941 458.018 73.52L458.924 69.624ZM444.561 65.6623C439.912 64.1485 435.658 62.2078 431.792 59.8454L429.706 63.2586C433.856 65.7949 438.398 67.8622 443.323 69.4657L444.561 65.6623ZM431.792 59.8454C428.046 57.5566 424.981 54.5446 422.581 50.7892L419.211 52.9428C421.933 57.2034 425.436 60.6488 429.706 63.2586L431.792 59.8454ZM422.603 50.8231C420.398 47.216 419.222 42.4859 419.222 36.502H415.222C415.222 42.9874 416.495 48.5 419.189 52.9089L422.603 50.8231ZM419.222 36.502C419.222 30.2 420.896 24.5141 424.241 19.3926L420.891 17.2054C417.111 22.9945 415.222 29.444 415.222 36.502H419.222ZM424.235 19.4007C427.663 14.2077 432.792 10.0354 439.747 6.93246L438.117 3.27953C430.599 6.63387 424.817 11.257 420.897 17.1973L424.235 19.4007ZM439.76 6.92673C446.771 3.73972 455.652 2.096 466.487 2.096V-1.904C455.278 -1.904 445.789 -0.207733 438.104 3.28526L439.76 6.92673ZM466.487 2.096C473.672 2.096 480.745 2.96663 487.712 4.70828L488.682 0.827709C481.398 -0.993301 473.998 -1.904 466.487 -1.904V2.096ZM487.741 4.71523C494.677 6.34103 500.755 8.82288 505.999 12.1402L508.137 8.75984C502.47 5.17444 495.967 2.53495 488.653 0.820759L487.741 4.71523ZM505.215 9.69683L496.865 30.2378L500.571 31.7442L508.921 11.2032L505.215 9.69683ZM499.71 29.2545C494.121 26.0607 488.506 23.7074 482.865 22.2109L481.839 26.0771C487.109 27.4753 492.404 29.6866 497.726 32.7275L499.71 29.2545ZM482.901 22.2209C477.282 20.6155 471.753 19.806 466.32 19.806V23.806C471.352 23.806 476.511 24.5552 481.803 26.067L482.901 22.2209ZM466.32 19.806C460.953 19.806 456.411 20.4312 452.772 21.7652L454.15 25.5207C457.191 24.4055 461.222 23.806 466.32 23.806V19.806ZM452.772 21.7652C449.215 23.0697 446.421 24.8745 444.659 27.315L447.901 29.657C449.033 28.0895 451.027 26.6657 454.15 25.5207L452.772 21.7652ZM444.691 27.2711C442.957 29.5394 442.109 32.2011 442.109 35.166H446.109C446.109 33.0095 446.709 31.218 447.869 29.7009L444.691 27.2711ZM442.109 35.166C442.109 38.8126 443.638 41.8383 446.56 44.0966L449.006 40.9314C447.03 39.4043 446.109 37.5314 446.109 35.166H442.109ZM446.607 44.1315C449.307 46.0953 452.775 47.6279 456.934 48.783L458.004 44.929C454.147 43.8574 451.158 42.4954 448.959 40.8965L446.607 44.1315ZM456.934 48.783C460.973 49.9052 465.399 51.0254 470.209 52.144L471.115 48.248C466.35 47.1399 461.981 46.0335 458.004 44.929L456.934 48.783ZM470.219 52.1463C475.072 53.2493 479.87 54.5177 484.612 55.9514L485.77 52.1226C480.938 50.6617 476.049 49.3694 471.105 48.2457L470.219 52.1463ZM484.624 55.955C489.37 57.3572 493.661 59.2377 497.508 61.5886L499.594 58.1754C495.425 55.6276 490.809 53.6114 485.758 52.119L484.624 55.955ZM497.508 61.5886C501.245 63.8724 504.247 66.8736 506.53 70.6109L509.944 68.5251C507.329 64.2464 503.873 60.7902 499.594 58.1754L497.508 61.5886ZM506.552 70.6448C508.855 74.2507 510.078 78.9149 510.078 84.765H514.078C514.078 78.3684 512.74 72.9013 509.922 68.4912L506.552 70.6448ZM510.078 84.765C510.078 90.9351 508.36 96.5582 504.908 101.684L508.226 103.918C512.122 98.1332 514.078 91.7323 514.078 84.765H510.078ZM504.908 101.684C501.483 106.769 496.294 110.952 489.206 114.173L490.862 117.815C498.47 114.356 504.303 109.743 508.226 103.918L504.908 101.684ZM489.196 114.178C482.305 117.359 473.43 119.004 462.479 119.004V123.004C473.794 123.004 483.29 121.309 490.872 117.81L489.196 114.178ZM553.148 119H551.148V121H553.148V119ZM553.148 24.144H555.148V22.144H553.148V24.144ZM515.74 24.144H513.74V26.144H515.74V24.144ZM515.74 2.09999V0.0999908H513.74V2.09999H515.74ZM617.61 2.09999H619.61V0.0999908H617.61V2.09999ZM617.61 24.144V26.144H619.61V24.144H617.61ZM580.202 24.144V22.144H578.202V24.144H580.202ZM580.202 119V121H582.202V119H580.202ZM555.148 119V24.144H551.148V119H555.148ZM553.148 22.144H515.74V26.144H553.148V22.144ZM517.74 24.144V2.09999H513.74V24.144H517.74ZM515.74 4.09999H617.61V0.0999908H515.74V4.09999ZM615.61 2.09999V24.144H619.61V2.09999H615.61ZM617.61 22.144H580.202V26.144H617.61V22.144ZM578.202 24.144V119H582.202V24.144H578.202ZM580.202 117H553.148V121H580.202V117ZM661.598 116.495L660.878 118.361L660.887 118.364L661.598 116.495ZM641.224 103.803L639.838 105.245L639.845 105.252L639.852 105.259L641.224 103.803ZM627.864 84.598L626.023 85.3791L626.028 85.3909L626.033 85.4025L627.864 84.598ZM627.864 36.502L626.033 35.6974L626.028 35.7091L626.023 35.7209L627.864 36.502ZM661.765 4.60499L661.045 2.73899L661.765 4.60499ZM712.533 4.60499L711.804 6.4675L711.813 6.47099L712.533 4.60499ZM732.74 17.297L731.354 18.7392L731.361 18.7459L731.368 18.7526L732.74 17.297ZM746.267 36.502L744.436 37.3066L744.44 37.3169L746.267 36.502ZM746.267 84.765L748.098 85.5695L748.102 85.5594L746.267 84.765ZM732.74 103.97L734.111 105.426L734.111 105.426L732.74 103.97ZM712.533 116.495L711.813 114.629L711.804 114.633L712.533 116.495ZM701.511 95.286L700.768 93.429L700.76 93.4323L700.752 93.4357L701.511 95.286ZM713.201 87.604L711.787 86.1898L713.201 87.604ZM720.883 75.747L719.035 74.981L719.027 75.0004L719.02 75.0199L720.883 75.747ZM720.883 45.353L719.02 46.0801L719.027 46.0996L719.035 46.119L720.883 45.353ZM713.201 33.496L711.763 34.886L711.775 34.8982L711.787 34.9102L713.201 33.496ZM701.678 25.814L700.935 27.671L701.678 25.814ZM672.62 25.814L671.877 23.957L671.869 23.9603L671.861 23.9637L672.62 25.814ZM661.097 33.496L662.511 34.9102L661.097 33.496ZM653.248 45.353L651.4 44.587L651.392 44.6064L651.385 44.6259L653.248 45.353ZM653.248 75.747L651.379 76.459L651.389 76.4862L651.4 76.513L653.248 75.747ZM660.93 87.604L659.492 88.994L659.504 89.0062L659.516 89.0182L660.93 87.604ZM672.62 95.286L671.877 97.143L672.62 95.286ZM687.316 119.004C678.296 119.004 669.966 117.538 662.309 114.626L660.887 118.364C669.039 121.464 677.855 123.004 687.316 123.004V119.004ZM662.318 114.629C654.754 111.712 648.187 107.616 642.595 102.347L639.852 105.259C645.84 110.9 652.855 115.266 660.878 118.361L662.318 114.629ZM642.609 102.361C637.124 97.0904 632.82 90.9065 629.695 83.7935L626.033 85.4025C629.365 92.9855 633.968 99.605 639.838 105.245L642.609 102.361ZM629.705 83.8169C626.701 76.737 625.188 68.9894 625.188 60.55H621.188C621.188 69.4786 622.792 77.763 626.023 85.3791L629.705 83.8169ZM625.188 60.55C625.188 52.1106 626.701 44.363 629.705 37.2831L626.023 35.7209C622.792 43.337 621.188 51.6214 621.188 60.55H625.188ZM629.695 37.3065C632.817 30.2019 637.17 24.0222 642.762 18.7526L640.019 15.8414C634.033 21.4824 629.368 28.1061 626.033 35.6974L629.695 37.3065ZM642.762 18.7526C648.354 13.4838 654.921 9.38846 662.485 6.47099L661.045 2.73899C653.022 5.83352 646.007 10.1995 640.019 15.8414L642.762 18.7526ZM662.485 6.47099C670.028 3.56146 678.243 2.096 687.149 2.096V-1.904C677.796 -1.904 669.089 -0.363468 661.045 2.73899L662.485 6.47099ZM687.149 2.096C696.17 2.096 704.38 3.56263 711.804 6.46748L713.262 2.7425C705.321 -0.364643 696.609 -1.904 687.149 -1.904V2.096ZM711.813 6.47099C719.374 9.38727 725.879 13.479 731.354 18.7392L734.125 15.8548C728.244 10.2043 721.279 5.83471 713.253 2.73899L711.813 6.47099ZM731.368 18.7526C736.961 24.0222 741.314 30.2019 744.436 37.3065L748.098 35.6974C744.762 28.1061 740.098 21.4824 734.111 15.8414L731.368 18.7526ZM744.44 37.3169C747.543 44.2702 749.11 52.0044 749.11 60.55H753.11C753.11 51.5049 751.448 43.2071 748.093 35.6871L744.44 37.3169ZM749.11 60.55C749.11 68.9797 747.544 76.7788 744.431 83.9706L748.102 85.5594C751.447 77.8325 753.11 69.4883 753.11 60.55H749.11ZM744.436 83.9604C741.314 91.0651 736.961 97.2448 731.368 102.514L734.111 105.426C740.098 99.7846 744.762 93.1609 748.098 85.5695L744.436 83.9604ZM731.369 102.514C725.893 107.668 719.382 111.709 711.813 114.629L713.253 118.361C721.27 115.269 728.231 110.96 734.111 105.426L731.369 102.514ZM711.804 114.633C704.378 117.538 696.222 119.004 687.316 119.004V123.004C696.668 123.004 705.324 121.464 713.262 118.357L711.804 114.633ZM687.149 99.958C692.612 99.958 697.661 99.0273 702.27 97.1363L700.752 93.4357C696.677 95.1074 692.151 95.958 687.149 95.958V99.958ZM702.254 97.143C706.954 95.2626 711.081 92.5527 714.615 89.0182L711.787 86.1898C708.641 89.3353 704.974 91.7467 700.768 93.429L702.254 97.143ZM714.615 89.0182C718.158 85.4753 720.868 81.2865 722.746 76.4741L719.02 75.0199C717.335 79.3368 714.924 83.0527 711.787 86.1898L714.615 89.0182ZM722.73 76.513C724.736 71.6767 725.722 66.3464 725.722 60.55H721.722C721.722 65.8869 720.815 70.688 719.035 74.981L722.73 76.513ZM725.722 60.55C725.722 54.7536 724.736 49.4233 722.73 44.587L719.035 46.119C720.815 50.412 721.722 55.2131 721.722 60.55H725.722ZM722.746 44.6259C720.868 39.8135 718.158 35.6247 714.615 32.0818L711.787 34.9102C714.924 38.0473 717.335 41.7632 719.02 46.0801L722.746 44.6259ZM714.639 32.1059C711.208 28.5563 707.127 25.8397 702.421 23.957L700.935 27.671C705.135 29.3509 708.737 31.7556 711.763 34.886L714.639 32.1059ZM702.421 23.957C697.71 22.073 692.613 21.142 687.149 21.142V25.142C692.15 25.142 696.739 25.9924 700.935 27.671L702.421 23.957ZM687.149 21.142C681.685 21.142 676.587 22.073 671.877 23.957L673.363 27.671C677.559 25.9924 682.147 25.142 687.149 25.142V21.142ZM671.861 23.9637C667.272 25.8462 663.209 28.5557 659.683 32.0818L662.511 34.9102C665.665 31.7563 669.284 29.3444 673.379 27.6643L671.861 23.9637ZM659.683 32.0818C656.148 35.6159 653.389 39.7913 651.4 44.587L655.095 46.119C656.892 41.7854 659.365 38.0561 662.511 34.9102L659.683 32.0818ZM651.385 44.6259C649.501 49.4517 648.576 54.7681 648.576 60.55H652.576C652.576 55.1985 653.432 50.3837 655.111 46.0801L651.385 44.6259ZM648.576 60.55C648.576 66.2266 649.503 71.5359 651.379 76.459L655.117 75.035C653.43 70.6061 652.576 65.784 652.576 60.55H648.576ZM651.4 76.513C653.383 81.2946 656.078 85.4623 659.492 88.994L662.368 86.214C659.324 83.0657 656.898 79.3287 655.095 74.981L651.4 76.513ZM659.516 89.0182C663.05 92.5527 667.176 95.2626 671.877 97.143L673.363 93.429C669.157 91.7467 665.49 89.3353 662.344 86.1898L659.516 89.0182ZM671.877 97.143C676.587 99.0271 681.685 99.958 687.149 99.958V95.958C682.147 95.958 677.559 95.1076 673.363 93.429L671.877 97.143ZM771.442 119H769.442V121H771.442V119ZM771.442 2.09999V0.0999908H769.442V2.09999H771.442ZM849.097 7.277L848.267 9.09681L848.279 9.10189L848.29 9.10683L849.097 7.277ZM866.632 21.806L864.955 22.8949L866.632 21.806ZM866.632 67.063L868.301 68.1655L868.305 68.1587L868.31 68.1519L866.632 67.063ZM849.097 81.425L849.904 83.2548L849.097 81.425ZM786.472 86.435L785.068 85.0109L781.595 88.435H786.472V86.435ZM798.496 74.578H800.496V69.7969L797.092 73.1539L798.496 74.578ZM798.496 119V121H800.496V119H798.496ZM845.757 119L844.11 120.135L844.706 121H845.757V119ZM816.532 76.582V74.582H812.725L814.885 77.7167L816.532 76.582ZM845.423 76.582L847.064 75.4385L846.467 74.582H845.423V76.582ZM874.982 119V121H878.813L876.623 117.857L874.982 119ZM798.496 77.584L797.044 78.9595L800.496 82.6032V77.584H798.496ZM786.472 64.892V62.892H781.822L785.02 66.2675L786.472 64.892ZM839.244 59.548L840.552 61.0607L840.564 61.0507L840.575 61.0406L839.244 59.548ZM786.472 24.144L785.011 22.778L781.864 26.144H786.472V24.144ZM798.496 11.285H800.496V6.21782L797.035 9.91901L798.496 11.285ZM773.442 119V2.09999H769.442V119H773.442ZM771.442 4.09999H822.043V0.0999908H771.442V4.09999ZM822.043 4.09999C832.294 4.09999 841.015 5.79068 848.267 9.09681L849.927 5.45718C842.038 1.86065 832.723 0.0999908 822.043 0.0999908V4.09999ZM848.29 9.10683C855.539 12.3051 861.067 16.9057 864.955 22.8949L868.31 20.7171C863.959 14.0142 857.796 8.92889 849.904 5.44716L848.29 9.10683ZM864.955 22.8949C868.831 28.8668 870.811 36.045 870.811 44.518H874.811C874.811 35.4003 872.672 27.4372 868.31 20.7171L864.955 22.8949ZM870.811 44.518C870.811 52.8741 868.834 59.9981 864.955 65.9741L868.31 68.1519C872.669 61.4359 874.811 53.5299 874.811 44.518H870.811ZM864.963 65.9605C861.078 71.8413 855.549 76.3928 848.29 79.5952L849.904 83.2548C857.787 79.7772 863.948 74.754 868.301 68.1655L864.963 65.9605ZM848.29 79.5952C841.031 82.7974 832.301 84.435 822.043 84.435V88.435C832.715 88.435 842.021 86.7326 849.904 83.2548L848.29 79.5952ZM822.043 84.435H786.472V88.435H822.043V84.435ZM787.876 87.8591L799.9 76.0021L797.092 73.1539L785.068 85.0109L787.876 87.8591ZM796.496 74.578V119H800.496V74.578H796.496ZM798.496 117H771.442V121H798.496V117ZM847.404 117.865L818.179 75.4473L814.885 77.7167L844.11 120.135L847.404 117.865ZM816.532 78.582H845.423V74.582H816.532V78.582ZM843.782 77.7254L873.341 120.143L876.623 117.857L847.064 75.4385L843.782 77.7254ZM874.982 117H845.757V121H874.982V117ZM799.948 76.2085L787.924 63.5165L785.02 66.2675L797.044 78.9595L799.948 76.2085ZM786.472 66.892H820.54V62.892H786.472V66.892ZM820.54 66.892C829.125 66.892 835.919 65.0679 840.552 61.0607L837.936 58.0353C834.33 61.1535 828.655 62.892 820.54 62.892V66.892ZM840.575 61.0406C845.186 56.9286 847.423 51.3398 847.423 44.518H843.423C843.423 50.3882 841.541 54.8194 837.913 58.0554L840.575 61.0406ZM847.423 44.518C847.423 37.5985 845.193 31.9891 840.552 27.9753L837.936 31.0007C841.533 34.1122 843.423 38.5228 843.423 44.518H847.423ZM840.552 27.9753C835.919 23.9681 829.125 22.144 820.54 22.144V26.144C828.655 26.144 834.33 27.8826 837.936 31.0007L840.552 27.9753ZM820.54 22.144H786.472V26.144H820.54V22.144ZM787.933 25.51L799.957 12.651L797.035 9.91901L785.011 22.778L787.933 25.51ZM796.496 11.285V77.584H800.496V11.285H796.496ZM905.769 117.33L905.196 119.246L905.208 119.25L905.219 119.253L905.769 117.33ZM885.061 107.477L883.237 106.655L882.586 108.101L883.845 109.065L885.061 107.477ZM894.246 87.103L895.405 85.4731L893.422 84.0633L892.422 86.281L894.246 87.103ZM911.948 95.954L911.297 97.8451L911.315 97.8514L911.334 97.8574L911.948 95.954ZM945.682 97.791L946.275 99.7011L946.294 99.6949L946.314 99.6884L945.682 97.791ZM953.03 93.282L951.486 92.0106L953.03 93.282ZM951.694 79.421L950.471 81.0036L950.494 81.0214L950.517 81.0385L951.694 79.421ZM942.008 74.912L941.423 76.8247L941.448 76.8322L941.472 76.839L942.008 74.912ZM928.648 71.572L928.195 73.52L928.221 73.5261L928.247 73.5314L928.648 71.572ZM914.119 67.564L913.5 69.4658L913.512 69.4698L914.119 67.564ZM900.926 61.552L899.883 63.2586L900.926 61.552ZM891.073 51.866L889.366 52.9089L889.377 52.9259L889.387 52.9428L891.073 51.866ZM892.743 18.299L891.074 17.1973L891.068 17.2054L892.743 18.299ZM909.109 5.10599L909.924 6.9325L909.936 6.92673L909.109 5.10599ZM958.374 2.76799L957.889 4.70828L957.903 4.71186L957.917 4.71523L958.374 2.76799ZM977.245 10.45L979.098 11.2032L979.727 9.65393L978.314 8.75984L977.245 10.45ZM968.895 30.991L967.902 32.7275L969.887 33.8614L970.748 31.7442L968.895 30.991ZM952.529 24.144L951.979 26.067L951.998 26.0723L952.016 26.0771L952.529 24.144ZM923.638 23.643L922.949 21.7652L923.638 23.643ZM916.457 28.486L918.045 29.7009L918.062 29.6792L918.078 29.657L916.457 28.486ZM917.96 42.514L916.737 44.0966L916.76 44.1144L916.783 44.1315L917.96 42.514ZM927.646 46.856L927.11 48.783L927.646 46.856ZM940.839 50.196L940.386 52.144L940.396 52.1463L940.839 50.196ZM955.368 54.037L954.789 55.9515L954.801 55.955L955.368 54.037ZM968.728 59.882L969.771 58.1754L968.728 59.882ZM978.414 69.568L976.707 70.6109L976.718 70.6279L976.728 70.6448L978.414 69.568ZM976.744 102.801L978.403 103.918L976.744 102.801ZM960.211 115.994L959.383 114.173L959.373 114.178L960.211 115.994ZM932.656 119.004C923.48 119.004 914.704 117.803 906.318 115.407L905.219 119.253C913.979 121.756 923.127 123.004 932.656 123.004V119.004ZM906.341 115.414C897.923 112.899 891.261 109.707 886.277 105.889L883.845 109.065C889.326 113.263 896.469 116.639 905.196 119.246L906.341 115.414ZM886.884 108.299L896.069 87.925L892.422 86.281L883.237 106.655L886.884 108.299ZM893.087 88.7329C898.276 92.4233 904.354 95.455 911.297 97.8451L912.599 94.0629C905.959 91.777 900.235 88.908 895.405 85.4731L893.087 88.7329ZM911.334 97.8574C918.428 100.146 925.593 101.294 932.823 101.294V97.294C926.024 97.294 919.273 96.2155 912.562 94.0506L911.334 97.8574ZM932.823 101.294C938.265 101.294 942.776 100.787 946.275 99.7011L945.089 95.8809C942.13 96.7991 938.068 97.294 932.823 97.294V101.294ZM946.314 99.6884C949.863 98.5053 952.693 96.8365 954.574 94.5534L951.486 92.0106C950.249 93.5128 948.18 94.85 945.049 95.8936L946.314 99.6884ZM954.574 94.5534C956.427 92.3031 957.368 89.6827 957.368 86.769H953.368C953.368 88.7539 952.75 90.4756 951.486 92.0106L954.574 94.5534ZM957.368 86.769C957.368 83.034 955.855 79.9741 952.87 77.8035L950.517 81.0385C952.432 82.4306 953.368 84.2694 953.368 86.769H957.368ZM952.917 77.8384C950.205 75.7433 946.72 74.1451 942.543 72.985L941.472 76.839C945.312 77.9055 948.284 79.3134 950.471 81.0036L952.917 77.8384ZM942.592 72.9993C938.514 71.753 933.998 70.6249 929.049 69.6126L928.247 73.5314C933.095 74.5231 937.486 75.6216 941.423 76.8247L942.592 72.9993ZM929.101 69.624C924.367 68.5232 919.576 67.2015 914.725 65.6581L913.512 69.4698C918.459 71.0439 923.353 72.3941 928.195 73.52L929.101 69.624ZM914.738 65.6623C910.088 64.1485 905.834 62.2078 901.969 59.8454L899.883 63.2586C904.033 65.7949 908.574 67.8622 913.5 69.4657L914.738 65.6623ZM901.969 59.8454C898.223 57.5566 895.157 54.5446 892.758 50.7892L889.387 52.9428C892.109 57.2034 895.612 60.6488 899.883 63.2586L901.969 59.8454ZM892.779 50.8231C890.575 47.216 889.399 42.4859 889.399 36.502H885.399C885.399 42.9874 886.672 48.5 889.366 52.9089L892.779 50.8231ZM889.399 36.502C889.399 30.2 891.073 24.5141 894.417 19.3926L891.068 17.2054C887.288 22.9945 885.399 29.444 885.399 36.502H889.399ZM894.412 19.4007C897.839 14.2077 902.969 10.0354 909.924 6.93246L908.294 3.27953C900.776 6.63387 894.994 11.257 891.074 17.1973L894.412 19.4007ZM909.936 6.92673C916.948 3.73972 925.829 2.096 936.664 2.096V-1.904C925.455 -1.904 915.966 -0.207733 908.281 3.28526L909.936 6.92673ZM936.664 2.096C943.848 2.096 950.922 2.96663 957.889 4.70828L958.859 0.827709C951.575 -0.993301 944.175 -1.904 936.664 -1.904V2.096ZM957.917 4.71523C964.854 6.34103 970.932 8.82288 976.175 12.1402L978.314 8.75984C972.647 5.17444 966.144 2.53495 958.83 0.820759L957.917 4.71523ZM975.392 9.69683L967.042 30.2378L970.748 31.7442L979.098 11.2032L975.392 9.69683ZM969.887 29.2545C964.298 26.0607 958.682 23.7074 953.042 22.2109L952.016 26.0771C957.286 27.4753 962.581 29.6866 967.902 32.7275L969.887 29.2545ZM953.078 22.2209C947.459 20.6155 941.93 19.806 936.497 19.806V23.806C941.529 23.806 946.688 24.5552 951.979 26.067L953.078 22.2209ZM936.497 19.806C931.13 19.806 926.588 20.4312 922.949 21.7652L924.326 25.5207C927.368 24.4055 931.399 23.806 936.497 23.806V19.806ZM922.949 21.7652C919.392 23.0697 916.598 24.8745 914.835 27.315L918.078 29.657C919.21 28.0895 921.204 26.6657 924.326 25.5207L922.949 21.7652ZM914.868 27.2711C913.133 29.5394 912.286 32.2011 912.286 35.166H916.286C916.286 33.0095 916.885 31.218 918.045 29.7009L914.868 27.2711ZM912.286 35.166C912.286 38.8126 913.814 41.8383 916.737 44.0966L919.183 40.9314C917.206 39.4043 916.286 37.5314 916.286 35.166H912.286ZM916.783 44.1315C919.484 46.0953 922.952 47.6279 927.11 48.783L928.181 44.929C924.323 43.8574 921.335 42.4954 919.136 40.8965L916.783 44.1315ZM927.11 48.783C931.15 49.9052 935.576 51.0254 940.386 52.144L941.292 48.248C936.527 47.1399 932.157 46.0335 928.181 44.929L927.11 48.783ZM940.396 52.1463C945.249 53.2493 950.047 54.5177 954.789 55.9514L955.947 52.1226C951.114 50.6617 946.226 49.3694 941.282 48.2457L940.396 52.1463ZM954.801 55.955C959.547 57.3572 963.838 59.2377 967.685 61.5886L969.771 58.1754C965.601 55.6276 960.986 53.6114 955.934 52.119L954.801 55.955ZM967.685 61.5886C971.422 63.8724 974.423 66.8736 976.707 70.6109L980.12 68.5251C977.506 64.2464 974.049 60.7902 969.771 58.1754L967.685 61.5886ZM976.728 70.6448C979.032 74.2507 980.255 78.9149 980.255 84.765H984.255C984.255 78.3684 982.917 72.9013 980.099 68.4912L976.728 70.6448ZM980.255 84.765C980.255 90.9351 978.537 96.5582 975.085 101.684L978.403 103.918C982.299 98.1332 984.255 91.7323 984.255 84.765H980.255ZM975.085 101.684C971.66 106.769 966.471 110.952 959.383 114.173L961.038 117.815C968.647 114.356 974.48 109.743 978.403 103.918L975.085 101.684ZM959.373 114.178C952.481 117.359 943.607 119.004 932.656 119.004V123.004C943.971 123.004 953.467 121.309 961.049 117.81L959.373 114.178Z" fill="#05668D"/>
</svg>
