<svg width="1413" height="122" viewBox="0 0 1413 122" fill="none" xmlns="http://www.w3.org/2000/svg">
<path d="M48.271 121.004C38.919 121.004 29.9567 119.779 21.384 117.33C12.8113 114.769 5.90867 111.485 0.676 107.477L9.861 87.103C14.871 90.6657 20.7717 93.616 27.563 95.954C34.4657 98.1807 41.424 99.294 48.438 99.294C53.782 99.294 58.0683 98.793 61.297 97.791C64.637 96.6777 67.0863 95.1747 68.645 93.282C70.2037 91.3893 70.983 89.2183 70.983 86.769C70.983 83.6517 69.7583 81.2023 67.309 79.421C64.8597 77.5283 61.631 76.0253 57.623 74.912C53.615 73.6873 49.1617 72.574 44.263 71.572C39.4757 70.4587 34.6327 69.1227 29.734 67.564C24.9467 66.0053 20.549 64.0013 16.541 61.552C12.533 59.1027 9.24867 55.874 6.688 51.866C4.23867 47.858 3.014 42.7367 3.014 36.502C3.014 29.822 4.79533 23.7543 8.358 18.299C12.032 12.7323 17.4873 8.33466 24.724 5.10599C32.072 1.766 41.257 0.0959979 52.279 0.0959979C59.627 0.0959979 66.8637 0.986663 73.989 2.76799C81.1143 4.43799 87.4047 6.99866 92.86 10.45L84.51 30.991C79.0547 27.8737 73.5993 25.5913 68.144 24.144C62.6887 22.5853 57.3447 21.806 52.112 21.806C46.8793 21.806 42.593 22.4183 39.253 23.643C35.913 24.8677 33.5193 26.482 32.072 28.486C30.6247 30.3787 29.901 32.6053 29.901 35.166C29.901 38.172 31.1257 40.6213 33.575 42.514C36.0243 44.2953 39.253 45.7427 43.261 46.856C47.269 47.9693 51.6667 49.0827 56.454 50.196C61.3527 51.3093 66.1957 52.5897 70.983 54.037C75.8817 55.4843 80.335 57.4327 84.343 59.882C88.351 62.3313 91.5797 65.56 94.029 69.568C96.5897 73.576 97.87 78.6417 97.87 84.765C97.87 91.3337 96.033 97.3457 92.359 102.801C88.685 108.256 83.174 112.654 75.826 115.994C68.5893 119.334 59.4043 121.004 48.271 121.004ZM138.94 119V24.144H101.532V2.09999H203.402V24.144H165.994V119H138.94ZM196.724 119L248.828 2.09999H275.548L327.819 119H299.429L256.677 15.794H267.365L224.446 119H196.724ZM222.776 93.95L229.957 73.409H290.077L297.425 93.95H222.776ZM364.162 92.28L362.659 61.051L418.604 2.09999H448.664L398.23 56.375L383.2 72.407L364.162 92.28ZM339.947 119V2.09999H366.834V119H339.947ZM419.94 119L378.357 68.065L396.059 48.86L451.503 119H419.94ZM488.449 49.194H544.728V70.236H488.449V49.194ZM490.453 97.29H554.08V119H463.566V2.09999H551.909V23.81H490.453V97.29ZM655.766 2.09999H682.82V119H655.766V2.09999ZM602.66 119H575.606V2.09999H602.66V119ZM657.77 71.071H600.656V48.192H657.77V71.071ZM767.258 121.004C758.018 121.004 749.445 119.501 741.54 116.495C733.747 113.489 726.956 109.258 721.166 103.803C715.488 98.3477 711.035 91.946 707.806 84.598C704.689 77.25 703.13 69.234 703.13 60.55C703.13 51.866 704.689 43.85 707.806 36.502C711.035 29.154 715.544 22.7523 721.333 17.297C727.123 11.8417 733.914 7.61099 741.707 4.60499C749.501 1.599 757.962 0.0959979 767.091 0.0959979C776.332 0.0959979 784.793 1.599 792.475 4.60499C800.269 7.61099 807.004 11.8417 812.682 17.297C818.472 22.7523 822.981 29.154 826.209 36.502C829.438 43.7387 831.052 51.7547 831.052 60.55C831.052 69.234 829.438 77.3057 826.209 84.765C822.981 92.113 818.472 98.5147 812.682 103.97C807.004 109.314 800.269 113.489 792.475 116.495C784.793 119.501 776.388 121.004 767.258 121.004ZM767.091 97.958C772.324 97.958 777.111 97.0673 781.453 95.286C785.907 93.5047 789.803 90.944 793.143 87.604C796.483 84.264 799.044 80.3117 800.825 75.747C802.718 71.1823 803.664 66.1167 803.664 60.55C803.664 54.9833 802.718 49.9177 800.825 45.353C799.044 40.7883 796.483 36.836 793.143 33.496C789.915 30.156 786.074 27.5953 781.62 25.814C777.167 24.0327 772.324 23.142 767.091 23.142C761.859 23.142 757.016 24.0327 752.562 25.814C748.22 27.5953 744.379 30.156 741.039 33.496C737.699 36.836 735.083 40.7883 733.19 45.353C731.409 49.9177 730.518 54.9833 730.518 60.55C730.518 66.0053 731.409 71.071 733.19 75.747C735.083 80.3117 737.644 84.264 740.872 87.604C744.212 90.944 748.109 93.5047 752.562 95.286C757.016 97.0673 761.859 97.958 767.091 97.958ZM851.384 119V2.09999H878.438V96.956H937.055V119H851.384ZM952.172 119V2.09999H1005.28C1017.97 2.09999 1029.16 4.54933 1038.84 9.448C1048.53 14.2353 1056.1 20.971 1061.56 29.655C1067.01 38.339 1069.74 48.6373 1069.74 60.55C1069.74 72.3513 1067.01 82.6497 1061.56 91.445C1056.1 100.129 1048.53 106.92 1038.84 111.819C1029.16 116.606 1017.97 119 1005.28 119H952.172ZM979.226 96.789H1003.94C1011.73 96.789 1018.47 95.3417 1024.15 92.447C1029.94 89.441 1034.39 85.2103 1037.51 79.755C1040.74 74.2997 1042.35 67.898 1042.35 60.55C1042.35 53.0907 1040.74 46.689 1037.51 41.345C1034.39 35.8897 1029.94 31.7147 1024.15 28.82C1018.47 25.814 1011.73 24.311 1003.94 24.311H979.226V96.789ZM1115.03 49.194H1171.3V70.236H1115.03V49.194ZM1117.03 97.29H1180.66V119H1090.14V2.09999H1178.49V23.81H1117.03V97.29ZM1202.18 119V2.09999H1252.78C1263.25 2.09999 1272.27 3.82566 1279.84 7.277C1287.41 10.617 1293.25 15.46 1297.37 21.806C1301.49 28.152 1303.55 35.7227 1303.55 44.518C1303.55 53.202 1301.49 60.717 1297.37 67.063C1293.25 73.2977 1287.41 78.085 1279.84 81.425C1272.27 84.765 1263.25 86.435 1252.78 86.435H1217.21L1229.24 74.578V119H1202.18ZM1276.5 119L1247.27 76.582H1276.16L1305.72 119H1276.5ZM1229.24 77.584L1217.21 64.892H1251.28C1259.63 64.892 1265.86 63.1107 1269.98 59.548C1274.1 55.874 1276.16 50.864 1276.16 44.518C1276.16 38.0607 1274.1 33.0507 1269.98 29.488C1265.86 25.9253 1259.63 24.144 1251.28 24.144H1217.21L1229.24 11.285V77.584ZM1363.4 121.004C1354.04 121.004 1345.08 119.779 1336.51 117.33C1327.94 114.769 1321.03 111.485 1315.8 107.477L1324.99 87.103C1330 90.6657 1335.9 93.616 1342.69 95.954C1349.59 98.1807 1356.55 99.294 1363.56 99.294C1368.91 99.294 1373.19 98.793 1376.42 97.791C1379.76 96.6777 1382.21 95.1747 1383.77 93.282C1385.33 91.3893 1386.11 89.2183 1386.11 86.769C1386.11 83.6517 1384.88 81.2023 1382.43 79.421C1379.98 77.5283 1376.76 76.0253 1372.75 74.912C1368.74 73.6873 1364.29 72.574 1359.39 71.572C1354.6 70.4587 1349.76 69.1227 1344.86 67.564C1340.07 66.0053 1335.67 64.0013 1331.67 61.552C1327.66 59.1027 1324.37 55.874 1321.81 51.866C1319.36 47.858 1318.14 42.7367 1318.14 36.502C1318.14 29.822 1319.92 23.7543 1323.48 18.299C1327.16 12.7323 1332.61 8.33466 1339.85 5.10599C1347.2 1.766 1356.38 0.0959979 1367.4 0.0959979C1374.75 0.0959979 1381.99 0.986663 1389.11 2.76799C1396.24 4.43799 1402.53 6.99866 1407.99 10.45L1399.64 30.991C1394.18 27.8737 1388.72 25.5913 1383.27 24.144C1377.81 22.5853 1372.47 21.806 1367.24 21.806C1362 21.806 1357.72 22.4183 1354.38 23.643C1351.04 24.8677 1348.64 26.482 1347.2 28.486C1345.75 30.3787 1345.03 32.6053 1345.03 35.166C1345.03 38.172 1346.25 40.6213 1348.7 42.514C1351.15 44.2953 1354.38 45.7427 1358.39 46.856C1362.39 47.9693 1366.79 49.0827 1371.58 50.196C1376.48 51.3093 1381.32 52.5897 1386.11 54.037C1391.01 55.4843 1395.46 57.4327 1399.47 59.882C1403.48 62.3313 1406.7 65.56 1409.15 69.568C1411.71 73.576 1413 78.6417 1413 84.765C1413 91.3337 1411.16 97.3457 1407.48 102.801C1403.81 108.256 1398.3 112.654 1390.95 115.994C1383.71 119.334 1374.53 121.004 1363.4 121.004Z" fill="#FEFFED"/>
<path d="M21.384 117.33L20.8116 119.246L20.8231 119.25L20.8346 119.253L21.384 117.33ZM0.676 107.477L-1.14728 106.655L-1.79896 108.101L-0.540154 109.065L0.676 107.477ZM9.861 87.103L11.02 85.4731L9.03752 84.0633L8.03772 86.281L9.861 87.103ZM27.563 95.954L26.912 97.8451L26.9304 97.8514L26.949 97.8574L27.563 95.954ZM61.297 97.791L61.8898 99.7011L61.9097 99.6949L61.9295 99.6884L61.297 97.791ZM68.645 93.282L67.1011 92.0106L68.645 93.282ZM67.309 79.421L66.0861 81.0036L66.1091 81.0214L66.1327 81.0385L67.309 79.421ZM57.623 74.912L57.0386 76.8247L57.063 76.8322L57.0877 76.839L57.623 74.912ZM44.263 71.572L43.81 73.52L43.836 73.5261L43.8622 73.5314L44.263 71.572ZM29.734 67.564L29.1148 69.4658L29.1276 69.4698L29.734 67.564ZM16.541 61.552L15.4981 63.2586L16.541 61.552ZM6.688 51.866L4.98144 52.9089L4.99185 52.9259L5.00261 52.9428L6.688 51.866ZM8.358 18.299L6.68876 17.1973L6.68346 17.2054L8.358 18.299ZM24.724 5.10599L25.5389 6.9325L25.5516 6.92673L24.724 5.10599ZM73.989 2.76799L73.5039 4.70828L73.5182 4.71186L73.5326 4.71523L73.989 2.76799ZM92.86 10.45L94.7128 11.2032L95.3425 9.65393L93.9293 8.75984L92.86 10.45ZM84.51 30.991L83.5177 32.7275L85.5021 33.8614L86.3628 31.7442L84.51 30.991ZM68.144 24.144L67.5946 26.067L67.6128 26.0723L67.6311 26.0771L68.144 24.144ZM39.253 23.643L38.5645 21.7652H38.5645L39.253 23.643ZM32.072 28.486L33.6607 29.7009L33.6773 29.6792L33.6934 29.657L32.072 28.486ZM33.575 42.514L32.3521 44.0966L32.3751 44.1144L32.3987 44.1315L33.575 42.514ZM43.261 46.856L42.7257 48.783L43.261 46.856ZM56.454 50.196L56.001 52.144L56.0108 52.1463L56.454 50.196ZM70.983 54.037L70.4042 55.9515L70.4163 55.955L70.983 54.037ZM84.343 59.882L85.3859 58.1754L84.343 59.882ZM94.029 69.568L92.3224 70.6109L92.3329 70.6279L92.3436 70.6448L94.029 69.568ZM92.359 102.801L94.0179 103.918L92.359 102.801ZM75.826 115.994L74.9984 114.173L74.9879 114.178L75.826 115.994ZM48.271 119.004C39.0957 119.004 30.3189 117.803 21.9334 115.407L20.8346 119.253C29.5945 121.756 38.7423 123.004 48.271 123.004V119.004ZM21.9564 115.414C13.5387 112.899 6.87659 109.707 1.89215 105.889L-0.540154 109.065C4.94074 113.263 12.084 116.639 20.8116 119.246L21.9564 115.414ZM2.49928 108.299L11.6843 87.925L8.03772 86.281L-1.14728 106.655L2.49928 108.299ZM8.70195 88.7329C13.8916 92.4233 19.9693 95.455 26.912 97.8451L28.214 94.0629C21.574 91.777 15.8504 88.908 11.02 85.4731L8.70195 88.7329ZM26.949 97.8574C34.0432 100.146 41.2085 101.294 48.438 101.294V97.294C41.6395 97.294 34.8881 96.2155 28.177 94.0506L26.949 97.8574ZM48.438 101.294C53.8807 101.294 58.3912 100.787 61.8898 99.7011L60.7042 95.8809C57.7455 96.7991 53.6833 97.294 48.438 97.294V101.294ZM61.9295 99.6884C65.4786 98.5053 68.3087 96.8365 70.1889 94.5534L67.1011 92.0106C65.864 93.5128 63.7954 94.85 60.6646 95.8936L61.9295 99.6884ZM70.1889 94.5534C72.0421 92.3031 72.983 89.6827 72.983 86.769H68.983C68.983 88.7539 68.3653 90.4756 67.1011 92.0106L70.1889 94.5534ZM72.983 86.769C72.983 83.034 71.4698 79.9741 68.4853 77.8035L66.1327 81.0385C68.0468 82.4306 68.983 84.2694 68.983 86.769H72.983ZM68.5319 77.8384C65.8206 75.7433 62.3349 74.1451 58.1583 72.985L57.0877 76.839C60.9271 77.9055 63.8988 79.3134 66.0861 81.0036L68.5319 77.8384ZM58.2074 72.9993C54.1288 71.753 49.613 70.6249 44.6638 69.6126L43.8622 73.5314C48.7104 74.5231 53.1012 75.6216 57.0386 76.8247L58.2074 72.9993ZM44.716 69.624C39.9827 68.5232 35.1908 67.2015 30.3404 65.6581L29.1276 69.4698C34.0745 71.0439 38.9687 72.3941 43.81 73.52L44.716 69.624ZM30.3532 65.6623C25.7036 64.1485 21.4496 62.2078 17.5839 59.8454L15.4981 63.2586C19.6484 65.7949 24.1897 67.8622 29.1148 69.4657L30.3532 65.6623ZM17.5839 59.8454C13.8385 57.5566 10.7726 54.5446 8.37339 50.7892L5.00261 52.9428C7.7247 57.2034 11.2275 60.6488 15.4981 63.2586L17.5839 59.8454ZM8.39456 50.8231C6.19023 47.216 5.014 42.4859 5.014 36.502H1.014C1.014 42.9874 2.2871 48.5 4.98144 52.9089L8.39456 50.8231ZM5.014 36.502C5.014 30.2 6.68785 24.5141 10.0325 19.3926L6.68346 17.2054C2.90282 22.9945 1.014 29.444 1.014 36.502H5.014ZM10.0272 19.4007C13.4546 14.2077 18.5839 10.0354 25.5389 6.93246L23.9091 3.27953C16.3908 6.63387 10.6094 11.257 6.68878 17.1973L10.0272 19.4007ZM25.5516 6.92673C32.563 3.73972 41.4442 2.096 52.279 2.096V-1.904C41.0698 -1.904 31.581 -0.207733 23.8964 3.28526L25.5516 6.92673ZM52.279 2.096C59.4636 2.096 66.5373 2.96663 73.5039 4.70828L74.4741 0.827709C67.19 -0.993301 59.7905 -1.904 52.279 -1.904V2.096ZM73.5326 4.71523C80.4694 6.34103 86.5473 8.82288 91.7907 12.1402L93.9293 8.75984C88.2621 5.17444 81.7593 2.53495 74.4454 0.820759L73.5326 4.71523ZM91.0072 9.69683L82.6572 30.2378L86.3628 31.7442L94.7128 11.2032L91.0072 9.69683ZM85.5023 29.2545C79.9131 26.0607 74.2976 23.7074 68.6569 22.2109L67.6311 26.0771C72.9011 27.4753 78.1962 29.6866 83.5177 32.7275L85.5023 29.2545ZM68.6934 22.2209C63.0744 20.6155 57.5454 19.806 52.112 19.806V23.806C57.1439 23.806 62.303 24.5552 67.5946 26.067L68.6934 22.2209ZM52.112 19.806C46.7448 19.806 42.2028 20.4312 38.5645 21.7652L39.9415 25.5207C42.9832 24.4055 47.0139 23.806 52.112 23.806V19.806ZM38.5645 21.7652C35.007 23.0697 32.2132 24.8745 30.4506 27.315L33.6934 29.657C34.8254 28.0895 36.819 26.6657 39.9415 25.5207L38.5645 21.7652ZM30.4833 27.2711C28.7487 29.5394 27.901 32.2011 27.901 35.166H31.901C31.901 33.0095 32.5006 31.218 33.6607 29.7009L30.4833 27.2711ZM27.901 35.166C27.901 38.8126 29.4297 41.8383 32.3521 44.0966L34.7979 40.9314C32.8216 39.4043 31.901 37.5314 31.901 35.166H27.901ZM32.3987 44.1315C35.0989 46.0953 38.5674 47.6279 42.7257 48.783L43.7963 44.929C39.9386 43.8574 36.9498 42.4954 34.7513 40.8965L32.3987 44.1315ZM42.7257 48.783C46.7653 49.9052 51.1909 51.0254 56.001 52.144L56.907 48.248C52.1425 47.1399 47.7727 46.0335 43.7963 44.929L42.7257 48.783ZM56.0108 52.1463C60.864 53.2493 65.6618 54.5177 70.4042 55.9514L71.5618 52.1226C66.7295 50.6617 61.8413 49.3694 56.8972 48.2457L56.0108 52.1463ZM70.4163 55.955C75.1622 57.3572 79.4533 59.2377 83.3001 61.5886L85.3859 58.1754C81.2167 55.6276 76.6011 53.6114 71.5497 52.119L70.4163 55.955ZM83.3001 61.5886C87.0374 63.8724 90.0386 66.8736 92.3224 70.6109L95.7356 68.5251C93.1208 64.2464 89.6646 60.7902 85.3859 58.1754L83.3001 61.5886ZM92.3436 70.6448C94.6474 74.2507 95.87 78.9149 95.87 84.765H99.87C99.87 78.3684 98.5319 72.9013 95.7144 68.4912L92.3436 70.6448ZM95.87 84.765C95.87 90.9351 94.1521 96.5582 90.7001 101.684L94.0179 103.918C97.9139 98.1332 99.87 91.7323 99.87 84.765H95.87ZM90.7001 101.684C87.2752 106.769 82.0861 110.952 74.9984 114.173L76.6536 117.815C84.2619 114.356 90.0948 109.743 94.0179 103.918L90.7001 101.684ZM74.9879 114.178C68.0966 117.359 59.2224 119.004 48.271 119.004V123.004C59.5863 123.004 69.0821 121.309 76.6641 117.81L74.9879 114.178ZM138.94 119H136.94V121H138.94V119ZM138.94 24.144H140.94V22.144H138.94V24.144ZM101.532 24.144H99.5323V26.144H101.532V24.144ZM101.532 2.09999V0.0999908H99.5323V2.09999H101.532ZM203.402 2.09999H205.402V0.0999908H203.402V2.09999ZM203.402 24.144V26.144H205.402V24.144H203.402ZM165.994 24.144V22.144H163.994V24.144H165.994ZM165.994 119V121H167.994V119H165.994ZM140.94 119V24.144H136.94V119H140.94ZM138.94 22.144H101.532V26.144H138.94V22.144ZM103.532 24.144V2.09999H99.5323V24.144H103.532ZM101.532 4.09999H203.402V0.0999908H101.532V4.09999ZM201.402 2.09999V24.144H205.402V2.09999H201.402ZM203.402 22.144H165.994V26.144H203.402V22.144ZM163.994 24.144V119H167.994V24.144H163.994ZM165.994 117H138.94V121H165.994V117ZM196.724 119L194.897 118.186L193.642 121H196.724V119ZM248.828 2.09999V0.0999908H247.529L247.001 1.28578L248.828 2.09999ZM275.548 2.09999L277.373 1.2836L276.844 0.0999908H275.548V2.09999ZM327.819 119V121H330.904L329.644 118.184L327.819 119ZM299.429 119L297.581 119.765L298.092 121H299.429V119ZM256.677 15.794V13.794H253.683L254.829 16.5594L256.677 15.794ZM267.365 15.794L269.211 16.562L270.362 13.794H267.365V15.794ZM224.446 119V121H225.78L226.292 119.768L224.446 119ZM222.776 93.95L220.888 93.29L219.958 95.95H222.776V93.95ZM229.957 73.409V71.409H228.537L228.069 72.749L229.957 73.409ZM290.077 73.409L291.96 72.7354L291.485 71.409H290.077V73.409ZM297.425 93.95V95.95H300.264L299.308 93.2764L297.425 93.95ZM198.55 119.814L250.654 2.9142L247.001 1.28578L194.897 118.186L198.55 119.814ZM248.828 4.09999H275.548V0.0999908H248.828V4.09999ZM273.722 2.91638L325.993 119.816L329.644 118.184L277.373 1.2836L273.722 2.91638ZM327.819 117H299.429V121H327.819V117ZM301.276 118.235L258.524 15.0286L254.829 16.5594L297.581 119.765L301.276 118.235ZM256.677 17.794H267.365V13.794H256.677V17.794ZM265.518 15.026L222.599 118.232L226.292 119.768L269.211 16.562L265.518 15.026ZM224.446 117H196.724V121H224.446V117ZM224.664 94.61L231.845 74.069L228.069 72.749L220.888 93.29L224.664 94.61ZM229.957 75.409H290.077V71.409H229.957V75.409ZM288.193 74.0826L295.541 94.6236L299.308 93.2764L291.96 72.7354L288.193 74.0826ZM297.425 91.95H222.776V95.95H297.425V91.95ZM364.162 92.28L362.164 92.3761L362.388 97.023L365.606 93.6635L364.162 92.28ZM362.659 61.051L361.208 59.6743L360.62 60.2939L360.661 61.1471L362.659 61.051ZM418.604 2.09999V0.0999908H417.745L417.153 0.723248L418.604 2.09999ZM448.664 2.09999L450.129 3.46141L453.253 0.0999908H448.664V2.09999ZM398.23 56.375L399.689 57.7429L399.695 57.7364L398.23 56.375ZM383.2 72.407L384.644 73.7905L384.652 73.7828L384.659 73.7749L383.2 72.407ZM339.947 119H337.947V121H339.947V119ZM339.947 2.09999V0.0999908H337.947V2.09999H339.947ZM366.834 2.09999H368.834V0.0999908H366.834V2.09999ZM366.834 119V121H368.834V119H366.834ZM419.94 119L418.391 120.265L418.991 121H419.94V119ZM378.357 68.065L376.886 66.7095L375.71 67.9855L376.808 69.3298L378.357 68.065ZM396.059 48.86L397.628 47.6197L396.176 45.7825L394.588 47.5045L396.059 48.86ZM451.503 119V121H455.633L453.072 117.76L451.503 119ZM366.16 92.1839L364.657 60.9549L360.661 61.1471L362.164 92.3761L366.16 92.1839ZM364.11 62.4277L420.055 3.47673L417.153 0.723248L361.208 59.6743L364.11 62.4277ZM418.604 4.09999H448.664V0.0999908H418.604V4.09999ZM447.199 0.738571L396.765 55.0136L399.695 57.7364L450.129 3.46141L447.199 0.738571ZM396.771 55.0071L381.741 71.0391L384.659 73.7749L399.689 57.7429L396.771 55.0071ZM381.756 71.0235L362.718 90.8965L365.606 93.6635L384.644 73.7905L381.756 71.0235ZM341.947 119V2.09999H337.947V119H341.947ZM339.947 4.09999H366.834V0.0999908H339.947V4.09999ZM364.834 2.09999V119H368.834V2.09999H364.834ZM366.834 117H339.947V121H366.834V117ZM421.489 117.735L379.906 66.8002L376.808 69.3298L418.391 120.265L421.489 117.735ZM379.828 69.4205L397.53 50.2155L394.588 47.5045L376.886 66.7095L379.828 69.4205ZM394.49 50.1003L449.934 120.24L453.072 117.76L397.628 47.6197L394.49 50.1003ZM451.503 117H419.94V121H451.503V117ZM488.449 49.194V47.194H486.449V49.194H488.449ZM544.728 49.194H546.728V47.194H544.728V49.194ZM544.728 70.236V72.236H546.728V70.236H544.728ZM488.449 70.236H486.449V72.236H488.449V70.236ZM490.453 97.29H488.453V99.29H490.453V97.29ZM554.08 97.29H556.08V95.29H554.08V97.29ZM554.08 119V121H556.08V119H554.08ZM463.566 119H461.566V121H463.566V119ZM463.566 2.09999V0.0999908H461.566V2.09999H463.566ZM551.909 2.09999H553.909V0.0999908H551.909V2.09999ZM551.909 23.81V25.81H553.909V23.81H551.909ZM490.453 23.81V21.81H488.453V23.81H490.453ZM488.449 51.194H544.728V47.194H488.449V51.194ZM542.728 49.194V70.236H546.728V49.194H542.728ZM544.728 68.236H488.449V72.236H544.728V68.236ZM490.449 70.236V49.194H486.449V70.236H490.449ZM490.453 99.29H554.08V95.29H490.453V99.29ZM552.08 97.29V119H556.08V97.29H552.08ZM554.08 117H463.566V121H554.08V117ZM465.566 119V2.09999H461.566V119H465.566ZM463.566 4.09999H551.909V0.0999908H463.566V4.09999ZM549.909 2.09999V23.81H553.909V2.09999H549.909ZM551.909 21.81H490.453V25.81H551.909V21.81ZM488.453 23.81V97.29H492.453V23.81H488.453ZM655.766 2.09999V0.0999908H653.766V2.09999H655.766ZM682.82 2.09999H684.82V0.0999908H682.82V2.09999ZM682.82 119V121H684.82V119H682.82ZM655.766 119H653.766V121H655.766V119ZM602.66 119V121H604.66V119H602.66ZM575.606 119H573.606V121H575.606V119ZM575.606 2.09999V0.0999908H573.606V2.09999H575.606ZM602.66 2.09999H604.66V0.0999908H602.66V2.09999ZM657.77 71.071V73.071H659.77V71.071H657.77ZM600.656 71.071H598.656V73.071H600.656V71.071ZM600.656 48.192V46.192H598.656V48.192H600.656ZM657.77 48.192H659.77V46.192H657.77V48.192ZM655.766 4.09999H682.82V0.0999908H655.766V4.09999ZM680.82 2.09999V119H684.82V2.09999H680.82ZM682.82 117H655.766V121H682.82V117ZM657.766 119V2.09999H653.766V119H657.766ZM602.66 117H575.606V121H602.66V117ZM577.606 119V2.09999H573.606V119H577.606ZM575.606 4.09999H602.66V0.0999908H575.606V4.09999ZM600.66 2.09999V119H604.66V2.09999H600.66ZM657.77 69.071H600.656V73.071H657.77V69.071ZM602.656 71.071V48.192H598.656V71.071H602.656ZM600.656 50.192H657.77V46.192H600.656V50.192ZM655.77 48.192V71.071H659.77V48.192H655.77ZM741.54 116.495L740.82 118.361L740.829 118.364L741.54 116.495ZM721.166 103.803L719.781 105.245L719.788 105.252L719.795 105.259L721.166 103.803ZM707.806 84.598L705.965 85.3791L705.97 85.3909L705.975 85.4025L707.806 84.598ZM707.806 36.502L705.975 35.6974L705.97 35.7091L705.965 35.7209L707.806 36.502ZM741.707 4.60499L740.987 2.73899L741.707 4.60499ZM792.475 4.60499L791.746 6.4675L791.755 6.47099L792.475 4.60499ZM812.682 17.297L811.297 18.7392L811.304 18.7459L811.311 18.7526L812.682 17.297ZM826.209 36.502L824.378 37.3066L824.383 37.3169L826.209 36.502ZM826.209 84.765L828.04 85.5695L828.045 85.5594L826.209 84.765ZM812.682 103.97L814.053 105.426L814.054 105.426L812.682 103.97ZM792.475 116.495L791.755 114.629L791.746 114.633L792.475 116.495ZM781.453 95.286L780.71 93.429L780.702 93.4323L780.694 93.4357L781.453 95.286ZM793.143 87.604L791.729 86.1898L793.143 87.604ZM800.825 75.747L798.978 74.981L798.97 75.0004L798.962 75.0199L800.825 75.747ZM800.825 45.353L798.962 46.0801L798.97 46.0996L798.978 46.119L800.825 45.353ZM793.143 33.496L791.705 34.886L791.717 34.8982L791.729 34.9102L793.143 33.496ZM781.62 25.814L780.877 27.671L781.62 25.814ZM752.562 25.814L751.819 23.957L751.811 23.9603L751.803 23.9637L752.562 25.814ZM741.039 33.496L742.453 34.9102L741.039 33.496ZM733.19 45.353L731.343 44.587L731.335 44.6064L731.327 44.6259L733.19 45.353ZM733.19 75.747L731.321 76.459L731.332 76.4862L731.343 76.513L733.19 75.747ZM740.872 87.604L739.434 88.994L739.446 89.0062L739.458 89.0182L740.872 87.604ZM752.562 95.286L751.819 97.143L752.562 95.286ZM767.258 119.004C758.238 119.004 749.909 117.538 742.251 114.626L740.829 118.364C748.981 121.464 757.797 123.004 767.258 123.004V119.004ZM742.26 114.629C734.696 111.712 728.129 107.616 722.538 102.347L719.795 105.259C725.782 110.9 732.798 115.266 740.82 118.361L742.26 114.629ZM722.552 102.361C717.066 97.0904 712.763 90.9065 709.637 83.7935L705.975 85.4025C709.307 92.9855 713.91 99.605 719.781 105.245L722.552 102.361ZM709.647 83.8169C706.644 76.737 705.13 68.9894 705.13 60.55H701.13C701.13 69.4786 702.734 77.763 705.965 85.3791L709.647 83.8169ZM705.13 60.55C705.13 52.1106 706.644 44.363 709.647 37.2831L705.965 35.7209C702.734 43.337 701.13 51.6214 701.13 60.55H705.13ZM709.637 37.3065C712.759 30.2019 717.112 24.0222 722.705 18.7526L719.962 15.8414C713.975 21.4824 709.311 28.1061 705.975 35.6974L709.637 37.3065ZM722.705 18.7526C728.296 13.4838 734.863 9.38846 742.427 6.47099L740.987 2.73899C732.965 5.83352 725.949 10.1995 719.962 15.8414L722.705 18.7526ZM742.427 6.47099C749.97 3.56146 758.185 2.096 767.091 2.096V-1.904C757.739 -1.904 749.031 -0.363468 740.987 2.73899L742.427 6.47099ZM767.091 2.096C776.112 2.096 784.323 3.56263 791.746 6.46748L793.204 2.7425C785.263 -0.364643 776.551 -1.904 767.091 -1.904V2.096ZM791.755 6.47099C799.316 9.38727 805.822 13.479 811.297 18.7392L814.068 15.8548C808.187 10.2043 801.221 5.83471 793.195 2.73899L791.755 6.47099ZM811.311 18.7526C816.903 24.0222 821.256 30.2019 824.378 37.3065L828.04 35.6974C824.705 28.1061 820.04 21.4824 814.054 15.8414L811.311 18.7526ZM824.383 37.3169C827.485 44.2702 829.052 52.0044 829.052 60.55H833.052C833.052 51.5049 831.391 43.2071 828.036 35.6871L824.383 37.3169ZM829.052 60.55C829.052 68.9797 827.487 76.7788 824.374 83.9706L828.045 85.5594C831.389 77.8325 833.052 69.4883 833.052 60.55H829.052ZM824.378 83.9604C821.256 91.0651 816.903 97.2448 811.311 102.514L814.054 105.426C820.04 99.7846 824.705 93.1609 828.04 85.5695L824.378 83.9604ZM811.311 102.514C805.835 107.668 799.325 111.709 791.755 114.629L793.195 118.361C801.212 115.269 808.173 110.96 814.053 105.426L811.311 102.514ZM791.746 114.633C784.32 117.538 776.165 119.004 767.258 119.004V123.004C776.61 123.004 785.266 121.464 793.204 118.357L791.746 114.633ZM767.091 99.958C772.554 99.958 777.603 99.0273 782.212 97.1363L780.694 93.4357C776.619 95.1074 772.093 95.958 767.091 95.958V99.958ZM782.196 97.143C786.897 95.2626 791.023 92.5527 794.557 89.0182L791.729 86.1898C788.583 89.3353 784.916 91.7467 780.71 93.429L782.196 97.143ZM794.557 89.0182C798.1 85.4753 800.81 81.2865 802.688 76.4741L798.962 75.0199C797.277 79.3368 794.866 83.0527 791.729 86.1898L794.557 89.0182ZM802.673 76.513C804.678 71.6767 805.664 66.3464 805.664 60.55H801.664C801.664 65.8869 800.758 70.688 798.978 74.981L802.673 76.513ZM805.664 60.55C805.664 54.7536 804.678 49.4233 802.673 44.587L798.978 46.119C800.758 50.412 801.664 55.2131 801.664 60.55H805.664ZM802.688 44.6259C800.81 39.8135 798.1 35.6247 794.557 32.0818L791.729 34.9102C794.866 38.0473 797.277 41.7632 798.962 46.0801L802.688 44.6259ZM794.581 32.1059C791.15 28.5563 787.07 25.8397 782.363 23.957L780.877 27.671C785.077 29.3509 788.679 31.7556 791.705 34.886L794.581 32.1059ZM782.363 23.957C777.653 22.073 772.555 21.142 767.091 21.142V25.142C772.093 25.142 776.681 25.9924 780.877 27.671L782.363 23.957ZM767.091 21.142C761.627 21.142 756.53 22.073 751.819 23.957L753.305 27.671C757.501 25.9924 762.09 25.142 767.091 25.142V21.142ZM751.803 23.9637C747.214 25.8462 743.151 28.5557 739.625 32.0818L742.453 34.9102C745.607 31.7563 749.226 29.3444 753.321 27.6643L751.803 23.9637ZM739.625 32.0818C736.091 35.6159 733.331 39.7913 731.343 44.587L735.038 46.119C736.835 41.7854 739.307 38.0561 742.453 34.9102L739.625 32.0818ZM731.327 44.6259C729.444 49.4517 728.518 54.7681 728.518 60.55H732.518C732.518 55.1985 733.374 50.3837 735.053 46.0801L731.327 44.6259ZM728.518 60.55C728.518 66.2266 729.446 71.5359 731.321 76.459L735.059 75.035C733.372 70.6061 732.518 65.784 732.518 60.55H728.518ZM731.343 76.513C733.325 81.2946 736.02 85.4623 739.434 88.994L742.31 86.214C739.267 83.0657 736.84 79.3287 735.038 74.981L731.343 76.513ZM739.458 89.0182C742.992 92.5527 747.119 95.2626 751.819 97.143L753.305 93.429C749.099 91.7467 745.432 89.3353 742.286 86.1898L739.458 89.0182ZM751.819 97.143C756.53 99.0271 761.627 99.958 767.091 99.958V95.958C762.09 95.958 757.501 95.1076 753.305 93.429L751.819 97.143ZM851.384 119H849.384V121H851.384V119ZM851.384 2.09999V0.0999908H849.384V2.09999H851.384ZM878.438 2.09999H880.438V0.0999908H878.438V2.09999ZM878.438 96.956H876.438V98.956H878.438V96.956ZM937.055 96.956H939.055V94.956H937.055V96.956ZM937.055 119V121H939.055V119H937.055ZM853.384 119V2.09999H849.384V119H853.384ZM851.384 4.09999H878.438V0.0999908H851.384V4.09999ZM876.438 2.09999V96.956H880.438V2.09999H876.438ZM878.438 98.956H937.055V94.956H878.438V98.956ZM935.055 96.956V119H939.055V96.956H935.055ZM937.055 117H851.384V121H937.055V117ZM952.172 119H950.172V121H952.172V119ZM952.172 2.09999V0.0999908H950.172V2.09999H952.172ZM1038.84 9.448L1037.94 11.2327L1037.95 11.2369L1037.96 11.241L1038.84 9.448ZM1061.56 29.655L1059.86 30.7189L1061.56 29.655ZM1061.56 91.445L1063.25 92.5089L1063.26 92.4992L1061.56 91.445ZM1038.84 111.819L1039.73 113.612L1039.74 113.608L1039.75 113.604L1038.84 111.819ZM979.226 96.789H977.226V98.789H979.226V96.789ZM1024.15 92.447L1025.06 94.2288L1025.06 94.2254L1025.07 94.222L1024.15 92.447ZM1037.51 79.755L1035.79 78.7364L1035.78 78.7495L1035.77 78.7627L1037.51 79.755ZM1037.51 41.345L1035.77 42.3373L1035.78 42.3584L1035.8 42.3792L1037.51 41.345ZM1024.15 28.82L1023.21 30.5876L1023.23 30.5984L1023.25 30.6088L1024.15 28.82ZM979.226 24.311V22.311H977.226V24.311H979.226ZM954.172 119V2.09999H950.172V119H954.172ZM952.172 4.09999H1005.28V0.0999908H952.172V4.09999ZM1005.28 4.09999C1017.71 4.09999 1028.58 6.49771 1037.94 11.2327L1039.75 7.66327C1029.74 2.60094 1018.23 0.0999908 1005.28 0.0999908V4.09999ZM1037.96 11.241C1047.33 15.8737 1054.61 22.3649 1059.86 30.7189L1063.25 28.5911C1057.59 19.5771 1049.73 12.597 1039.73 7.65504L1037.96 11.241ZM1059.86 30.7189C1065.09 39.0355 1067.74 48.9518 1067.74 60.55H1071.74C1071.74 48.3229 1068.94 37.6425 1063.25 28.5911L1059.86 30.7189ZM1067.74 60.55C1067.74 72.0323 1065.09 81.9546 1059.86 90.3908L1063.26 92.4992C1068.93 83.3447 1071.74 72.6704 1071.74 60.55H1067.74ZM1059.86 90.3811C1054.61 98.7392 1047.32 105.29 1037.94 110.034L1039.75 113.604C1049.74 108.551 1057.59 101.519 1063.25 92.5089L1059.86 90.3811ZM1037.96 110.026C1028.59 114.655 1017.72 117 1005.28 117V121C1018.22 121 1029.72 118.557 1039.73 113.612L1037.96 110.026ZM1005.28 117H952.172V121H1005.28V117ZM979.226 98.789H1003.94V94.789H979.226V98.789ZM1003.94 98.789C1011.98 98.789 1019.04 97.2954 1025.06 94.2288L1023.24 90.6652C1017.9 93.388 1011.49 94.789 1003.94 94.789V98.789ZM1025.07 94.222C1031.19 91.046 1035.93 86.5496 1039.24 80.7473L1035.77 78.7627C1032.85 83.8711 1028.69 87.836 1023.23 90.672L1025.07 94.222ZM1039.23 80.7736C1042.67 74.9636 1044.35 68.1986 1044.35 60.55H1040.35C1040.35 67.5974 1038.81 73.6357 1035.79 78.7364L1039.23 80.7736ZM1044.35 60.55C1044.35 52.7975 1042.67 46.0228 1039.22 40.3108L1035.8 42.3792C1038.8 47.3552 1040.35 53.3838 1040.35 60.55H1044.35ZM1039.24 40.3527C1035.93 34.5438 1031.17 30.0967 1025.04 27.0311L1023.25 30.6088C1028.7 33.3326 1032.86 37.2356 1035.77 42.3373L1039.24 40.3527ZM1025.08 27.0524C1019.06 23.8645 1011.99 22.311 1003.94 22.311V26.311C1011.48 26.311 1017.88 27.7635 1023.21 30.5876L1025.08 27.0524ZM1003.94 22.311H979.226V26.311H1003.94V22.311ZM977.226 24.311V96.789H981.226V24.311H977.226ZM1115.03 49.194V47.194H1113.03V49.194H1115.03ZM1171.3 49.194H1173.3V47.194H1171.3V49.194ZM1171.3 70.236V72.236H1173.3V70.236H1171.3ZM1115.03 70.236H1113.03V72.236H1115.03V70.236ZM1117.03 97.29H1115.03V99.29H1117.03V97.29ZM1180.66 97.29H1182.66V95.29H1180.66V97.29ZM1180.66 119V121H1182.66V119H1180.66ZM1090.14 119H1088.14V121H1090.14V119ZM1090.14 2.09999V0.0999908H1088.14V2.09999H1090.14ZM1178.49 2.09999H1180.49V0.0999908H1178.49V2.09999ZM1178.49 23.81V25.81H1180.49V23.81H1178.49ZM1117.03 23.81V21.81H1115.03V23.81H1117.03ZM1115.03 51.194H1171.3V47.194H1115.03V51.194ZM1169.3 49.194V70.236H1173.3V49.194H1169.3ZM1171.3 68.236H1115.03V72.236H1171.3V68.236ZM1117.03 70.236V49.194H1113.03V70.236H1117.03ZM1117.03 99.29H1180.66V95.29H1117.03V99.29ZM1178.66 97.29V119H1182.66V97.29H1178.66ZM1180.66 117H1090.14V121H1180.66V117ZM1092.14 119V2.09999H1088.14V119H1092.14ZM1090.14 4.09999H1178.49V0.0999908H1090.14V4.09999ZM1176.49 2.09999V23.81H1180.49V2.09999H1176.49ZM1178.49 21.81H1117.03V25.81H1178.49V21.81ZM1115.03 23.81V97.29H1119.03V23.81H1115.03ZM1202.18 119H1200.18V121H1202.18V119ZM1202.18 2.09999V0.0999908H1200.18V2.09999H1202.18ZM1279.84 7.277L1279.01 9.09681L1279.02 9.10189L1279.03 9.10683L1279.84 7.277ZM1297.37 21.806L1295.69 22.8949L1297.37 21.806ZM1297.37 67.063L1299.04 68.1655L1299.05 68.1587L1299.05 68.1519L1297.37 67.063ZM1279.84 81.425L1280.64 83.2548L1279.84 81.425ZM1217.21 86.435L1215.81 85.0109L1212.34 88.435H1217.21V86.435ZM1229.24 74.578H1231.24V69.7969L1227.83 73.1539L1229.24 74.578ZM1229.24 119V121H1231.24V119H1229.24ZM1276.5 119L1274.85 120.135L1275.45 121H1276.5V119ZM1247.27 76.582V74.582H1243.47L1245.63 77.7167L1247.27 76.582ZM1276.16 76.582L1277.8 75.4385L1277.21 74.582H1276.16V76.582ZM1305.72 119V121H1309.55L1307.36 117.857L1305.72 119ZM1229.24 77.584L1227.78 78.9595L1231.24 82.6032V77.584H1229.24ZM1217.21 64.892V62.892H1212.56L1215.76 66.2675L1217.21 64.892ZM1269.98 59.548L1271.29 61.0607L1271.3 61.0507L1271.32 61.0406L1269.98 59.548ZM1217.21 24.144L1215.75 22.778L1212.6 26.144H1217.21V24.144ZM1229.24 11.285H1231.24V6.21782L1227.78 9.91901L1229.24 11.285ZM1204.18 119V2.09999H1200.18V119H1204.18ZM1202.18 4.09999H1252.78V0.0999908H1202.18V4.09999ZM1252.78 4.09999C1263.03 4.09999 1271.76 5.79068 1279.01 9.09681L1280.67 5.45718C1272.78 1.86065 1263.46 0.0999908 1252.78 0.0999908V4.09999ZM1279.03 9.10683C1286.28 12.3051 1291.81 16.9057 1295.69 22.8949L1299.05 20.7171C1294.7 14.0142 1288.54 8.92889 1280.64 5.44716L1279.03 9.10683ZM1295.69 22.8949C1299.57 28.8668 1301.55 36.045 1301.55 44.518H1305.55C1305.55 35.4003 1303.41 27.4372 1299.05 20.7171L1295.69 22.8949ZM1301.55 44.518C1301.55 52.8741 1299.57 59.9981 1295.69 65.9741L1299.05 68.1519C1303.41 61.4359 1305.55 53.5299 1305.55 44.518H1301.55ZM1295.7 65.9605C1291.82 71.8413 1286.29 76.3928 1279.03 79.5952L1280.64 83.2548C1288.53 79.7772 1294.69 74.754 1299.04 68.1655L1295.7 65.9605ZM1279.03 79.5952C1271.77 82.7974 1263.04 84.435 1252.78 84.435V88.435C1263.46 88.435 1272.76 86.7326 1280.64 83.2548L1279.03 79.5952ZM1252.78 84.435H1217.21V88.435H1252.78V84.435ZM1218.62 87.8591L1230.64 76.0021L1227.83 73.1539L1215.81 85.0109L1218.62 87.8591ZM1227.24 74.578V119H1231.24V74.578H1227.24ZM1229.24 117H1202.18V121H1229.24V117ZM1278.14 117.865L1248.92 75.4473L1245.63 77.7167L1274.85 120.135L1278.14 117.865ZM1247.27 78.582H1276.16V74.582H1247.27V78.582ZM1274.52 77.7254L1304.08 120.143L1307.36 117.857L1277.8 75.4385L1274.52 77.7254ZM1305.72 117H1276.5V121H1305.72V117ZM1230.69 76.2085L1218.66 63.5165L1215.76 66.2675L1227.78 78.9595L1230.69 76.2085ZM1217.21 66.892H1251.28V62.892H1217.21V66.892ZM1251.28 66.892C1259.86 66.892 1266.66 65.0679 1271.29 61.0607L1268.68 58.0353C1265.07 61.1535 1259.4 62.892 1251.28 62.892V66.892ZM1271.32 61.0406C1275.93 56.9286 1278.16 51.3398 1278.16 44.518H1274.16C1274.16 50.3882 1272.28 54.8194 1268.65 58.0554L1271.32 61.0406ZM1278.16 44.518C1278.16 37.5985 1275.93 31.9891 1271.29 27.9753L1268.68 31.0007C1272.27 34.1122 1274.16 38.5228 1274.16 44.518H1278.16ZM1271.29 27.9753C1266.66 23.9681 1259.86 22.144 1251.28 22.144V26.144C1259.4 26.144 1265.07 27.8826 1268.68 31.0007L1271.29 27.9753ZM1251.28 22.144H1217.21V26.144H1251.28V22.144ZM1218.67 25.51L1230.7 12.651L1227.78 9.91901L1215.75 22.778L1218.67 25.51ZM1227.24 11.285V77.584H1231.24V11.285H1227.24ZM1336.51 117.33L1335.94 119.246L1335.95 119.25L1335.96 119.253L1336.51 117.33ZM1315.8 107.477L1313.98 106.655L1313.33 108.101L1314.58 109.065L1315.8 107.477ZM1324.99 87.103L1326.15 85.4731L1324.16 84.0633L1323.16 86.281L1324.99 87.103ZM1342.69 95.954L1342.04 97.8451L1342.06 97.8514L1342.07 97.8574L1342.69 95.954ZM1376.42 97.791L1377.01 99.7011L1377.03 99.6949L1377.05 99.6884L1376.42 97.791ZM1383.77 93.282L1382.23 92.0106L1383.77 93.282ZM1382.43 79.421L1381.21 81.0036L1381.23 81.0214L1381.26 81.0385L1382.43 79.421ZM1372.75 74.912L1372.16 76.8247L1372.19 76.8322L1372.21 76.839L1372.75 74.912ZM1359.39 71.572L1358.93 73.52L1358.96 73.5261L1358.99 73.5314L1359.39 71.572ZM1344.86 67.564L1344.24 69.4658L1344.25 69.4698L1344.86 67.564ZM1331.67 61.552L1330.62 63.2586L1331.67 61.552ZM1321.81 51.866L1320.11 52.9089L1320.12 52.9259L1320.13 52.9428L1321.81 51.866ZM1323.48 18.299L1321.81 17.1973L1321.81 17.2054L1323.48 18.299ZM1339.85 5.10599L1340.66 6.9325L1340.68 6.92673L1339.85 5.10599ZM1389.11 2.76799L1388.63 4.70828L1388.64 4.71186L1388.66 4.71523L1389.11 2.76799ZM1407.98 10.45L1409.84 11.2032L1410.47 9.65393L1409.05 8.75984L1407.98 10.45ZM1399.64 30.991L1398.64 32.7275L1400.63 33.8614L1401.49 31.7442L1399.64 30.991ZM1383.27 24.144L1382.72 26.067L1382.74 26.0723L1382.76 26.0771L1383.27 24.144ZM1354.38 23.643L1353.69 21.7652L1354.38 23.643ZM1347.2 28.486L1348.79 29.7009L1348.8 29.6792L1348.82 29.657L1347.2 28.486ZM1348.7 42.514L1347.48 44.0966L1347.5 44.1144L1347.52 44.1315L1348.7 42.514ZM1358.39 46.856L1357.85 48.783L1358.39 46.856ZM1371.58 50.196L1371.13 52.144L1371.14 52.1463L1371.58 50.196ZM1386.11 54.037L1385.53 55.9515L1385.54 55.955L1386.11 54.037ZM1399.47 59.882L1400.51 58.1754L1399.47 59.882ZM1409.15 69.568L1407.45 70.6109L1407.46 70.6279L1407.47 70.6448L1409.15 69.568ZM1407.48 102.801L1409.14 103.918L1407.48 102.801ZM1390.95 115.994L1390.12 114.173L1390.11 114.178L1390.95 115.994ZM1363.4 119.004C1354.22 119.004 1345.44 117.803 1337.06 115.407L1335.96 119.253C1344.72 121.756 1353.87 123.004 1363.4 123.004V119.004ZM1337.08 115.414C1328.66 112.899 1322 109.707 1317.02 105.889L1314.58 109.065C1320.07 113.263 1327.21 116.639 1335.94 119.246L1337.08 115.414ZM1317.62 108.299L1326.81 87.925L1323.16 86.281L1313.98 106.655L1317.62 108.299ZM1323.83 88.7329C1329.02 92.4233 1335.09 95.455 1342.04 97.8451L1343.34 94.0629C1336.7 91.777 1330.98 88.908 1326.15 85.4731L1323.83 88.7329ZM1342.07 97.8574C1349.17 100.146 1356.33 101.294 1363.56 101.294V97.294C1356.76 97.294 1350.01 96.2155 1343.3 94.0506L1342.07 97.8574ZM1363.56 101.294C1369.01 101.294 1373.52 100.787 1377.01 99.7011L1375.83 95.8809C1372.87 96.7991 1368.81 97.294 1363.56 97.294V101.294ZM1377.05 99.6884C1380.6 98.5053 1383.43 96.8365 1385.31 94.5534L1382.23 92.0106C1380.99 93.5128 1378.92 94.85 1375.79 95.8936L1377.05 99.6884ZM1385.31 94.5534C1387.17 92.3031 1388.11 89.6827 1388.11 86.769H1384.11C1384.11 88.7539 1383.49 90.4756 1382.23 92.0106L1385.31 94.5534ZM1388.11 86.769C1388.11 83.034 1386.59 79.9741 1383.61 77.8035L1381.26 81.0385C1383.17 82.4306 1384.11 84.2694 1384.11 86.769H1388.11ZM1383.66 77.8384C1380.95 75.7433 1377.46 74.1451 1373.28 72.985L1372.21 76.839C1376.05 77.9055 1379.02 79.3134 1381.21 81.0036L1383.66 77.8384ZM1373.33 72.9993C1369.25 71.753 1364.74 70.6249 1359.79 69.6126L1358.99 73.5314C1363.84 74.5231 1368.23 75.6216 1372.16 76.8247L1373.33 72.9993ZM1359.84 69.624C1355.11 68.5232 1350.32 67.2015 1345.47 65.6581L1344.25 69.4698C1349.2 71.0439 1354.09 72.3941 1358.93 73.52L1359.84 69.624ZM1345.48 65.6623C1340.83 64.1485 1336.57 62.2078 1332.71 59.8454L1330.62 63.2586C1334.77 65.7949 1339.31 67.8622 1344.24 69.4657L1345.48 65.6623ZM1332.71 59.8454C1328.96 57.5566 1325.9 54.5446 1323.5 50.7892L1320.13 52.9428C1322.85 57.2034 1326.35 60.6488 1330.62 63.2586L1332.71 59.8454ZM1323.52 50.8231C1321.32 47.216 1320.14 42.4859 1320.14 36.502H1316.14C1316.14 42.9874 1317.41 48.5 1320.11 52.9089L1323.52 50.8231ZM1320.14 36.502C1320.14 30.2 1321.81 24.5141 1325.16 19.3926L1321.81 17.2054C1318.03 22.9945 1316.14 29.444 1316.14 36.502H1320.14ZM1325.15 19.4007C1328.58 14.2077 1333.71 10.0354 1340.66 6.93246L1339.03 3.27953C1331.52 6.63387 1325.73 11.257 1321.81 17.1973L1325.15 19.4007ZM1340.68 6.92673C1347.69 3.73972 1356.57 2.096 1367.4 2.096V-1.904C1356.19 -1.904 1346.71 -0.207733 1339.02 3.28526L1340.68 6.92673ZM1367.4 2.096C1374.59 2.096 1381.66 2.96663 1388.63 4.70828L1389.6 0.827709C1382.32 -0.993301 1374.92 -1.904 1367.4 -1.904V2.096ZM1388.66 4.71523C1395.59 6.34103 1401.67 8.82288 1406.92 12.1402L1409.05 8.75984C1403.39 5.17444 1396.88 2.53495 1389.57 0.820759L1388.66 4.71523ZM1406.13 9.69683L1397.78 30.2378L1401.49 31.7442L1409.84 11.2032L1406.13 9.69683ZM1400.63 29.2545C1395.04 26.0607 1389.42 23.7074 1383.78 22.2109L1382.76 26.0771C1388.03 27.4753 1393.32 29.6866 1398.64 32.7275L1400.63 29.2545ZM1383.82 22.2209C1378.2 20.6155 1372.67 19.806 1367.24 19.806V23.806C1372.27 23.806 1377.43 24.5552 1382.72 26.067L1383.82 22.2209ZM1367.24 19.806C1361.87 19.806 1357.33 20.4312 1353.69 21.7652L1355.07 25.5207C1358.11 24.4055 1362.14 23.806 1367.24 23.806V19.806ZM1353.69 21.7652C1350.13 23.0697 1347.34 24.8745 1345.58 27.315L1348.82 29.657C1349.95 28.0895 1351.94 26.6657 1355.07 25.5207L1353.69 21.7652ZM1345.61 27.2711C1343.87 29.5394 1343.03 32.2011 1343.03 35.166H1347.03C1347.03 33.0095 1347.63 31.218 1348.79 29.7009L1345.61 27.2711ZM1343.03 35.166C1343.03 38.8126 1344.55 41.8383 1347.48 44.0966L1349.92 40.9314C1347.95 39.4043 1347.03 37.5314 1347.03 35.166H1343.03ZM1347.52 44.1315C1350.22 46.0953 1353.69 47.6279 1357.85 48.783L1358.92 44.929C1355.06 43.8574 1352.07 42.4954 1349.88 40.8965L1347.52 44.1315ZM1357.85 48.783C1361.89 49.9052 1366.32 51.0254 1371.13 52.144L1372.03 48.248C1367.27 47.1399 1362.9 46.0335 1358.92 44.929L1357.85 48.783ZM1371.14 52.1463C1375.99 53.2493 1380.79 54.5177 1385.53 55.9514L1386.69 52.1226C1381.85 50.6617 1376.97 49.3694 1372.02 48.2457L1371.14 52.1463ZM1385.54 55.955C1390.29 57.3572 1394.58 59.2377 1398.43 61.5886L1400.51 58.1754C1396.34 55.6276 1391.73 53.6114 1386.67 52.119L1385.54 55.955ZM1398.43 61.5886C1402.16 63.8724 1405.16 66.8736 1407.45 70.6109L1410.86 68.5251C1408.25 64.2464 1404.79 60.7902 1400.51 58.1754L1398.43 61.5886ZM1407.47 70.6448C1409.77 74.2507 1410.99 78.9149 1410.99 84.765H1414.99C1414.99 78.3684 1413.66 72.9013 1410.84 68.4912L1407.47 70.6448ZM1410.99 84.765C1410.99 90.9351 1409.28 96.5582 1405.83 101.684L1409.14 103.918C1413.04 98.1332 1414.99 91.7323 1414.99 84.765H1410.99ZM1405.83 101.684C1402.4 106.769 1397.21 110.952 1390.12 114.173L1391.78 117.815C1399.39 114.356 1405.22 109.743 1409.14 103.918L1405.83 101.684ZM1390.11 114.178C1383.22 117.359 1374.35 119.004 1363.4 119.004V123.004C1374.71 123.004 1384.21 121.309 1391.79 117.81L1390.11 114.178Z" fill="#05668D"/>
</svg>
