<svg width="416" height="122" viewBox="0 0 416 122" fill="none" xmlns="http://www.w3.org/2000/svg">
<path d="M5.511 119V101.465L50.601 58.88C54.1637 55.6513 56.78 52.7567 58.45 50.196C60.12 47.6353 61.2333 45.2973 61.79 43.182C62.458 41.0667 62.792 39.1183 62.792 37.337C62.792 32.661 61.1777 29.0983 57.949 26.649C54.8317 24.0883 50.2113 22.808 44.088 22.808C39.1893 22.808 34.6247 23.7543 30.394 25.647C26.2747 27.5397 22.7677 30.49 19.873 34.498L0.167 21.806C4.62033 15.126 10.855 9.83766 18.871 5.94099C26.887 2.04433 36.1277 0.0959979 46.593 0.0959979C55.277 0.0959979 62.8477 1.54333 69.305 4.43799C75.8737 7.22133 80.9393 11.1737 84.502 16.295C88.176 21.4163 90.013 27.5397 90.013 34.665C90.013 38.4503 89.512 42.2357 88.51 46.021C87.6193 49.695 85.7267 53.5917 82.832 57.711C80.0487 61.8303 75.9293 66.4507 70.474 71.572L33.066 106.809L27.889 96.956H93.854V119H5.511ZM155.117 121.004C145.542 121.004 136.97 118.666 129.399 113.99C121.828 109.203 115.872 102.3 111.53 93.282C107.188 84.264 105.017 73.3533 105.017 60.55C105.017 47.7467 107.188 36.836 111.53 27.818C115.872 18.8 121.828 11.953 129.399 7.277C136.97 2.48966 145.542 0.0959979 155.117 0.0959979C164.803 0.0959979 173.376 2.48966 180.835 7.277C188.406 11.953 194.362 18.8 198.704 27.818C203.046 36.836 205.217 47.7467 205.217 60.55C205.217 73.3533 203.046 84.264 198.704 93.282C194.362 102.3 188.406 109.203 180.835 113.99C173.376 118.666 164.803 121.004 155.117 121.004ZM155.117 98.125C159.682 98.125 163.634 96.8447 166.974 94.284C170.425 91.7233 173.097 87.6597 174.99 82.093C176.994 76.5263 177.996 69.3453 177.996 60.55C177.996 51.7547 176.994 44.5737 174.99 39.007C173.097 33.4403 170.425 29.3767 166.974 26.816C163.634 24.2553 159.682 22.975 155.117 22.975C150.664 22.975 146.711 24.2553 143.26 26.816C139.92 29.3767 137.248 33.4403 135.244 39.007C133.351 44.5737 132.405 51.7547 132.405 60.55C132.405 69.3453 133.351 76.5263 135.244 82.093C137.248 87.6597 139.92 91.7233 143.26 94.284C146.711 96.8447 150.664 98.125 155.117 98.125ZM268.462 121.004C258.887 121.004 250.314 118.666 242.744 113.99C235.173 109.203 229.217 102.3 224.875 93.282C220.533 84.264 218.362 73.3533 218.362 60.55C218.362 47.7467 220.533 36.836 224.875 27.818C229.217 18.8 235.173 11.953 242.744 7.277C250.314 2.48966 258.887 0.0959979 268.462 0.0959979C278.148 0.0959979 286.72 2.48966 294.18 7.277C301.75 11.953 307.707 18.8 312.049 27.818C316.391 36.836 318.562 47.7467 318.562 60.55C318.562 73.3533 316.391 84.264 312.049 93.282C307.707 102.3 301.75 109.203 294.18 113.99C286.72 118.666 278.148 121.004 268.462 121.004ZM268.462 98.125C273.026 98.125 276.979 96.8447 280.319 94.284C283.77 91.7233 286.442 87.6597 288.335 82.093C290.339 76.5263 291.341 69.3453 291.341 60.55C291.341 51.7547 290.339 44.5737 288.335 39.007C286.442 33.4403 283.77 29.3767 280.319 26.816C276.979 24.2553 273.026 22.975 268.462 22.975C264.008 22.975 260.056 24.2553 256.605 26.816C253.265 29.3767 250.593 33.4403 248.589 39.007C246.696 44.5737 245.75 51.7547 245.75 60.55C245.75 69.3453 246.696 76.5263 248.589 82.093C250.593 87.6597 253.265 91.7233 256.605 94.284C260.056 96.8447 264.008 98.125 268.462 98.125ZM365.091 99.127V21.973H386.634V99.127H365.091ZM336.2 70.737V50.363H415.692V70.737H336.2Z" fill="#FEFFED"/>
<path d="M5.511 119H3.511V121H5.511V119ZM5.511 101.465L4.13775 100.011L3.511 100.603V101.465H5.511ZM50.601 58.88L49.258 57.398L49.2427 57.4118L49.2278 57.426L50.601 58.88ZM58.45 50.196L60.1252 51.2885L58.45 50.196ZM61.79 43.182L59.8828 42.5797L59.8682 42.626L59.8559 42.673L61.79 43.182ZM57.949 26.649L56.6795 28.1945L56.7094 28.219L56.7402 28.2424L57.949 26.649ZM30.394 25.647L29.5773 23.8214L29.5681 23.8255L29.559 23.8296L30.394 25.647ZM19.873 34.498L18.79 36.1794L20.3842 37.2062L21.4944 35.669L19.873 34.498ZM0.167 21.806L-1.4971 20.6966L-2.62418 22.3872L-0.915955 23.4874L0.167 21.806ZM18.871 5.94099L17.9966 4.14226H17.9966L18.871 5.94099ZM69.305 4.43799L68.4869 6.26301L68.5057 6.27145L68.5247 6.2795L69.305 4.43799ZM84.502 16.295L82.8602 17.4371L82.8685 17.449L82.8769 17.4608L84.502 16.295ZM88.51 46.021L86.5766 45.5092L86.5712 45.5294L86.5663 45.5498L88.51 46.021ZM82.832 57.711L81.1956 56.5611L81.1851 56.5761L81.1748 56.5913L82.832 57.711ZM70.474 71.572L69.1051 70.1139L69.1027 70.1162L70.474 71.572ZM33.066 106.809L31.2955 107.739L32.5204 110.071L34.4373 108.265L33.066 106.809ZM27.889 96.956V94.956H24.5789L26.1185 97.8863L27.889 96.956ZM93.854 96.956H95.854V94.956H93.854V96.956ZM93.854 119V121H95.854V119H93.854ZM7.511 119V101.465H3.511V119H7.511ZM6.88425 102.919L51.9742 60.334L49.2278 57.426L4.13775 100.011L6.88425 102.919ZM51.944 60.362C55.5701 57.0759 58.3242 54.0502 60.1252 51.2885L56.7748 49.1035C55.2359 51.4632 52.7572 54.2268 49.258 57.398L51.944 60.362ZM60.1252 51.2885C61.8694 48.6141 63.0961 46.0777 63.7242 43.691L59.8559 42.673C59.3706 44.517 58.3706 46.6565 56.7748 49.1035L60.1252 51.2885ZM63.6972 43.7843C64.4123 41.5198 64.792 39.3656 64.792 37.337H60.792C60.792 38.8711 60.5037 40.6135 59.8828 42.5797L63.6972 43.7843ZM64.792 37.337C64.792 32.1446 62.966 27.9446 59.1578 25.0556L56.7402 28.2424C59.3894 30.2521 60.792 33.1774 60.792 37.337H64.792ZM59.2185 25.1035C55.5991 22.1305 50.445 20.808 44.088 20.808V24.808C49.9777 24.808 54.0642 26.0462 56.6795 28.1945L59.2185 25.1035ZM44.088 20.808C38.9242 20.808 34.0794 21.8073 29.5773 23.8214L31.2107 27.4726C35.17 25.7014 39.4545 24.808 44.088 24.808V20.808ZM29.559 23.8296C25.0982 25.8792 21.3295 29.0654 18.2516 33.327L21.4944 35.669C24.2058 31.9146 27.4511 29.2001 31.229 27.4644L29.559 23.8296ZM20.956 32.8166L1.24995 20.1246L-0.915955 23.4874L18.79 36.1794L20.956 32.8166ZM1.8311 22.9154C6.066 16.563 12.0131 11.4985 19.7454 7.73973L17.9966 4.14226C9.69692 8.17683 3.17467 13.6889 -1.4971 20.6966L1.8311 22.9154ZM19.7454 7.73973C27.4454 3.99668 36.3781 2.096 46.593 2.096V-1.904C35.8772 -1.904 26.3286 0.0919762 17.9966 4.14226L19.7454 7.73973ZM46.593 2.096C55.0575 2.096 62.3384 3.50679 68.4869 6.26301L70.1231 2.61297C63.357 -0.420128 55.4965 -1.904 46.593 -1.904V2.096ZM68.5247 6.2795C74.797 8.93727 79.5426 12.6681 82.8602 17.4371L86.1438 15.1529C82.3361 9.67925 76.9503 5.50539 70.0853 2.59649L68.5247 6.2795ZM82.8769 17.4608C86.276 22.1989 88.013 27.9011 88.013 34.665H92.013C92.013 27.1783 90.0761 20.6338 86.1271 15.1292L82.8769 17.4608ZM88.013 34.665C88.013 38.2717 87.5359 41.8851 86.5766 45.5092L90.4434 46.5328C91.4881 42.5862 92.013 38.629 92.013 34.665H88.013ZM86.5663 45.5498C85.7507 48.9143 83.9913 52.5826 81.1956 56.5611L84.4684 58.8609C87.462 54.6007 89.488 50.4757 90.4537 46.4922L86.5663 45.5498ZM81.1748 56.5913C78.5052 60.5424 74.5006 65.0487 69.1051 70.1139L71.8429 73.0301C77.358 67.8526 81.5922 63.1183 84.4892 58.8307L81.1748 56.5913ZM69.1027 70.1162L31.6947 105.353L34.4373 108.265L71.8453 73.0278L69.1027 70.1162ZM34.8365 105.879L29.6595 96.0257L26.1185 97.8863L31.2955 107.739L34.8365 105.879ZM27.889 98.956H93.854V94.956H27.889V98.956ZM91.854 96.956V119H95.854V96.956H91.854ZM93.854 117H5.511V121H93.854V117ZM129.399 113.99L128.33 115.68L128.339 115.686L128.348 115.692L129.399 113.99ZM111.53 93.282L109.728 94.1496L111.53 93.282ZM111.53 27.818L113.332 28.6856L111.53 27.818ZM129.399 7.277L130.45 8.97859L130.459 8.97303L130.468 8.96738L129.399 7.277ZM180.835 7.277L179.755 8.96017L179.769 8.96951L179.784 8.97859L180.835 7.277ZM198.704 27.818L196.902 28.6856L198.704 27.818ZM198.704 93.282L196.902 92.4144L198.704 93.282ZM180.835 113.99L181.897 115.685L181.904 115.68L180.835 113.99ZM166.974 94.284L165.782 92.6778L165.77 92.6872L165.757 92.6968L166.974 94.284ZM174.99 82.093L173.108 81.4156L173.102 81.4323L173.096 81.4492L174.99 82.093ZM174.99 39.007L173.096 39.6508L173.102 39.6677L173.108 39.6844L174.99 39.007ZM166.974 26.816L165.757 28.4032L165.77 28.4128L165.782 28.4222L166.974 26.816ZM143.26 26.816L142.068 25.2098L142.056 25.2192L142.043 25.2288L143.26 26.816ZM135.244 39.007L133.362 38.3296L133.356 38.3463L133.35 38.3632L135.244 39.007ZM135.244 82.093L133.35 82.7368L133.356 82.7537L133.362 82.7704L135.244 82.093ZM143.26 94.284L142.043 95.8712L142.056 95.8808L142.068 95.8902L143.26 94.284ZM155.117 119.004C145.884 119.004 137.681 116.754 130.45 112.288L128.348 115.692C136.258 120.578 145.2 123.004 155.117 123.004V119.004ZM130.468 112.3C123.25 107.735 117.531 101.136 113.332 92.4144L109.728 94.1496C114.213 103.464 120.407 110.67 128.33 115.68L130.468 112.3ZM113.332 92.4144C109.151 83.7317 107.017 73.134 107.017 60.55H103.017C103.017 73.5726 105.224 84.7963 109.728 94.1496L113.332 92.4144ZM107.017 60.55C107.017 47.966 109.151 37.3683 113.332 28.6856L109.728 26.9504C105.224 36.3037 103.017 47.5274 103.017 60.55H107.017ZM113.332 28.6856C117.53 19.9674 123.243 13.4296 130.45 8.97859L128.348 5.5754C120.413 10.4763 114.214 17.6326 109.728 26.9504L113.332 28.6856ZM130.468 8.96738C137.696 4.39638 145.893 2.096 155.117 2.096V-1.904C145.191 -1.904 136.243 0.582947 128.33 5.58661L130.468 8.96738ZM155.117 2.096C164.457 2.096 172.647 4.39878 179.755 8.96017L181.915 5.59382C174.104 0.580544 165.149 -1.904 155.117 -1.904V2.096ZM179.784 8.97859C186.99 13.4296 192.704 19.9674 196.902 28.6856L200.506 26.9504C196.02 17.6326 189.821 10.4763 181.886 5.5754L179.784 8.97859ZM196.902 28.6856C201.082 37.3683 203.217 47.966 203.217 60.55H207.217C207.217 47.5274 205.009 36.3037 200.506 26.9504L196.902 28.6856ZM203.217 60.55C203.217 73.134 201.082 83.7317 196.902 92.4144L200.506 94.1496C205.009 84.7963 207.217 73.5726 207.217 60.55H203.217ZM196.902 92.4144C192.703 101.136 186.984 107.735 179.766 112.3L181.904 115.68C189.827 110.67 196.021 103.464 200.506 94.1496L196.902 92.4144ZM179.773 112.295C172.663 116.752 164.466 119.004 155.117 119.004V123.004C165.14 123.004 174.088 120.58 181.897 115.685L179.773 112.295ZM155.117 100.125C160.082 100.125 164.471 98.7227 168.191 95.8712L165.757 92.6968C162.796 94.9666 159.281 96.125 155.117 96.125V100.125ZM168.166 95.8902C172.043 93.0131 174.907 88.5501 176.883 82.7368L173.096 81.4492C171.288 86.7693 168.807 90.4336 165.782 92.6778L168.166 95.8902ZM176.872 82.7704C178.982 76.908 179.996 69.4748 179.996 60.55H175.996C175.996 69.2158 175.006 76.1446 173.108 81.4156L176.872 82.7704ZM179.996 60.55C179.996 51.6251 178.982 44.1919 176.872 38.3296L173.108 39.6844C175.006 44.9554 175.996 51.8842 175.996 60.55H179.996ZM176.883 38.3632C174.907 32.5499 172.043 28.0869 168.166 25.2098L165.782 28.4222C168.807 30.6664 171.288 34.3307 173.096 39.6508L176.883 38.3632ZM168.191 25.2288C164.471 22.3773 160.082 20.975 155.117 20.975V24.975C159.281 24.975 162.796 26.1333 165.757 28.4032L168.191 25.2288ZM155.117 20.975C150.251 20.975 145.877 22.3836 142.068 25.2098L144.452 28.4222C147.545 26.127 151.076 24.975 155.117 24.975V20.975ZM142.043 25.2288C138.299 28.0993 135.446 32.5424 133.362 38.3296L137.126 39.6844C139.05 34.3382 141.541 30.654 144.477 28.4032L142.043 25.2288ZM133.35 38.3632C131.361 44.2129 130.405 51.6332 130.405 60.55H134.405C134.405 51.8761 135.341 44.9345 137.137 39.6508L133.35 38.3632ZM130.405 60.55C130.405 69.4667 131.361 76.8871 133.35 82.7368L137.137 81.4492C135.341 76.1655 134.405 69.2239 134.405 60.55H130.405ZM133.362 82.7704C135.446 88.5576 138.299 93.0007 142.043 95.8712L144.477 92.6968C141.541 90.446 139.05 86.7617 137.126 81.4156L133.362 82.7704ZM142.068 95.8902C145.877 98.7164 150.251 100.125 155.117 100.125V96.125C151.076 96.125 147.545 94.973 144.452 92.6778L142.068 95.8902ZM242.744 113.99L241.675 115.68L241.684 115.686L241.693 115.692L242.744 113.99ZM224.875 93.282L223.073 94.1496L224.875 93.282ZM224.875 27.818L226.677 28.6856L224.875 27.818ZM242.744 7.277L243.795 8.97859L243.804 8.97303L243.813 8.96738L242.744 7.277ZM294.18 7.277L293.099 8.96017L293.114 8.96951L293.129 8.97859L294.18 7.277ZM312.049 27.818L310.247 28.6856L312.049 27.818ZM312.049 93.282L310.247 92.4144L312.049 93.282ZM294.18 113.99L295.242 115.685L295.249 115.68L294.18 113.99ZM280.319 94.284L279.127 92.6778L279.114 92.6872L279.102 92.6968L280.319 94.284ZM288.335 82.093L286.453 81.4156L286.447 81.4323L286.441 81.4492L288.335 82.093ZM288.335 39.007L286.441 39.6508L286.447 39.6677L286.453 39.6844L288.335 39.007ZM280.319 26.816L279.102 28.4032L279.114 28.4128L279.127 28.4222L280.319 26.816ZM256.605 26.816L255.413 25.2098L255.4 25.2192L255.388 25.2288L256.605 26.816ZM248.589 39.007L246.707 38.3296L246.701 38.3463L246.695 38.3632L248.589 39.007ZM248.589 82.093L246.695 82.7368L246.701 82.7537L246.707 82.7704L248.589 82.093ZM256.605 94.284L255.388 95.8712L255.4 95.8808L255.413 95.8902L256.605 94.284ZM268.462 119.004C259.229 119.004 251.025 116.754 243.795 112.288L241.693 115.692C249.603 120.578 258.545 123.004 268.462 123.004V119.004ZM243.813 112.3C236.595 107.735 230.876 101.136 226.677 92.4144L223.073 94.1496C227.557 103.464 233.751 110.67 241.675 115.68L243.813 112.3ZM226.677 92.4144C222.496 83.7317 220.362 73.134 220.362 60.55H216.362C216.362 73.5726 218.569 84.7963 223.073 94.1496L226.677 92.4144ZM220.362 60.55C220.362 47.966 222.496 37.3683 226.677 28.6856L223.073 26.9504C218.569 36.3037 216.362 47.5274 216.362 60.55H220.362ZM226.677 28.6856C230.874 19.9674 236.588 13.4296 243.795 8.97859L241.693 5.5754C233.758 10.4763 227.559 17.6326 223.073 26.9504L226.677 28.6856ZM243.813 8.96738C251.041 4.39638 259.238 2.096 268.462 2.096V-1.904C258.536 -1.904 249.587 0.582947 241.675 5.58661L243.813 8.96738ZM268.462 2.096C277.802 2.096 285.992 4.39878 293.099 8.96017L295.26 5.59382C287.448 0.580544 278.494 -1.904 268.462 -1.904V2.096ZM293.129 8.97859C300.335 13.4296 306.049 19.9674 310.247 28.6856L313.851 26.9504C309.364 17.6326 303.165 10.4763 295.231 5.5754L293.129 8.97859ZM310.247 28.6856C314.427 37.3683 316.562 47.966 316.562 60.55H320.562C320.562 47.5274 318.354 36.3037 313.851 26.9504L310.247 28.6856ZM316.562 60.55C316.562 73.134 314.427 83.7317 310.247 92.4144L313.851 94.1496C318.354 84.7963 320.562 73.5726 320.562 60.55H316.562ZM310.247 92.4144C306.047 101.136 300.329 107.735 293.111 112.3L295.249 115.68C303.172 110.67 309.366 103.464 313.851 94.1496L310.247 92.4144ZM293.117 112.295C286.008 116.752 277.811 119.004 268.462 119.004V123.004C278.484 123.004 287.433 120.58 295.242 115.685L293.117 112.295ZM268.462 100.125C273.427 100.125 277.816 98.7227 281.535 95.8712L279.102 92.6968C276.141 94.9666 272.626 96.125 268.462 96.125V100.125ZM281.51 95.8902C285.388 93.0131 288.252 88.5501 290.228 82.7368L286.441 81.4492C284.632 86.7693 282.152 90.4336 279.127 92.6778L281.51 95.8902ZM290.216 82.7704C292.327 76.908 293.341 69.4748 293.341 60.55H289.341C289.341 69.2158 288.35 76.1446 286.453 81.4156L290.216 82.7704ZM293.341 60.55C293.341 51.6251 292.327 44.1919 290.216 38.3296L286.453 39.6844C288.35 44.9554 289.341 51.8842 289.341 60.55H293.341ZM290.228 38.3632C288.252 32.5499 285.388 28.0869 281.51 25.2098L279.127 28.4222C282.152 30.6664 284.632 34.3307 286.441 39.6508L290.228 38.3632ZM281.535 25.2288C277.816 22.3773 273.427 20.975 268.462 20.975V24.975C272.626 24.975 276.141 26.1333 279.102 28.4032L281.535 25.2288ZM268.462 20.975C263.596 20.975 259.222 22.3836 255.413 25.2098L257.796 28.4222C260.89 26.127 264.421 24.975 268.462 24.975V20.975ZM255.388 25.2288C251.644 28.0993 248.79 32.5424 246.707 38.3296L250.47 39.6844C252.395 34.3382 254.886 30.654 257.822 28.4032L255.388 25.2288ZM246.695 38.3632C244.706 44.2129 243.75 51.6332 243.75 60.55H247.75C247.75 51.8761 248.686 44.9345 250.482 39.6508L246.695 38.3632ZM243.75 60.55C243.75 69.4667 244.706 76.8871 246.695 82.7368L250.482 81.4492C248.686 76.1655 247.75 69.2239 247.75 60.55H243.75ZM246.707 82.7704C248.79 88.5576 251.644 93.0007 255.388 95.8712L257.822 92.6968C254.886 90.446 252.395 86.7617 250.47 81.4156L246.707 82.7704ZM255.413 95.8902C259.222 98.7164 263.596 100.125 268.462 100.125V96.125C264.421 96.125 260.89 94.973 257.796 92.6778L255.413 95.8902ZM365.091 99.127H363.091V101.127H365.091V99.127ZM365.091 21.973V19.973H363.091V21.973H365.091ZM386.634 21.973H388.634V19.973H386.634V21.973ZM386.634 99.127V101.127H388.634V99.127H386.634ZM336.2 70.737H334.2V72.737H336.2V70.737ZM336.2 50.363V48.363H334.2V50.363H336.2ZM415.692 50.363H417.692V48.363H415.692V50.363ZM415.692 70.737V72.737H417.692V70.737H415.692ZM367.091 99.127V21.973H363.091V99.127H367.091ZM365.091 23.973H386.634V19.973H365.091V23.973ZM384.634 21.973V99.127H388.634V21.973H384.634ZM386.634 97.127H365.091V101.127H386.634V97.127ZM338.2 70.737V50.363H334.2V70.737H338.2ZM336.2 52.363H415.692V48.363H336.2V52.363ZM413.692 50.363V70.737H417.692V50.363H413.692ZM415.692 68.737H336.2V72.737H415.692V68.737Z" fill="#05668D"/>
</svg>
