<svg width="151" height="119" viewBox="0 0 151 119" stroke='cyan-600' fill="none" xmlns="http://www.w3.org/2000/svg">
<path d="M5.511 119V101.465L50.601 58.88C54.1637 55.6513 56.78 52.7567 58.45 50.196C60.12 47.6353 61.2333 45.2973 61.79 43.182C62.458 41.0667 62.792 39.1183 62.792 37.337C62.792 32.661 61.1777 29.0983 57.949 26.649C54.8317 24.0883 50.2113 22.808 44.088 22.808C39.1893 22.808 34.6247 23.7543 30.394 25.647C26.2747 27.5397 22.7677 30.49 19.873 34.498L0.167 21.806C4.62033 15.126 10.855 9.83766 18.871 5.94099C26.887 2.04433 36.1277 0.0959979 46.593 0.0959979C55.277 0.0959979 62.8477 1.54333 69.305 4.43799C75.8737 7.22133 80.9393 11.1737 84.502 16.295C88.176 21.4163 90.013 27.5397 90.013 34.665C90.013 38.4503 89.512 42.2357 88.51 46.021C87.6193 49.695 85.7267 53.5917 82.832 57.711C80.0487 61.8303 75.9293 66.4507 70.474 71.572L33.066 106.809L27.889 96.956H93.854V119H5.511ZM123.053 119V12.12L134.743 23.81H99.6729V2.09999H150.107V119H123.053Z" fill="#FEFFED"/>
<path d="M5.511 119H3.511V121H5.511V119ZM5.511 101.465L4.13775 100.011L3.511 100.603V101.465H5.511ZM50.601 58.88L49.258 57.398L49.2427 57.4118L49.2278 57.426L50.601 58.88ZM58.45 50.196L60.1252 51.2885L58.45 50.196ZM61.79 43.182L59.8828 42.5797L59.8682 42.626L59.8559 42.673L61.79 43.182ZM57.949 26.649L56.6795 28.1945L56.7094 28.219L56.7402 28.2424L57.949 26.649ZM30.394 25.647L29.5773 23.8214L29.5681 23.8255L29.559 23.8296L30.394 25.647ZM19.873 34.498L18.79 36.1794L20.3842 37.2062L21.4944 35.669L19.873 34.498ZM0.167 21.806L-1.4971 20.6966L-2.62418 22.3872L-0.915955 23.4874L0.167 21.806ZM18.871 5.94099L17.9966 4.14226H17.9966L18.871 5.94099ZM69.305 4.43799L68.4869 6.26301L68.5057 6.27145L68.5247 6.2795L69.305 4.43799ZM84.502 16.295L82.8602 17.4371L82.8685 17.449L82.8769 17.4608L84.502 16.295ZM88.51 46.021L86.5766 45.5092L86.5712 45.5294L86.5663 45.5498L88.51 46.021ZM82.832 57.711L81.1956 56.5611L81.1851 56.5761L81.1748 56.5913L82.832 57.711ZM70.474 71.572L69.1051 70.1139L69.1027 70.1162L70.474 71.572ZM33.066 106.809L31.2955 107.739L32.5204 110.071L34.4373 108.265L33.066 106.809ZM27.889 96.956V94.956H24.5789L26.1185 97.8863L27.889 96.956ZM93.854 96.956H95.854V94.956H93.854V96.956ZM93.854 119V121H95.854V119H93.854ZM7.511 119V101.465H3.511V119H7.511ZM6.88425 102.919L51.9742 60.334L49.2278 57.426L4.13775 100.011L6.88425 102.919ZM51.944 60.362C55.5701 57.0759 58.3242 54.0502 60.1252 51.2885L56.7748 49.1035C55.2359 51.4632 52.7572 54.2268 49.258 57.398L51.944 60.362ZM60.1252 51.2885C61.8694 48.6141 63.0961 46.0777 63.7242 43.691L59.8559 42.673C59.3706 44.517 58.3706 46.6565 56.7748 49.1035L60.1252 51.2885ZM63.6972 43.7843C64.4123 41.5198 64.792 39.3656 64.792 37.337H60.792C60.792 38.8711 60.5037 40.6135 59.8828 42.5797L63.6972 43.7843ZM64.792 37.337C64.792 32.1446 62.966 27.9446 59.1578 25.0556L56.7402 28.2424C59.3894 30.2521 60.792 33.1774 60.792 37.337H64.792ZM59.2185 25.1035C55.5991 22.1305 50.445 20.808 44.088 20.808V24.808C49.9777 24.808 54.0642 26.0462 56.6795 28.1945L59.2185 25.1035ZM44.088 20.808C38.9242 20.808 34.0794 21.8073 29.5773 23.8214L31.2107 27.4726C35.17 25.7014 39.4545 24.808 44.088 24.808V20.808ZM29.559 23.8296C25.0982 25.8792 21.3295 29.0654 18.2516 33.327L21.4944 35.669C24.2058 31.9146 27.4511 29.2001 31.229 27.4644L29.559 23.8296ZM20.956 32.8166L1.24995 20.1246L-0.915955 23.4874L18.79 36.1794L20.956 32.8166ZM1.8311 22.9154C6.066 16.563 12.0131 11.4985 19.7454 7.73973L17.9966 4.14226C9.69692 8.17683 3.17467 13.6889 -1.4971 20.6966L1.8311 22.9154ZM19.7454 7.73973C27.4454 3.99668 36.3781 2.096 46.593 2.096V-1.904C35.8772 -1.904 26.3286 0.0919762 17.9966 4.14226L19.7454 7.73973ZM46.593 2.096C55.0575 2.096 62.3384 3.50679 68.4869 6.26301L70.1231 2.61297C63.357 -0.420128 55.4965 -1.904 46.593 -1.904V2.096ZM68.5247 6.2795C74.797 8.93727 79.5426 12.6681 82.8602 17.4371L86.1438 15.1529C82.3361 9.67925 76.9503 5.50539 70.0853 2.59649L68.5247 6.2795ZM82.8769 17.4608C86.276 22.1989 88.013 27.9011 88.013 34.665H92.013C92.013 27.1783 90.0761 20.6338 86.1271 15.1292L82.8769 17.4608ZM88.013 34.665C88.013 38.2717 87.5359 41.8851 86.5766 45.5092L90.4434 46.5328C91.4881 42.5862 92.013 38.629 92.013 34.665H88.013ZM86.5663 45.5498C85.7507 48.9143 83.9913 52.5826 81.1956 56.5611L84.4684 58.8609C87.462 54.6007 89.488 50.4757 90.4537 46.4922L86.5663 45.5498ZM81.1748 56.5913C78.5052 60.5424 74.5006 65.0487 69.1051 70.1139L71.8429 73.0301C77.358 67.8526 81.5922 63.1183 84.4892 58.8307L81.1748 56.5913ZM69.1027 70.1162L31.6947 105.353L34.4373 108.265L71.8453 73.0278L69.1027 70.1162ZM34.8365 105.879L29.6595 96.0257L26.1185 97.8863L31.2955 107.739L34.8365 105.879ZM27.889 98.956H93.854V94.956H27.889V98.956ZM91.854 96.956V119H95.854V96.956H91.854ZM93.854 117H5.511V121H93.854V117ZM123.053 119H121.053V121H123.053V119ZM123.053 12.12L124.467 10.7058L121.053 7.29156V12.12H123.053ZM134.743 23.81V25.81H139.571L136.157 22.3958L134.743 23.81ZM99.6729 23.81H97.6729V25.81H99.6729V23.81ZM99.6729 2.09999V0.0999908H97.6729V2.09999H99.6729ZM150.107 2.09999H152.107V0.0999908H150.107V2.09999ZM150.107 119V121H152.107V119H150.107ZM125.053 119V12.12H121.053V119H125.053ZM121.639 13.5342L133.329 25.2242L136.157 22.3958L124.467 10.7058L121.639 13.5342ZM134.743 21.81H99.6729V25.81H134.743V21.81ZM101.673 23.81V2.09999H97.6729V23.81H101.673ZM99.6729 4.09999H150.107V0.0999908H99.6729V4.09999ZM148.107 2.09999V119H152.107V2.09999H148.107ZM150.107 117H123.053V121H150.107V117Z" fill="#05668D"/>
</svg>
