<svg width="414" height="122" viewBox="0 0 414 122" fill="currentColor" xmlns="http://www.w3.org/2000/svg">
<path d="M21.217 119L68.311 12.454L75.325 24.144H12.366L24.39 11.452V43.182H0.342V2.09999H94.029V19.635L50.609 119H21.217ZM152.911 121.004C143.336 121.004 134.764 118.666 127.193 113.99C119.622 109.203 113.666 102.3 109.324 93.282C104.982 84.264 102.811 73.3533 102.811 60.55C102.811 47.7467 104.982 36.836 109.324 27.818C113.666 18.8 119.622 11.953 127.193 7.277C134.764 2.48966 143.336 0.0959979 152.911 0.0959979C162.597 0.0959979 171.17 2.48966 178.629 7.277C186.2 11.953 192.156 18.8 196.498 27.818C200.84 36.836 203.011 47.7467 203.011 60.55C203.011 73.3533 200.84 84.264 196.498 93.282C192.156 102.3 186.2 109.203 178.629 113.99C171.17 118.666 162.597 121.004 152.911 121.004ZM152.911 98.125C157.476 98.125 161.428 96.8447 164.768 94.284C168.219 91.7233 170.891 87.6597 172.784 82.093C174.788 76.5263 175.79 69.3453 175.79 60.55C175.79 51.7547 174.788 44.5737 172.784 39.007C170.891 33.4403 168.219 29.3767 164.768 26.816C161.428 24.2553 157.476 22.975 152.911 22.975C148.458 22.975 144.505 24.2553 141.054 26.816C137.714 29.3767 135.042 33.4403 133.038 39.007C131.145 44.5737 130.199 51.7547 130.199 60.55C130.199 69.3453 131.145 76.5263 133.038 82.093C135.042 87.6597 137.714 91.7233 141.054 94.284C144.505 96.8447 148.458 98.125 152.911 98.125ZM266.256 121.004C256.681 121.004 248.108 118.666 240.538 113.99C232.967 109.203 227.011 102.3 222.669 93.282C218.327 84.264 216.156 73.3533 216.156 60.55C216.156 47.7467 218.327 36.836 222.669 27.818C227.011 18.8 232.967 11.953 240.538 7.277C248.108 2.48966 256.681 0.0959979 266.256 0.0959979C275.942 0.0959979 284.514 2.48966 291.974 7.277C299.544 11.953 305.501 18.8 309.843 27.818C314.185 36.836 316.356 47.7467 316.356 60.55C316.356 73.3533 314.185 84.264 309.843 93.282C305.501 102.3 299.544 109.203 291.974 113.99C284.514 118.666 275.942 121.004 266.256 121.004ZM266.256 98.125C270.82 98.125 274.773 96.8447 278.113 94.284C281.564 91.7233 284.236 87.6597 286.129 82.093C288.133 76.5263 289.135 69.3453 289.135 60.55C289.135 51.7547 288.133 44.5737 286.129 39.007C284.236 33.4403 281.564 29.3767 278.113 26.816C274.773 24.2553 270.82 22.975 266.256 22.975C261.802 22.975 257.85 24.2553 254.399 26.816C251.059 29.3767 248.387 33.4403 246.383 39.007C244.49 44.5737 243.544 51.7547 243.544 60.55C243.544 69.3453 244.49 76.5263 246.383 82.093C248.387 87.6597 251.059 91.7233 254.399 94.284C257.85 96.8447 261.802 98.125 266.256 98.125ZM362.885 99.127V21.973H384.428V99.127H362.885ZM333.994 70.737V50.363H413.486V70.737H333.994Z" fill="#FEFFED"/>
<path d="M21.217 119L19.3877 118.191L18.1463 121H21.217V119ZM68.311 12.454L70.026 11.425L68.0413 8.11713L66.4817 11.6454L68.311 12.454ZM75.325 24.144V26.144H78.8574L77.04 23.115L75.325 24.144ZM12.366 24.144L10.9141 22.7685L7.71626 26.144H12.366V24.144ZM24.39 11.452H26.39V6.43282L22.9381 10.0765L24.39 11.452ZM24.39 43.182V45.182H26.39V43.182H24.39ZM0.342 43.182H-1.658V45.182H0.342V43.182ZM0.342 2.09999V0.0999908H-1.658V2.09999H0.342ZM94.029 2.09999H96.029V0.0999908H94.029V2.09999ZM94.029 19.635L95.8617 20.4358L96.029 20.0529V19.635H94.029ZM50.609 119V121H51.9177L52.4417 119.801L50.609 119ZM23.0463 119.809L70.1403 13.2626L66.4817 11.6454L19.3877 118.191L23.0463 119.809ZM66.596 13.483L73.61 25.173L77.04 23.115L70.026 11.425L66.596 13.483ZM75.325 22.144H12.366V26.144H75.325V22.144ZM13.8179 25.5195L25.8419 12.8275L22.9381 10.0765L10.9141 22.7685L13.8179 25.5195ZM22.39 11.452V43.182H26.39V11.452H22.39ZM24.39 41.182H0.342V45.182H24.39V41.182ZM2.342 43.182V2.09999H-1.658V43.182H2.342ZM0.342 4.09999H94.029V0.0999908H0.342V4.09999ZM92.029 2.09999V19.635H96.029V2.09999H92.029ZM92.1963 18.8342L48.7763 118.199L52.4417 119.801L95.8617 20.4358L92.1963 18.8342ZM50.609 117H21.217V121H50.609V117ZM127.193 113.99L126.124 115.68L126.133 115.686L126.142 115.692L127.193 113.99ZM109.324 93.282L107.522 94.1496L109.324 93.282ZM109.324 27.818L111.126 28.6856L109.324 27.818ZM127.193 7.277L128.244 8.97859L128.253 8.97303L128.262 8.96738L127.193 7.277ZM178.629 7.277L177.549 8.96017L177.563 8.96951L177.578 8.97859L178.629 7.277ZM196.498 27.818L194.696 28.6856L196.498 27.818ZM196.498 93.282L194.696 92.4144L196.498 93.282ZM178.629 113.99L179.691 115.685L179.698 115.68L178.629 113.99ZM164.768 94.284L163.576 92.6778L163.564 92.6872L163.551 92.6968L164.768 94.284ZM172.784 82.093L170.902 81.4156L170.896 81.4323L170.89 81.4492L172.784 82.093ZM172.784 39.007L170.89 39.6508L170.896 39.6677L170.902 39.6844L172.784 39.007ZM164.768 26.816L163.551 28.4032L163.564 28.4128L163.576 28.4222L164.768 26.816ZM141.054 26.816L139.862 25.2098L139.85 25.2192L139.837 25.2288L141.054 26.816ZM133.038 39.007L131.156 38.3296L131.15 38.3463L131.144 38.3632L133.038 39.007ZM133.038 82.093L131.144 82.7368L131.15 82.7537L131.156 82.7704L133.038 82.093ZM141.054 94.284L139.837 95.8712L139.85 95.8808L139.862 95.8902L141.054 94.284ZM152.911 119.004C143.678 119.004 135.475 116.754 128.244 112.288L126.142 115.692C134.052 120.578 142.994 123.004 152.911 123.004V119.004ZM128.262 112.3C121.044 107.735 115.325 101.136 111.126 92.4144L107.522 94.1496C112.007 103.464 118.2 110.67 126.124 115.68L128.262 112.3ZM111.126 92.4144C106.945 83.7317 104.811 73.134 104.811 60.55H100.811C100.811 73.5726 103.018 84.7963 107.522 94.1496L111.126 92.4144ZM104.811 60.55C104.811 47.966 106.945 37.3683 111.126 28.6856L107.522 26.9504C103.018 36.3037 100.811 47.5274 100.811 60.55H104.811ZM111.126 28.6856C115.324 19.9674 121.037 13.4296 128.244 8.97859L126.142 5.5754C118.207 10.4763 112.008 17.6326 107.522 26.9504L111.126 28.6856ZM128.262 8.96738C135.49 4.39638 143.687 2.096 152.911 2.096V-1.904C142.985 -1.904 134.037 0.582947 126.124 5.58661L128.262 8.96738ZM152.911 2.096C162.251 2.096 170.441 4.39878 177.549 8.96017L179.709 5.59382C171.898 0.580544 162.943 -1.904 152.911 -1.904V2.096ZM177.578 8.97859C184.784 13.4296 190.498 19.9674 194.696 28.6856L198.3 26.9504C193.814 17.6326 187.615 10.4763 179.68 5.5754L177.578 8.97859ZM194.696 28.6856C198.876 37.3683 201.011 47.966 201.011 60.55H205.011C205.011 47.5274 202.803 36.3037 198.3 26.9504L194.696 28.6856ZM201.011 60.55C201.011 73.134 198.876 83.7317 194.696 92.4144L198.3 94.1496C202.803 84.7963 205.011 73.5726 205.011 60.55H201.011ZM194.696 92.4144C190.497 101.136 184.778 107.735 177.56 112.3L179.698 115.68C187.621 110.67 193.815 103.464 198.3 94.1496L194.696 92.4144ZM177.567 112.295C170.457 116.752 162.26 119.004 152.911 119.004V123.004C162.934 123.004 171.882 120.58 179.691 115.685L177.567 112.295ZM152.911 100.125C157.876 100.125 162.265 98.7227 165.985 95.8712L163.551 92.6968C160.59 94.9666 157.075 96.125 152.911 96.125V100.125ZM165.96 95.8902C169.837 93.0131 172.701 88.5501 174.677 82.7368L170.89 81.4492C169.081 86.7693 166.601 90.4336 163.576 92.6778L165.96 95.8902ZM174.666 82.7704C176.776 76.908 177.79 69.4748 177.79 60.55H173.79C173.79 69.2158 172.8 76.1446 170.902 81.4156L174.666 82.7704ZM177.79 60.55C177.79 51.6251 176.776 44.1919 174.666 38.3296L170.902 39.6844C172.8 44.9554 173.79 51.8842 173.79 60.55H177.79ZM174.677 38.3632C172.701 32.5499 169.837 28.0869 165.96 25.2098L163.576 28.4222C166.601 30.6664 169.081 34.3307 170.89 39.6508L174.677 38.3632ZM165.985 25.2288C162.265 22.3773 157.876 20.975 152.911 20.975V24.975C157.075 24.975 160.59 26.1333 163.551 28.4032L165.985 25.2288ZM152.911 20.975C148.045 20.975 143.671 22.3836 139.862 25.2098L142.246 28.4222C145.339 26.127 148.87 24.975 152.911 24.975V20.975ZM139.837 25.2288C136.093 28.0993 133.239 32.5424 131.156 38.3296L134.92 39.6844C136.844 34.3382 139.335 30.654 142.271 28.4032L139.837 25.2288ZM131.144 38.3632C129.155 44.2129 128.199 51.6332 128.199 60.55H132.199C132.199 51.8761 133.135 44.9345 134.931 39.6508L131.144 38.3632ZM128.199 60.55C128.199 69.4667 129.155 76.8871 131.144 82.7368L134.931 81.4492C133.135 76.1655 132.199 69.2239 132.199 60.55H128.199ZM131.156 82.7704C133.239 88.5576 136.093 93.0007 139.837 95.8712L142.271 92.6968C139.335 90.446 136.844 86.7617 134.92 81.4156L131.156 82.7704ZM139.862 95.8902C143.671 98.7164 148.045 100.125 152.911 100.125V96.125C148.87 96.125 145.339 94.973 142.246 92.6778L139.862 95.8902ZM240.538 113.99L239.469 115.68L239.478 115.686L239.487 115.692L240.538 113.99ZM222.669 93.282L220.867 94.1496L222.669 93.282ZM222.669 27.818L224.471 28.6856L222.669 27.818ZM240.538 7.277L241.589 8.97859L241.598 8.97303L241.607 8.96738L240.538 7.277ZM291.974 7.277L290.893 8.96017L290.908 8.96951L290.923 8.97859L291.974 7.277ZM309.843 27.818L308.041 28.6856L309.843 27.818ZM309.843 93.282L308.041 92.4144L309.843 93.282ZM291.974 113.99L293.036 115.685L293.043 115.68L291.974 113.99ZM278.113 94.284L276.921 92.6778L276.908 92.6872L276.896 92.6968L278.113 94.284ZM286.129 82.093L284.247 81.4156L284.241 81.4323L284.235 81.4492L286.129 82.093ZM286.129 39.007L284.235 39.6508L284.241 39.6677L284.247 39.6844L286.129 39.007ZM278.113 26.816L276.896 28.4032L276.908 28.4128L276.921 28.4222L278.113 26.816ZM254.399 26.816L253.207 25.2098L253.194 25.2192L253.182 25.2288L254.399 26.816ZM246.383 39.007L244.501 38.3296L244.495 38.3463L244.489 38.3632L246.383 39.007ZM246.383 82.093L244.489 82.7368L244.495 82.7537L244.501 82.7704L246.383 82.093ZM254.399 94.284L253.182 95.8712L253.194 95.8808L253.207 95.8902L254.399 94.284ZM266.256 119.004C257.023 119.004 248.819 116.754 241.589 112.288L239.487 115.692C247.397 120.578 256.339 123.004 266.256 123.004V119.004ZM241.607 112.3C234.389 107.735 228.67 101.136 224.471 92.4144L220.867 94.1496C225.351 103.464 231.545 110.67 239.469 115.68L241.607 112.3ZM224.471 92.4144C220.29 83.7317 218.156 73.134 218.156 60.55H214.156C214.156 73.5726 216.363 84.7963 220.867 94.1496L224.471 92.4144ZM218.156 60.55C218.156 47.966 220.29 37.3683 224.471 28.6856L220.867 26.9504C216.363 36.3037 214.156 47.5274 214.156 60.55H218.156ZM224.471 28.6856C228.668 19.9674 234.382 13.4296 241.589 8.97859L239.487 5.5754C231.552 10.4763 225.353 17.6326 220.867 26.9504L224.471 28.6856ZM241.607 8.96738C248.835 4.39638 257.032 2.096 266.256 2.096V-1.904C256.33 -1.904 247.381 0.582947 239.469 5.58661L241.607 8.96738ZM266.256 2.096C275.596 2.096 283.786 4.39878 290.893 8.96017L293.054 5.59382C285.242 0.580544 276.288 -1.904 266.256 -1.904V2.096ZM290.923 8.97859C298.129 13.4296 303.843 19.9674 308.041 28.6856L311.645 26.9504C307.158 17.6326 300.959 10.4763 293.025 5.5754L290.923 8.97859ZM308.041 28.6856C312.221 37.3683 314.356 47.966 314.356 60.55H318.356C318.356 47.5274 316.148 36.3037 311.645 26.9504L308.041 28.6856ZM314.356 60.55C314.356 73.134 312.221 83.7317 308.041 92.4144L311.645 94.1496C316.148 84.7963 318.356 73.5726 318.356 60.55H314.356ZM308.041 92.4144C303.841 101.136 298.123 107.735 290.905 112.3L293.043 115.68C300.966 110.67 307.16 103.464 311.645 94.1496L308.041 92.4144ZM290.911 112.295C283.802 116.752 275.605 119.004 266.256 119.004V123.004C276.278 123.004 285.227 120.58 293.036 115.685L290.911 112.295ZM266.256 100.125C271.221 100.125 275.61 98.7227 279.329 95.8712L276.896 92.6968C273.935 94.9666 270.42 96.125 266.256 96.125V100.125ZM279.304 95.8902C283.182 93.0131 286.046 88.5501 288.022 82.7368L284.235 81.4492C282.426 86.7693 279.946 90.4336 276.921 92.6778L279.304 95.8902ZM288.01 82.7704C290.121 76.908 291.135 69.4748 291.135 60.55H287.135C287.135 69.2158 286.144 76.1446 284.247 81.4156L288.01 82.7704ZM291.135 60.55C291.135 51.6251 290.121 44.1919 288.01 38.3296L284.247 39.6844C286.144 44.9554 287.135 51.8842 287.135 60.55H291.135ZM288.022 38.3632C286.046 32.5499 283.182 28.0869 279.304 25.2098L276.921 28.4222C279.946 30.6664 282.426 34.3307 284.235 39.6508L288.022 38.3632ZM279.329 25.2288C275.61 22.3773 271.221 20.975 266.256 20.975V24.975C270.42 24.975 273.935 26.1333 276.896 28.4032L279.329 25.2288ZM266.256 20.975C261.39 20.975 257.016 22.3836 253.207 25.2098L255.59 28.4222C258.684 26.127 262.215 24.975 266.256 24.975V20.975ZM253.182 25.2288C249.438 28.0993 246.584 32.5424 244.501 38.3296L248.264 39.6844C250.189 34.3382 252.68 30.654 255.615 28.4032L253.182 25.2288ZM244.489 38.3632C242.5 44.2129 241.544 51.6332 241.544 60.55H245.544C245.544 51.8761 246.48 44.9345 248.276 39.6508L244.489 38.3632ZM241.544 60.55C241.544 69.4667 242.5 76.8871 244.489 82.7368L248.276 81.4492C246.48 76.1655 245.544 69.2239 245.544 60.55H241.544ZM244.501 82.7704C246.584 88.5576 249.438 93.0007 253.182 95.8712L255.615 92.6968C252.68 90.446 250.189 86.7617 248.264 81.4156L244.501 82.7704ZM253.207 95.8902C257.016 98.7164 261.39 100.125 266.256 100.125V96.125C262.215 96.125 258.684 94.973 255.59 92.6778L253.207 95.8902ZM362.885 99.127H360.885V101.127H362.885V99.127ZM362.885 21.973V19.973H360.885V21.973H362.885ZM384.428 21.973H386.428V19.973H384.428V21.973ZM384.428 99.127V101.127H386.428V99.127H384.428ZM333.994 70.737H331.994V72.737H333.994V70.737ZM333.994 50.363V48.363H331.994V50.363H333.994ZM413.486 50.363H415.486V48.363H413.486V50.363ZM413.486 70.737V72.737H415.486V70.737H413.486ZM364.885 99.127V21.973H360.885V99.127H364.885ZM362.885 23.973H384.428V19.973H362.885V23.973ZM382.428 21.973V99.127H386.428V21.973H382.428ZM384.428 97.127H362.885V101.127H384.428V97.127ZM335.994 70.737V50.363H331.994V70.737H335.994ZM333.994 52.363H413.486V48.363H333.994V52.363ZM411.486 50.363V70.737H415.486V50.363H411.486ZM413.486 68.737H333.994V72.737H413.486V68.737Z" fill="#05668D"/>
</svg>
